<?xml version="1.0" standalone="no"?>
<!DOCTYPE svg PUBLIC "-//W3C//DTD SVG 20010904//EN"
 "http://www.w3.org/TR/2001/REC-SVG-20010904/DTD/svg10.dtd">
<svg version="1.0" xmlns="http://www.w3.org/2000/svg"
 width="892.000000pt" height="588.000000pt" viewBox="0 0 892.000000 588.000000"
 preserveAspectRatio="xMidYMid meet">

<g transform="translate(0.000000,588.000000) scale(0.100000,-0.100000)"
fill="#000000" stroke="none">
<path d="M1717 5070 c-75 -13 -184 -48 -267 -87 -65 -30 -92 -52 -200 -162
-144 -146 -267 -301 -414 -521 -204 -304 -224 -339 -285 -488 -88 -216 -139
-479 -148 -772 -5 -159 -3 -189 21 -330 39 -227 102 -412 188 -549 8 -14 8
-36 0 -89 -26 -154 -5 -470 34 -531 9 -13 27 -65 40 -115 45 -166 126 -303
216 -363 52 -35 201 -94 324 -129 102 -29 307 -44 414 -31 138 18 250 69 344
157 133 124 209 269 295 557 7 24 203 193 224 193 45 0 117 33 157 73 25 24
81 65 125 92 121 74 257 216 317 330 49 95 81 182 93 255 6 35 18 56 56 94 27
26 61 75 76 107 30 63 38 70 48 40 12 -39 66 -101 104 -121 53 -27 135 -27
178 0 73 44 132 174 178 393 26 123 80 258 130 322 40 53 68 151 62 221 -12
154 -143 311 -317 380 -38 15 -89 43 -111 63 -44 37 -89 119 -89 161 0 41 -56
146 -106 200 -102 109 -316 217 -635 319 -70 23 -134 50 -144 61 -9 10 -61 33
-114 51 -55 18 -110 44 -128 60 -136 118 -456 194 -666 159z m260 -20 c91 -15
227 -57 297 -91 84 -42 96 -57 16 -21 -36 16 -76 32 -90 36 l-25 7 25 -15 c24
-15 23 -15 -25 -8 -66 9 -348 9 -405 0 -31 -6 -40 -5 -29 2 26 15 137 39 214
46 92 9 95 14 9 14 -214 -1 -396 -86 -603 -284 -56 -53 -60 -56 -32 -19 50 66
113 127 182 178 80 59 85 64 31 34 -65 -36 -170 -127 -225 -194 -86 -106 -131
-215 -193 -460 -64 -253 -138 -483 -217 -670 -70 -166 -87 -246 -87 -422 -1
-151 13 -243 55 -368 96 -288 329 -604 535 -725 36 -21 109 -53 162 -71 103
-35 123 -48 42 -28 -135 34 -262 102 -367 199 -48 44 -64 54 -49 33 13 -18 50
-56 83 -84 62 -54 71 -69 42 -69 -40 0 -116 68 -198 176 -86 114 -211 308
-259 402 -43 86 -38 59 8 -40 42 -91 120 -229 179 -318 18 -27 22 -37 10 -25
-31 30 -124 170 -172 258 -24 42 -45 77 -47 77 -2 0 18 -45 46 -100 28 -55 48
-100 46 -100 -7 0 -99 166 -126 227 -13 29 -25 51 -27 49 -5 -4 22 -67 73
-171 25 -49 36 -79 25 -65 -26 32 -87 155 -123 245 -32 81 -37 75 -8 -9 44
-130 138 -291 249 -428 74 -92 219 -217 299 -257 144 -73 298 -97 425 -67 122
29 181 14 85 -22 -182 -67 -357 -41 -542 82 -208 139 -403 355 -515 571 -43
83 -46 71 -5 -25 l24 -55 -29 34 c-29 33 -97 151 -87 151 2 0 -7 28 -21 63
-14 34 -36 112 -49 172 l-24 110 6 -75 c10 -136 31 -221 78 -315 50 -99 146
-232 246 -340 l65 -70 -64 55 c-145 124 -268 308 -307 461 -37 146 -52 425
-33 619 21 218 68 426 144 650 38 112 59 154 120 245 230 346 502 657 630 722
170 87 363 120 532 93z m118 -125 c99 -7 257 -42 393 -88 98 -33 152 -58 87
-40 -17 4 -77 8 -135 7 -84 -1 -121 -6 -185 -27 -84 -28 -214 -97 -278 -148
-21 -17 -41 -29 -43 -26 -8 8 81 79 144 114 31 18 53 33 48 33 -17 0 -141 -72
-190 -111 -51 -41 -62 -45 -85 -30 -14 9 43 60 147 129 28 19 52 37 52 39 0
10 -103 -53 -169 -103 -62 -46 -78 -54 -114 -53 -73 2 -99 12 -117 44 -22 42
-20 60 10 60 16 0 24 5 22 14 -2 9 3 11 13 7 9 -3 13 -2 10 4 -3 6 0 10 7 10
9 0 9 3 -2 10 -20 13 -39 12 -20 -1 12 -8 9 -9 -10 -4 -19 5 -22 4 -10 -4 13
-10 13 -11 0 -11 -13 0 -13 -1 0 -10 8 -5 11 -10 5 -10 -5 0 -17 5 -25 10 -11
7 -11 10 -2 10 7 0 10 5 7 10 -3 6 1 13 9 16 9 3 13 10 10 15 -3 5 2 6 11 3
10 -4 15 -2 13 6 -4 16 47 47 126 76 74 28 61 32 -15 5 -106 -36 -249 -119
-384 -223 -70 -53 -79 -58 -40 -22 75 70 195 157 277 202 111 60 260 104 328
96 14 -2 61 -6 105 -9z m555 -171 c457 -126 754 -295 820 -469 14 -38 23 -84
24 -125 1 -69 -27 -330 -45 -419 -13 -63 -47 -147 -56 -138 -3 4 4 30 16 58
16 36 25 85 31 164 5 63 17 163 26 225 21 129 13 194 -33 269 -38 59 -56 70
-89 51 -28 -16 -37 -30 -85 -132 -32 -69 -63 -107 -76 -94 -11 11 13 109 42
171 15 31 42 72 61 90 19 19 34 37 34 39 0 7 -78 52 -124 71 l-39 17 26 -32
c20 -23 27 -43 27 -72 0 -50 -20 -85 -71 -121 -45 -32 -65 -60 -85 -115 l-13
-37 -1 35 c-2 38 -4 36 -20 -29 -19 -73 -23 -38 -5 53 8 47 18 94 21 104 5 14
4 14 -5 2 -5 -8 -13 -32 -16 -52 -4 -22 -15 -42 -25 -48 -12 -6 -21 -25 -23
-48 -3 -20 -3 -8 -1 28 1 36 5 74 9 85 3 11 -3 1 -14 -22 -23 -50 -38 -55 -43
-15 -3 20 -6 14 -12 -25 -10 -62 -23 -71 -18 -13 l4 41 -36 -25 c-56 -37 -100
-48 -180 -44 -103 5 -218 63 -329 165 -85 78 -163 135 -233 171 -90 46 -70
108 56 173 60 31 56 37 -9 14 -58 -20 -51 -11 15 19 76 35 126 48 214 56 97 9
155 3 260 -26z m-800 -165 c81 -17 209 -64 281 -104 91 -52 145 -94 224 -177
39 -40 59 -63 45 -52 -14 12 -55 46 -92 77 -65 54 -171 127 -186 127 -3 0 11
-12 33 -27 52 -34 104 -78 85 -70 -43 17 -122 38 -126 34 -3 -3 8 -8 25 -12
45 -10 38 -23 -16 -30 -70 -9 -55 -9 -365 -1 l-286 8 -57 58 -58 58 58 7 c32
4 153 6 269 3 198 -4 205 -3 121 8 -49 7 -127 13 -172 13 -45 1 -85 6 -88 11
-7 11 13 13 195 12 122 0 123 0 55 10 -38 5 -135 8 -215 6 -129 -4 -166 6 -50
13 38 2 40 3 13 6 -18 2 -74 -3 -124 -12 -66 -11 -96 -12 -103 -5 -21 21 13
29 219 54 51 6 257 -4 315 -15z m-494 -141 c107 -102 284 -294 449 -488 77
-91 196 -228 265 -305 123 -138 124 -139 47 -71 -43 39 -84 77 -90 86 -7 9
-39 46 -71 81 -51 54 -55 57 -25 17 19 -26 56 -74 82 -107 l48 -61 -78 59
c-77 58 -223 154 -223 147 0 -2 33 -28 73 -59 39 -31 90 -74 112 -97 38 -41
39 -42 10 -27 -49 25 -212 76 -306 97 -104 23 -99 23 -99 9 0 -6 7 -8 16 -5
14 5 15 4 5 -8 -11 -13 -8 -16 16 -21 94 -18 166 -41 226 -70 83 -41 170 -96
163 -103 -3 -3 -23 6 -44 20 -110 73 -192 104 -357 133 -104 19 -121 24 -85
26 25 1 -25 5 -110 9 -203 8 -249 28 -264 113 -6 33 30 77 62 77 31 0 72 38
72 67 0 26 1 26 65 21 63 -6 97 -20 243 -105 61 -36 52 -22 -15 22 -32 21 -87
62 -123 90 -81 65 -131 96 -193 119 -56 21 -70 52 -43 96 9 16 16 39 16 52 l0
23 20 -25 c24 -30 26 -20 4 21 -8 17 -14 48 -12 72 4 55 34 67 104 44 l49 -16
-30 22 c-49 35 -75 68 -75 93 0 13 4 24 10 24 5 0 44 -33 86 -72z m485 -122
c141 -13 456 -87 445 -105 -3 -4 -55 -5 -116 -3 -95 4 -186 -3 -340 -24 l-35
-5 30 16 c17 8 21 13 10 11 -117 -25 -116 -16 1 13 97 24 61 27 -59 5 -108
-20 -156 -10 -211 43 -42 41 -44 50 -13 55 30 4 219 0 288 -6z m422 -22 c78
-26 49 -25 -48 2 -59 15 -74 22 -45 19 25 -3 67 -13 93 -21z m2 -113 c29 -6 1
-9 -101 -10 -120 -1 -262 -16 -339 -37 -16 -4 -17 -3 -5 5 13 9 143 35 225 44
58 7 180 6 220 -2z m135 -40 c0 -5 -9 -7 -20 -4 -11 3 -20 7 -20 9 0 2 9 4 20
4 11 0 20 -4 20 -9z m185 -41 c230 -68 422 -156 603 -279 144 -98 183 -169
216 -393 26 -174 5 -376 -59 -574 -48 -148 -125 -240 -219 -265 -23 -5 -49
-13 -60 -16 -12 -3 -17 -1 -14 8 2 7 17 14 33 16 69 10 149 73 208 164 36 56
84 339 92 546 5 143 -12 239 -62 337 -42 84 -60 103 -162 171 -105 70 -140 86
-69 32 64 -49 69 -75 29 -149 -19 -34 -29 -58 -23 -54 17 10 15 -2 -6 -32 -34
-49 -35 -57 -3 -22 l32 35 -29 -45 c-16 -25 -39 -63 -50 -86 -11 -22 -35 -54
-53 -72 -28 -28 -40 -32 -84 -32 -74 0 -89 20 -89 112 0 53 -2 64 -8 42 -5
-16 -9 -64 -9 -107 -1 -84 -10 -97 -62 -97 -78 0 -89 166 -22 333 13 31 20 55
15 52 -12 -7 -66 -162 -75 -212 -6 -39 -10 -43 -42 -49 -54 -10 -139 2 -243
36 -85 27 -105 39 -178 101 -45 39 -80 74 -77 79 3 4 -2 13 -10 20 -8 7 -12
17 -8 23 4 6 0 8 -10 4 -16 -6 -30 6 -33 30 -1 7 12 1 30 -12 38 -29 55 -33
35 -8 -13 15 -12 15 10 4 19 -10 21 -15 10 -22 -8 -5 -9 -9 -4 -9 6 0 3 -5 -5
-11 -13 -10 -13 -10 1 -6 9 3 16 -1 16 -8 0 -7 -6 -11 -14 -8 -22 9 -15 -2 20
-27 21 -16 27 -18 17 -6 -14 18 -23 46 -13 46 3 0 19 -10 36 -22 l32 -22 -19
22 c-20 23 -9 31 12 10 7 -7 12 -9 12 -6 0 9 -191 150 -197 145 -3 -3 14 -18
36 -33 23 -15 39 -29 37 -32 -8 -7 -87 59 -81 68 3 4 -25 31 -62 58 -82 61
-128 108 -142 144 -8 21 -6 31 10 52 32 40 105 51 349 51 l215 -1 138 -38 c77
-21 173 -52 215 -67 42 -16 78 -27 80 -25 7 7 -162 69 -293 107 -71 21 -121
38 -109 38 12 1 83 -17 159 -39z m964 -30 l33 -41 -29 5 c-15 2 -32 5 -36 5
-6 1 -8 71 -2 71 1 0 16 -18 34 -40z m-2885 -122 c-41 -120 -91 -324 -115
-468 -18 -111 -22 -174 -22 -355 0 -307 26 -446 115 -605 16 -30 26 -50 20
-45 -21 20 -82 130 -102 182 -30 79 -61 279 -69 443 l-8 145 -1 -144 c-4 -374
98 -666 317 -904 71 -76 68 -78 -19 -11 -66 50 -120 108 -161 172 -16 25 -29
41 -29 36 0 -5 23 -48 52 -94 69 -113 229 -273 364 -362 103 -68 239 -129 375
-167 104 -29 110 -25 14 8 -95 33 -187 72 -182 77 2 2 30 -5 61 -16 207 -71
400 -64 567 20 67 35 82 38 48 11 -58 -45 -177 -90 -274 -104 -22 -3 -18 -4
15 -6 93 -3 209 41 281 106 27 24 43 33 50 26 13 -13 -68 -86 -131 -118 -222
-112 -529 -58 -845 150 -325 214 -501 491 -556 875 -32 223 19 648 108 904 48
139 131 316 148 316 2 0 -7 -33 -21 -72z m2992 36 c146 -47 262 -143 322 -264
22 -46 27 -68 26 -135 0 -87 3 -79 -106 -284 l-56 -103 -12 38 c-7 22 -23 56
-36 77 -21 31 -30 37 -60 37 -32 0 -37 -4 -55 -45 -11 -25 -29 -85 -39 -134
-19 -85 -19 -93 -4 -158 18 -72 23 -233 11 -295 -6 -28 -14 -39 -37 -46 -16
-6 -37 -9 -47 -7 -10 2 -30 6 -45 10 -40 8 -95 61 -124 116 -27 54 -34 104 -7
54 27 -50 72 -103 107 -124 48 -30 52 -26 12 9 -19 17 -42 51 -52 76 -15 39
-16 57 -5 157 14 139 31 205 82 316 39 87 28 86 -17 -2 -14 -27 -27 -47 -29
-45 -5 5 30 175 45 212 6 16 9 31 6 33 -3 4 -12 -16 -45 -112 -21 -61 -1 35
23 108 12 37 21 67 19 67 -1 0 -12 -17 -23 -37 -27 -50 -17 -7 17 67 13 30 20
51 14 45 -14 -15 -70 -129 -91 -187 -19 -51 -19 -51 -14 -13 10 62 40 143 79
208 41 68 17 56 -26 -13 -23 -37 -29 -41 -29 -22 0 52 75 183 122 212 l29 17
-37 28 c-41 31 -73 94 -74 143 l0 32 43 -6 c23 -4 74 -17 113 -30z m-2353
-492 c169 -211 380 -484 511 -662 6 -8 -4 -4 -21 8 -18 13 -60 58 -94 100 -70
87 -97 116 -84 92 5 -8 20 -33 35 -55 47 -70 43 -71 -21 -5 -63 65 -67 65 -20
0 l25 -35 -35 33 c-19 18 -38 30 -41 26 -7 -6 -75 82 -101 131 -9 17 -16 26
-16 20 -1 -5 17 -44 39 -85 l40 -75 -41 45 -41 45 36 -50 c20 -27 46 -62 57
-77 20 -27 20 -28 1 -28 -26 0 -117 98 -181 195 -80 121 -182 235 -313 352
-65 58 -116 108 -113 111 3 3 20 -8 38 -24 50 -46 75 -62 43 -27 -33 37 -28
53 18 53 26 0 35 -6 45 -26 15 -34 25 -25 11 10 -8 23 -6 33 11 58 18 25 20
34 10 56 -9 20 0 14 36 -24 26 -28 43 -43 37 -35 -6 9 -32 47 -59 85 -87 125
-29 60 188 -212z m1851 203 c-21 -24 -40 -42 -43 -40 -4 5 68 85 77 85 1 0
-14 -20 -34 -45z m-974 10 c7 -8 8 -15 2 -15 -5 0 -15 7 -22 15 -7 8 -8 15 -2
15 5 0 15 -7 22 -15z m-573 -11 c-3 -3 -12 -4 -19 -1 -8 3 -5 6 6 6 11 1 17
-2 13 -5z m-206 -84 c96 -42 138 -49 299 -50 83 0 151 -5 160 -11 10 -7 -72
-9 -268 -6 l-284 5 -29 28 c-44 42 -39 58 19 51 l47 -5 -55 18 c-30 10 -65 19
-77 19 -13 1 -23 5 -23 10 0 13 129 -24 211 -59z m1909 10 c16 -30 -2 -79 -53
-143 -41 -52 -31 -50 30 7 29 26 33 27 39 12 4 -10 4 -55 1 -99 -15 -186 -142
-332 -259 -298 l-33 9 34 1 c40 1 110 33 135 60 17 18 15 18 -23 -1 -56 -27
-109 -33 -151 -15 l-35 14 55 -5 55 -4 -29 31 c-16 17 -28 33 -25 35 2 2 19
11 37 20 43 22 41 29 -4 10 -20 -8 -46 -14 -58 -12 -17 3 -14 7 21 26 44 23
73 52 37 37 -10 -4 -30 -10 -44 -12 -16 -3 -11 2 16 15 51 25 68 47 20 27 -64
-27 -72 -15 -13 17 33 18 87 62 126 104 101 105 109 134 11 35 -46 -46 -86
-78 -88 -72 -10 31 142 221 177 221 6 0 15 -9 21 -20z m-1485 -116 c229 -13
427 -42 530 -77 227 -78 386 -156 444 -219 60 -63 146 -265 197 -458 34 -131
39 -292 11 -381 -41 -134 -128 -206 -262 -217 -45 -3 -65 -1 -65 7 0 6 14 11
31 11 36 0 147 27 169 42 11 7 7 8 -14 3 -74 -16 -89 -15 -39 3 94 34 140 79
170 167 39 117 -32 465 -143 693 -48 99 -93 151 -165 191 l-44 25 33 -33 c46
-47 44 -86 -8 -146 -40 -47 -62 -81 -81 -132 -12 -34 -5 -25 45 49 37 56 93
108 117 108 6 0 -11 -24 -38 -53 -54 -57 -84 -109 -114 -196 -29 -83 -24 -92
23 -41 l41 45 -28 -40 c-15 -22 -40 -53 -54 -69 l-26 -29 33 23 c49 33 99 106
121 175 11 33 20 53 20 44 2 -46 -41 -149 -81 -195 -40 -45 -40 -47 -11 -26
43 30 111 108 135 155 11 22 22 37 25 34 3 -3 -27 -54 -66 -114 -70 -108 -70
-108 -44 -111 43 -6 69 -29 103 -95 18 -34 49 -84 70 -112 49 -66 90 -145 90
-172 0 -46 -9 -53 -72 -53 -54 0 -59 2 -53 19 4 14 -1 20 -22 26 -26 7 -26 8
-8 15 17 7 16 9 -10 10 -16 1 -37 2 -46 1 -9 -1 -19 5 -22 14 -4 8 -2 15 3 15
6 0 10 -4 10 -9 0 -4 11 -6 25 -3 51 9 9 23 -70 23 -34 0 -45 3 -35 9 8 5 23
10 33 10 10 0 15 5 12 10 -3 6 -22 10 -41 10 -19 0 -34 5 -34 11 0 6 7 8 16 5
8 -3 13 -2 9 3 -3 5 1 12 7 15 7 3 -2 4 -19 2 -18 -3 -36 0 -39 6 -3 5 -12 7
-20 4 -7 -3 -16 -1 -19 4 -3 4 6 7 19 6 14 -2 30 1 38 5 13 9 1 11 -61 13 -13
1 -26 7 -29 15 -3 10 0 12 12 8 9 -4 16 -2 16 3 0 6 -15 11 -32 11 -67 3 -76
4 -84 12 -4 4 15 7 42 8 45 1 46 1 19 10 -16 5 -40 7 -52 4 -13 -2 -25 0 -28
4 -2 5 28 11 68 14 125 10 135 24 16 24 -142 0 -211 20 -243 71 -27 42 -54
120 -66 190 l-8 47 -1 -40 c0 -22 4 -69 9 -104 6 -35 9 -65 7 -68 -14 -14
-327 87 -348 113 -16 19 -9 18 88 -16 103 -37 120 -34 26 4 -148 58 -151 61
-351 321 -101 132 -191 254 -200 272 -38 78 32 90 413 67z m-744 -115 c64 -41
180 -168 174 -190 -3 -9 1 -22 10 -29 21 -17 19 -30 -5 -25 -25 5 -25 6 5 -35
14 -19 25 -38 25 -42 0 -14 -78 30 -123 69 -25 21 -19 13 16 -22 62 -62 64
-60 -34 -34 -21 5 -44 20 -53 34 -9 14 -36 39 -59 56 -23 17 -42 36 -42 42 0
7 -22 27 -50 45 -73 49 -82 102 -18 102 29 0 36 5 48 34 18 42 35 41 106 -5z
m2295 -66 c-20 -216 -111 -509 -177 -568 -15 -14 -11 -4 14 35 64 102 133 346
153 543 4 37 9 67 12 67 3 0 2 -35 -2 -77z m404 -25 c11 -18 28 -57 36 -87 15
-51 15 -60 -6 -164 -27 -136 -72 -263 -108 -306 l-28 -33 0 123 c0 82 -6 145
-16 184 -14 53 -15 70 -3 136 7 41 23 98 35 127 28 64 59 71 90 20z m-2795
-80 c6 -5 -25 7 -67 28 -43 21 -78 42 -78 47 0 9 127 -56 145 -75z m20 -49
c37 -25 84 -69 73 -69 -2 0 -28 7 -57 16 -74 22 -86 12 -15 -13 78 -28 189
-57 299 -78 78 -15 95 -22 128 -53 20 -20 37 -39 37 -43 0 -7 -182 0 -189 7
-2 2 33 4 79 4 123 0 94 7 -55 13 -71 2 -110 1 -87 -2 24 -4 47 -13 51 -19 8
-14 134 -30 231 -30 63 -1 178 -30 210 -53 12 -9 12 -10 -4 -5 -10 3 -104 11
-209 16 -223 12 -430 40 -551 75 -48 14 -89 25 -93 25 -3 0 -4 2 -1 5 3 4 47
-6 98 -20 109 -31 129 -28 30 4 -39 12 -70 24 -70 26 0 2 17 2 38 -1 30 -3 32
-2 12 4 -46 16 -88 41 -94 57 -10 28 -7 80 8 100 11 15 22 17 70 12 34 -3 56
-2 56 4 0 6 -5 7 -12 3 -6 -4 -8 -3 -5 3 4 6 -15 25 -43 43 -28 18 -50 34 -50
37 0 5 54 -27 115 -68z m309 -31 c18 -32 18 -32 -17 7 -20 22 -36 44 -37 49 0
15 34 -20 54 -56z m-17 -13 c4 -4 2 -5 -6 0 -9 5 -12 3 -9 -6 3 -8 11 -13 17
-11 7 1 9 -2 6 -8 -7 -11 -45 15 -45 31 0 9 27 6 37 -6z m-132 -286 c101 -19
157 -23 355 -25 182 -1 247 -5 290 -17 30 -9 66 -19 80 -23 215 -53 390 -157
520 -310 39 -46 102 -112 141 -146 87 -77 109 -117 109 -196 0 -157 -93 -298
-205 -308 -16 -2 -73 6 -125 17 -138 30 -420 97 -455 108 -40 13 -14 13 38 1
23 -5 137 -31 252 -56 248 -54 300 -55 367 -8 61 43 108 136 108 215 0 91 -20
127 -122 220 -49 45 -122 120 -160 167 -78 93 -158 156 -254 203 -73 34 -163
63 -172 55 -3 -3 1 -6 10 -6 30 0 138 -62 159 -91 33 -47 23 -103 -31 -170
-44 -55 -83 -131 -94 -184 -4 -16 11 6 33 51 49 98 102 156 165 177 58 20 59
15 2 -13 -54 -26 -106 -82 -141 -151 -30 -59 -27 -76 4 -25 23 37 150 160 158
153 2 -3 -7 -23 -21 -44 -23 -34 -87 -192 -86 -211 1 -4 15 20 32 53 93 181
158 187 325 31 97 -91 123 -138 123 -222 0 -73 -27 -123 -88 -168 -41 -29 -51
-31 -143 -34 -67 -3 -99 0 -99 7 0 7 21 11 52 11 61 0 61 8 0 11 -30 2 -41 7
-38 16 4 9 -5 13 -29 14 -19 1 -39 3 -45 4 -5 1 -29 4 -52 5 -32 2 -17 6 57
16 l100 13 -80 -5 c-313 -18 -280 -19 -420 16 -154 38 -283 88 -364 140 -62
40 -66 45 -141 160 -26 41 -68 97 -91 125 -45 50 -39 48 52 -24 25 -19 -1 12
-57 70 -128 133 -166 180 -209 263 -55 105 -45 152 30 143 22 -3 94 -15 160
-28z m2000 -335 c-10 -42 -24 -78 -32 -81 -14 -6 -83 42 -83 57 0 5 15 -4 32
-21 18 -16 35 -29 39 -29 6 0 16 32 39 119 19 74 23 36 5 -45z m-665 41 c9
-11 10 -15 1 -15 -7 0 -19 7 -27 15 -13 13 -13 15 -1 15 8 0 20 -7 27 -15z
m30 -35 c0 -5 -5 -10 -11 -10 -5 0 -7 5 -4 10 3 6 8 10 11 10 2 0 4 -4 4 -10z
m-1921 -275 c56 -122 231 -318 367 -414 56 -39 52 -35 -31 40 -103 92 -98 99
17 22 129 -86 293 -171 393 -203 72 -23 224 -30 298 -15 53 12 22 -7 -35 -21
-41 -9 -46 -13 -23 -13 97 -3 369 98 494 183 29 20 58 36 63 36 25 0 -95 -85
-177 -125 -96 -48 -103 -54 -34 -30 74 26 149 68 196 108 42 38 46 39 86 31
l42 -10 -64 -47 c-86 -64 -189 -112 -308 -144 -90 -25 -114 -27 -298 -27 -186
0 -207 2 -299 27 -54 14 -146 50 -205 79 -98 49 -116 63 -238 183 -170 169
-287 345 -339 513 -8 26 63 -105 95 -173z m311 145 c6 -11 8 -20 6 -20 -3 0
-10 9 -16 20 -6 11 -8 20 -6 20 3 0 10 -9 16 -20z m1758 13 c-10 -2 -26 -2
-35 0 -10 3 -2 5 17 5 19 0 27 -2 18 -5z m452 2 c0 -11 -59 -122 -87 -163 -60
-88 -211 -225 -300 -271 -19 -10 -23 -9 -23 3 0 8 21 26 46 41 33 20 43 30 35
38 -30 30 -4 63 71 91 31 11 63 34 89 64 46 51 43 40 -5 -23 -17 -21 -26 -36
-19 -32 20 13 134 169 156 214 18 37 37 56 37 38z m-340 -75 c0 -5 -6 -10 -14
-10 -8 0 -18 5 -21 10 -3 6 3 10 14 10 12 0 21 -4 21 -10z m88 -37 c-10 -2
-28 -2 -40 0 -13 2 -5 4 17 4 22 1 32 -1 23 -4z m142 -13 c-6 -11 -13 -20 -16
-20 -2 0 0 9 6 20 6 11 13 20 16 20 2 0 0 -9 -6 -20z m-290 -175 c0 -47 -36
-152 -65 -190 -12 -16 -42 -41 -66 -54 l-44 -24 32 34 c44 47 84 139 90 210 5
54 8 59 29 59 21 0 24 -5 24 -35z m-2050 -55 c0 -8 13 -43 29 -77 77 -161 205
-301 346 -377 28 -15 39 -19 25 -9 -108 79 -145 111 -189 159 -88 96 -97 122
-15 43 96 -94 186 -156 285 -196 106 -44 179 -56 318 -51 66 2 119 3 117 1 -1
-2 -20 -10 -42 -18 l-39 -15 40 6 c22 3 74 19 115 35 110 44 110 44 50 5 -82
-55 -163 -76 -284 -76 -212 0 -395 77 -571 240 -74 68 -65 51 20 -38 92 -98
230 -176 362 -206 90 -20 280 -21 344 -2 46 14 140 58 170 80 8 6 -1 -4 -20
-23 -87 -82 -239 -122 -393 -104 -191 23 -375 111 -522 252 -88 85 -67 42 30
-60 115 -120 183 -239 138 -239 -26 0 -135 59 -207 111 -87 63 -78 45 11 -22
115 -87 275 -150 377 -148 26 0 24 2 -16 15 -30 9 -59 27 -78 49 -65 74 -28
84 109 30 72 -28 103 -35 161 -35 150 0 372 66 522 155 32 19 55 30 52 25 -11
-18 5 -11 68 31 l62 40 -60 -58 c-34 -32 -89 -73 -124 -90 -79 -41 -63 -43 22
-4 34 16 91 55 127 87 118 104 341 256 356 241 3 -3 -7 -12 -23 -21 -43 -22
-175 -122 -277 -209 -120 -104 -199 -143 -308 -152 -105 -8 -223 -35 -363 -83
-100 -33 -120 -37 -215 -37 -189 1 -327 57 -465 188 l-76 72 -15 105 c-16 108
-15 385 1 424 8 17 9 17 26 -5 10 -13 19 -31 19 -39z m1027 -76 c-3 -3 -12 -4
-19 -1 -8 3 -5 6 6 6 11 1 17 -2 13 -5z m516 -41 c-13 -2 -35 -2 -50 0 -16 2
-5 4 22 4 28 0 40 -2 28 -4z m217 -137 c0 -2 -89 -78 -197 -169 -109 -91 -241
-207 -294 -259 -110 -107 -100 -101 61 37 159 137 166 141 74 45 -44 -47 -101
-115 -127 -151 -53 -76 -146 -155 -267 -228 -47 -28 -78 -51 -69 -51 64 0 250
87 324 152 25 22 48 38 51 35 3 -3 -25 -31 -63 -62 -75 -62 -203 -130 -285
-151 l-53 -14 53 5 c113 12 242 82 347 189 33 33 50 48 38 31 -42 -60 -134
-143 -191 -173 -61 -33 -217 -82 -260 -82 -14 0 -22 -3 -19 -7 15 -14 116 -1
203 28 200 67 342 238 439 530 21 63 40 109 42 102 7 -21 -73 -245 -116 -324
-55 -101 -142 -203 -219 -255 -67 -46 -186 -89 -286 -103 -186 -27 -431 21
-660 129 -109 52 -193 165 -245 331 -39 125 -39 119 5 78 68 -61 132 -100 232
-141 219 -90 290 -108 427 -108 227 0 434 97 660 309 103 96 223 191 310 244
52 32 85 45 85 33z m-510 -350 c0 -8 -121 -91 -174 -120 -27 -15 -90 -42 -140
-59 -85 -29 -100 -31 -231 -31 -107 0 -155 4 -203 18 -34 10 -65 23 -68 28 -6
10 30 3 96 -19 25 -9 88 -17 140 -18 52 -2 82 -2 65 1 -16 2 -46 7 -65 10
l-35 6 32 13 c80 34 429 122 440 111 2 -2 -20 -19 -51 -37 -30 -18 -54 -35
-52 -37 7 -6 128 58 185 98 58 41 61 43 61 36z"/>
<path d="M1379 4878 c-98 -71 -163 -137 -253 -259 -53 -71 -94 -129 -92 -129
3 0 35 39 72 88 89 115 94 119 52 42 -51 -93 -120 -258 -161 -385 -55 -174
-53 -193 6 -40 71 185 116 285 195 430 54 99 80 135 148 203 46 45 82 82 80
82 -2 0 -23 -14 -47 -32z"/>
<path d="M1009 4463 c-13 -16 -12 -17 4 -4 9 7 17 15 17 17 0 8 -8 3 -21 -13z"/>
<path d="M979 4423 c-13 -16 -12 -17 4 -4 9 7 17 15 17 17 0 8 -8 3 -21 -13z"/>
<path d="M710 3937 c0 -4 -14 -55 -31 -114 -32 -109 -80 -341 -78 -378 0 -11
13 41 28 115 16 74 43 189 60 254 17 66 29 122 26 124 -3 3 -5 2 -5 -1z"/>
<path d="M592 3395 c0 -16 2 -22 5 -12 2 9 2 23 0 30 -3 6 -5 -1 -5 -18z"/>
<path d="M721 2774 c0 -11 3 -14 6 -6 3 7 2 16 -1 19 -3 4 -6 -2 -5 -13z"/>
<path d="M1898 4903 c7 -3 16 -2 19 1 4 3 -2 6 -13 5 -11 0 -14 -3 -6 -6z"/>
<path d="M2312 4843 c-35 -8 -61 -17 -59 -20 3 -2 22 0 44 6 21 6 58 11 83 12
34 0 40 2 25 9 -25 11 -18 11 -93 -7z"/>
<path d="M2560 4744 c105 -24 269 -75 389 -120 35 -13 66 -23 68 -21 7 7 -201
85 -307 115 -144 41 -194 52 -227 51 -15 0 19 -12 77 -25z"/>
<path d="M2926 4495 c-30 -38 -56 -106 -55 -139 0 -11 7 2 16 29 8 28 28 70
44 94 36 53 32 65 -5 16z"/>
<path d="M3293 4378 c-28 -30 -73 -106 -73 -125 0 -4 14 15 31 43 17 27 45 64
62 82 17 17 26 32 21 32 -6 0 -24 -15 -41 -32z"/>
<path d="M3046 4365 c-9 -26 -7 -32 5 -12 6 10 9 21 6 23 -2 3 -7 -2 -11 -11z"/>
<path d="M1608 4573 c7 -3 16 -2 19 1 4 3 -2 6 -13 5 -11 0 -14 -3 -6 -6z"/>
<path d="M2068 4403 c6 -2 18 -2 25 0 6 3 1 5 -13 5 -14 0 -19 -2 -12 -5z"/>
<path d="M1390 4205 c0 -10 76 -109 96 -126 12 -10 13 -9 7 7 -6 17 -5 18 13
4 19 -14 19 -14 0 7 -10 13 -22 20 -27 18 -4 -3 -18 9 -30 27 -15 22 -17 28
-6 19 12 -9 17 -10 17 -2 0 7 5 9 10 6 6 -3 10 -11 10 -16 0 -6 -4 -7 -10 -4
-5 3 -10 2 -10 -4 0 -5 5 -13 10 -16 6 -3 10 -1 10 6 0 8 6 6 18 -4 27 -25 35
-9 12 23 -12 16 -28 27 -38 25 -9 -1 -25 7 -35 19 -17 19 -18 19 -13 2 7 -19
6 -19 -14 -1 -11 10 -20 14 -20 10z m115 -61 c9 -15 12 -23 6 -20 -11 7 -35
46 -28 46 3 0 12 -12 22 -26z"/>
<path d="M1518 4013 c29 -42 129 -115 222 -164 40 -22 76 -39 79 -39 3 0 -44
32 -105 71 -60 39 -134 92 -164 118 -49 41 -52 43 -32 14z"/>
<path d="M1928 4253 c6 -2 18 -2 25 0 6 3 1 5 -13 5 -14 0 -19 -2 -12 -5z"/>
<path d="M2930 3628 c-34 -60 -65 -146 -56 -155 3 -4 6 0 6 9 0 8 20 56 45
106 49 102 52 121 5 40z"/>
<path d="M2230 3656 c0 -2 8 -10 18 -17 15 -13 16 -12 3 4 -13 16 -21 21 -21
13z"/>
<path d="M481 3274 c0 -11 3 -14 6 -6 3 7 2 16 -1 19 -3 4 -6 -2 -5 -13z"/>
<path d="M3852 3851 c41 -36 32 -47 -26 -32 -25 6 -57 11 -73 10 -20 0 -15 -4
22 -13 51 -13 129 -49 139 -64 3 -5 -20 -1 -52 10 -31 11 -79 21 -107 24 l-50
4 55 -18 c83 -28 151 -66 193 -108 33 -33 37 -35 37 -16 0 44 -51 137 -102
185 -28 26 -54 47 -59 47 -5 0 5 -13 23 -29z"/>
<path d="M3671 3638 c-2 -41 23 -121 53 -171 l33 -55 -27 -5 c-15 -3 -35 -18
-45 -33 l-18 -28 28 22 c15 12 35 22 44 22 25 -1 57 -31 84 -79 l25 -43 21 48
c12 27 29 56 38 66 15 17 14 18 -16 18 -43 0 -108 66 -149 151 -37 75 -42 59
-8 -23 13 -32 22 -58 20 -58 -9 0 -60 99 -70 139 -7 25 -13 38 -13 29z"/>
<path d="M1097 3626 c-19 -29 -22 -40 -7 -31 6 3 10 0 10 -7 0 -7 7 -2 16 10
10 14 12 27 6 38 -7 13 -11 12 -25 -10z m16 -11 c-3 -9 -8 -14 -10 -11 -3 3
-2 9 2 15 9 16 15 13 8 -4z"/>
<path d="M1470 3165 c0 -5 5 -17 10 -25 5 -8 10 -10 10 -5 0 6 -5 17 -10 25
-5 8 -10 11 -10 5z"/>
<path d="M1515 3073 c29 -50 45 -72 45 -61 0 9 -62 108 -67 108 -3 0 7 -21 22
-47z"/>
<path d="M1888 3473 c7 -3 16 -2 19 1 4 3 -2 6 -13 5 -11 0 -14 -3 -6 -6z"/>
<path d="M1928 3473 c7 -3 16 -2 19 1 4 3 -2 6 -13 5 -11 0 -14 -3 -6 -6z"/>
<path d="M2115 3451 c158 -20 205 -32 288 -68 56 -25 67 -36 47 -48 -5 -3 -19
-20 -31 -38 l-22 -32 34 31 c19 17 44 38 57 46 22 15 21 16 -65 51 -136 54
-188 65 -323 71 l-125 5 140 -18z"/>
<path d="M2442 3259 c-49 -50 -93 -120 -106 -169 -4 -14 7 -1 23 29 36 63 72
113 114 159 50 52 23 37 -31 -19z"/>
<path d="M2432 3038 c-22 -37 -45 -104 -40 -117 2 -5 17 27 35 70 17 44 30 79
28 79 -2 0 -12 -15 -23 -32z"/>
<path d="M2568 2563 c7 -3 16 -2 19 1 4 3 -2 6 -13 5 -11 0 -14 -3 -6 -6z"/>
<path d="M3687 3213 c-28 -104 -30 -129 -12 -176 9 -25 20 -78 25 -118 l7 -74
1 60 c1 33 -5 87 -13 120 -18 77 -18 108 0 179 9 33 14 61 12 63 -2 2 -11 -22
-20 -54z"/>
<path d="M1118 3044 c40 -13 99 -26 130 -29 49 -5 45 -3 -31 14 -49 11 -103
24 -119 30 -17 6 -36 11 -42 10 -6 -1 22 -12 62 -25z"/>
<path d="M1118 3003 c7 -3 16 -2 19 1 4 3 -2 6 -13 5 -11 0 -14 -3 -6 -6z"/>
<path d="M1178 2993 c7 -3 16 -2 19 1 4 3 -2 6 -13 5 -11 0 -14 -3 -6 -6z"/>
<path d="M1243 2983 c9 -2 23 -2 30 0 6 3 -1 5 -18 5 -16 0 -22 -2 -12 -5z"/>
<path d="M1133 2973 c9 -2 23 -2 30 0 6 3 -1 5 -18 5 -16 0 -22 -2 -12 -5z"/>
<path d="M1905 2367 c-30 -52 -59 -133 -75 -211 -16 -76 -38 -90 -128 -84 -65
5 -66 5 -34 -9 19 -8 86 -27 149 -43 123 -32 134 -33 438 -10 91 6 82 7 -90 9
-209 1 -254 9 -285 48 -35 45 -22 170 30 280 34 73 32 82 -5 20z"/>
<path d="M2076 2308 c-23 -57 -49 -149 -42 -155 1 -1 18 46 38 105 20 59 35
108 34 110 -2 1 -15 -26 -30 -60z"/>
<path d="M2218 1963 c12 -2 32 -2 45 0 12 2 2 4 -23 4 -25 0 -35 -2 -22 -4z"/>
<path d="M2328 1933 c7 -3 16 -2 19 1 4 3 -2 6 -13 5 -11 0 -14 -3 -6 -6z"/>
<path d="M636 1883 c3 -55 9 -122 14 -149 6 -34 7 -8 3 81 -6 149 -7 152 -16
161 -3 4 -4 -38 -1 -93z"/>
<path d="M1894 1534 c-18 -14 -18 -15 4 -4 12 6 22 13 22 15 0 8 -5 6 -26 -11z"/>
<path d="M1488 1503 c7 -3 16 -2 19 1 4 3 -2 6 -13 5 -11 0 -14 -3 -6 -6z"/>
<path d="M1218 1323 c6 -2 18 -2 25 0 6 3 1 5 -13 5 -14 0 -19 -2 -12 -5z"/>
<path d="M828 1318 c25 -43 127 -136 170 -154 20 -9 82 -26 136 -38 119 -27
113 -39 -26 -44 -86 -4 -101 -2 -144 19 -26 13 -70 44 -98 69 l-50 45 34 -43
c44 -56 83 -85 156 -115 75 -32 264 -90 270 -84 3 2 -8 8 -23 12 -45 11 -123
47 -123 56 0 12 47 35 90 44 19 4 105 9 190 10 117 1 168 6 208 19 65 21 63
32 -2 15 -61 -15 -220 -7 -266 14 l-35 15 95 1 c52 1 120 8 150 16 66 17 183
75 225 109 29 24 27 24 -25 -4 -30 -16 -91 -41 -135 -56 -73 -25 -93 -28 -230
-28 -126 -1 -163 3 -232 21 -111 31 -163 49 -265 93 l-88 38 18 -30z"/>
<path d="M6777 5028 c-143 -12 -297 -58 -347 -103 -8 -7 -58 -21 -110 -30 -59
-10 -108 -25 -130 -39 -22 -14 -66 -27 -120 -35 -289 -42 -594 -144 -705 -236
-52 -42 -98 -109 -126 -184 -40 -109 -97 -158 -219 -190 -103 -27 -136 -42
-209 -97 -117 -88 -171 -186 -171 -308 1 -60 12 -101 65 -224 34 -81 51 -170
59 -302 8 -139 29 -231 68 -310 27 -54 41 -69 78 -87 99 -50 199 -15 273 96
12 18 18 21 21 10 35 -97 53 -137 83 -176 28 -37 36 -57 40 -102 21 -276 108
-434 368 -672 28 -25 66 -64 87 -87 24 -27 54 -47 88 -59 43 -15 67 -35 144
-118 l92 -100 13 -98 c33 -256 135 -470 283 -594 53 -44 152 -94 243 -123 98
-31 330 -39 465 -16 121 21 233 51 290 79 94 46 195 181 266 352 16 39 36 77
46 85 42 38 98 291 104 472 l4 127 54 71 c77 103 138 225 195 393 85 249 107
413 98 738 -9 386 -50 525 -293 1004 -187 371 -365 631 -483 711 -188 127
-373 172 -614 152z m291 -33 c96 -22 203 -68 290 -124 66 -43 90 -67 159 -158
141 -188 273 -409 393 -659 46 -94 63 -145 79 -225 44 -231 55 -346 55 -599 0
-211 -3 -263 -23 -373 -30 -171 -75 -330 -113 -397 -71 -124 -202 -264 -328
-348 l-65 -44 50 43 c98 83 261 255 306 324 45 68 72 138 104 261 23 93 18 89
-19 -13 -19 -50 -49 -118 -67 -150 -19 -32 -33 -63 -31 -69 1 -6 -32 -46 -74
-90 -42 -43 -70 -70 -61 -59 8 11 29 47 46 80 18 33 24 49 14 35 -139 -191
-256 -310 -414 -422 -111 -80 -268 -159 -361 -183 -131 -34 -300 -9 -416 62
l-33 21 26 6 c18 5 47 -1 88 -18 95 -37 171 -49 264 -42 191 14 373 109 566
295 31 30 57 59 57 64 0 5 -7 4 -15 -3 -24 -20 -18 -5 7 16 14 13 19 14 14 4
-4 -8 11 5 34 30 46 49 135 180 169 247 31 62 25 66 -8 6 -41 -74 -115 -182
-157 -228 l-36 -40 30 40 c30 41 119 181 141 223 23 43 3 21 -33 -37 -36 -60
-173 -241 -181 -241 -2 0 24 39 58 87 64 90 97 142 55 88 -83 -107 -146 -179
-209 -240 -51 -49 -60 -55 -28 -20 85 95 251 320 283 385 9 18 2 9 -116 -144
-51 -65 -144 -172 -207 -237 -93 -94 -129 -124 -180 -148 -59 -28 -81 -31 -81
-13 0 4 28 26 63 49 34 23 76 56 92 73 27 29 24 28 -25 -9 -118 -90 -290 -153
-445 -166 -59 -4 -49 -1 60 20 219 43 357 124 541 317 221 231 348 481 385
755 18 138 7 254 -45 454 -55 212 -79 345 -106 583 -12 99 -25 210 -30 246
-27 187 -140 393 -277 504 l-48 39 51 -54 c64 -68 114 -133 143 -184 l22 -40
-33 40 c-78 94 -196 208 -262 252 -85 57 -219 109 -301 117 l-60 6 73 -20 c66
-18 196 -69 190 -75 -2 -2 -43 7 -93 20 -107 27 -168 34 -295 35 -68 1 -89 4
-75 11 16 8 14 8 -11 5 -18 -3 -45 -8 -60 -11 -62 -13 4 15 72 31 149 34 316
38 442 9z m-558 -55 c-8 -5 -19 -10 -25 -10 -5 0 -3 5 5 10 8 5 20 10 25 10 6
0 3 -5 -5 -10z m396 -51 c78 -23 197 -84 258 -132 57 -44 212 -194 249 -242
17 -22 -20 10 -84 70 -110 106 -247 208 -336 254 -68 34 -63 24 7 -15 79 -44
142 -93 135 -104 -3 -5 3 -13 12 -19 11 -6 13 -11 5 -11 -7 0 -11 -4 -7 -9 3
-5 1 -12 -5 -16 -15 -9 -2 -25 15 -19 21 9 10 -34 -16 -63 -19 -20 -32 -23
-90 -23 l-67 0 -66 68 c-36 38 -87 84 -114 102 -35 25 -21 8 53 -65 99 -98
100 -99 70 -103 -24 -3 -35 3 -60 31 -34 39 -134 121 -167 137 -15 7 -12 3 7
-12 47 -35 156 -141 150 -146 -2 -2 -32 21 -67 53 -85 77 -188 143 -275 177
-81 32 -208 53 -268 45 -79 -11 -9 11 100 32 153 28 151 28 331 30 138 1 172
-2 230 -20z m-456 -86 c120 -34 222 -105 235 -164 18 -83 -98 -167 -347 -250
-200 -67 -318 -62 -388 17 l-30 35 0 -60 c0 -33 -5 -63 -11 -66 -6 -4 -21 3
-35 16 l-24 22 -2 -64 -2 -64 -6 80 c-3 44 -7 67 -8 52 -3 -47 -35 -31 -44 22
-11 66 -16 59 -11 -16 3 -37 0 -84 -6 -103 -10 -33 -11 -32 -6 17 4 37 2 54
-8 60 -8 4 -18 33 -24 63 -8 47 -9 38 -5 -55 5 -115 -3 -139 -14 -44 -8 70
-14 75 -15 13 -1 -27 -3 -40 -6 -29 -18 79 -29 101 -73 150 -75 82 -78 134
-13 206 l35 39 -39 -14 c-44 -15 -143 -64 -143 -70 0 -2 15 -27 34 -55 35 -52
66 -158 66 -225 0 -78 -46 -20 -84 106 -25 84 -49 118 -82 118 -23 0 -70 -48
-99 -102 l-29 -53 -8 -255 c-6 -233 -4 -281 17 -332 4 -10 3 -18 -2 -18 -12 0
-29 58 -37 125 -4 28 -2 145 2 260 9 201 10 213 37 270 57 120 159 192 375
267 154 52 420 110 555 120 76 6 190 -3 245 -19z m810 -291 c193 -52 226 -65
202 -80 -8 -6 -51 2 -109 20 -109 32 -142 36 -68 7 28 -11 39 -17 25 -14 -105
24 -192 36 -295 39 l-120 5 99 -9 c108 -10 203 -27 226 -41 10 -6 -4 -8 -40
-5 -30 3 -83 8 -116 11 -34 3 -72 1 -85 -4 -19 -8 -9 -10 46 -11 100 -1 375
-51 375 -69 0 -3 -27 -25 -60 -49 l-60 -44 -68 11 c-38 6 -139 15 -225 21
-212 13 -366 40 -402 70 -8 7 -28 9 -47 5 -25 -4 -13 5 47 39 44 25 76 46 72
46 -16 0 -189 -91 -245 -129 -75 -50 -94 -58 -57 -26 118 103 287 187 445 221
98 20 363 13 460 -14z m241 -154 c-5 -14 -30 -37 -55 -52 -53 -31 -57 -38 -18
-27 35 9 80 5 98 -10 23 -19 16 -62 -21 -125 -32 -53 -32 -56 -7 -27 l28 32
13 -60 c12 -54 12 -61 -4 -79 -10 -11 -28 -20 -41 -20 -39 0 -129 -39 -206
-88 -40 -26 -93 -56 -118 -67 -45 -19 -85 -46 -45 -30 155 62 196 74 238 75
61 0 85 -12 85 -45 0 -33 16 -51 58 -65 61 -20 72 -79 25 -132 l-29 -33 -262
-3 c-182 -1 -284 -7 -332 -17 -69 -14 -192 -58 -215 -77 -7 -5 -18 -8 -25 -5
-16 6 99 59 190 88 40 12 112 24 177 29 71 4 92 8 60 10 -48 3 -49 3 -15 10
l35 6 -28 8 c-33 10 -187 -7 -311 -34 -49 -11 -91 -18 -93 -16 -5 4 138 96
195 125 42 22 57 36 25 24 -10 -3 -81 -38 -158 -77 l-141 -72 101 99 100 99
-90 -75 c-49 -41 -121 -97 -158 -125 -74 -56 -134 -91 -77 -45 76 61 320 272
459 397 163 146 295 254 450 370 103 77 132 85 112 34z m-855 -40 c5 -6 -198
-18 -204 -13 -2 2 16 7 40 12 45 9 155 10 164 1z m-1426 -48 l0 -40 -41 0 -40
0 38 39 c21 21 39 39 41 40 1 0 2 -17 2 -39z m1925 -10 c79 -16 81 -17 59 -41
-59 -65 -142 -73 -293 -25 -47 14 -86 24 -88 23 -1 -2 36 -18 83 -36 47 -18
83 -35 81 -37 -3 -3 -22 2 -42 10 -47 20 -55 20 -30 -1 l20 -16 -20 7 c-66 24
-276 68 -369 78 -105 12 -108 13 -76 26 17 7 73 17 124 22 114 11 484 5 551
-10z m-1925 -77 c0 -40 -33 -89 -85 -125 -43 -30 -44 -32 -25 -45 38 -27 101
-181 99 -242 0 -23 -4 -20 -23 19 -35 73 -47 92 -53 86 -3 -3 -1 -11 5 -18 18
-23 60 -160 67 -223 8 -75 -5 -64 -22 17 -12 58 -43 151 -49 146 -1 -2 4 -28
12 -58 18 -69 17 -96 -2 -50 l-14 35 5 -34 c3 -19 7 -66 10 -105 l4 -71 -9 60
c-15 95 -19 88 -14 -30 l5 -110 -26 65 c-37 92 -48 96 -20 8 37 -118 48 -198
43 -336 -3 -104 -8 -134 -25 -168 -26 -49 -41 -62 -90 -80 l-38 -13 31 -1 c40
0 118 52 151 102 34 51 50 49 21 -3 -31 -56 -102 -117 -145 -125 -41 -8 -99 1
-119 17 -29 24 -9 215 35 327 25 63 28 185 7 275 -16 70 -25 80 -66 79 -34 -1
-59 -26 -97 -96 -12 -23 -22 -39 -23 -36 -1 8 -55 159 -84 233 -54 140 -28
256 83 367 101 100 237 157 384 159 67 1 67 1 67 -26z m1260 21 c0 -8 -19 -13
-24 -6 -3 5 1 9 9 9 8 0 15 -2 15 -3z m195 -24 c59 -13 208 -61 203 -65 -2 -2
-50 10 -108 26 -58 16 -144 35 -192 41 -49 7 -88 15 -88 18 0 8 119 -5 185
-20z m-400 -5 c-123 -13 -342 -55 -389 -76 -19 -9 -19 -9 4 -4 265 56 433 72
600 56 253 -26 410 -77 410 -135 0 -38 -76 -98 -236 -186 -90 -51 -164 -94
-164 -96 0 -3 9 0 21 6 11 7 23 9 26 7 3 -3 -13 -15 -36 -27 -23 -11 -41 -23
-41 -25 0 -3 13 1 29 10 17 8 38 12 48 9 12 -4 14 -3 5 3 -9 7 -2 14 24 27 20
9 34 19 31 22 -3 3 -15 0 -27 -6 -12 -6 -24 -10 -26 -8 -2 3 12 12 32 21 19
10 33 13 29 7 -3 -5 0 -10 7 -10 8 0 6 -5 -5 -11 -9 -6 -15 -14 -12 -20 4 -5
-2 -6 -11 -2 -12 4 -15 3 -10 -5 5 -8 2 -10 -9 -6 -9 4 -15 2 -13 -4 2 -6 -6
-18 -17 -27 l-20 -17 20 6 c30 9 -13 -23 -105 -78 -61 -37 -92 -48 -164 -61
-110 -19 -206 -19 -250 -1 -32 13 -33 16 -39 85 -5 67 -35 196 -44 188 -2 -2
3 -31 12 -63 18 -69 21 -195 5 -253 -6 -24 -21 -48 -34 -57 -22 -13 -28 -13
-60 0 l-36 15 6 63 c3 35 7 76 9 91 3 17 1 26 -5 22 -6 -3 -10 -20 -10 -36 0
-44 -26 -89 -53 -90 -80 -5 -121 15 -150 73 -34 69 -96 208 -92 208 3 0 18
-24 35 -52 34 -60 41 -58 10 2 -22 44 -25 54 -10 45 6 -4 1 17 -10 47 -34 89
-26 112 56 165 29 19 -53 -15 -127 -53 -138 -69 -228 -230 -253 -452 -9 -79
-7 -387 3 -463 17 -126 106 -252 200 -280 45 -13 57 -33 14 -23 -129 31 -210
145 -240 338 -32 208 -16 436 43 613 59 175 102 224 269 304 133 64 282 118
413 150 124 30 315 57 397 57 57 0 47 -3 -60 -13z m645 -75 c8 -5 11 -10 5
-10 -5 0 -17 5 -25 10 -8 5 -10 10 -5 10 6 0 17 -5 25 -10z m-1380 -266 c12
-19 21 -37 18 -39 -2 -2 -14 14 -26 36 -28 49 -22 52 8 3z m2524 -129 c81
-256 107 -588 71 -915 -25 -223 -90 -406 -209 -584 -136 -204 -391 -388 -667
-480 -261 -88 -476 -85 -639 7 -54 30 -170 138 -170 157 0 21 23 8 69 -39 53
-55 142 -104 228 -126 82 -22 88 -17 13 9 -95 33 -159 68 -210 116 -50 46 -43
44 44 -14 84 -55 157 -82 261 -97 79 -11 107 -10 209 5 65 9 120 15 123 12 4
-3 -155 -43 -237 -60 -14 -2 8 -2 48 0 130 9 264 49 417 124 181 90 306 183
408 305 l42 49 -72 -60 c-40 -34 -101 -75 -135 -93 l-63 -33 60 53 c210 186
321 362 389 619 29 105 60 294 53 312 -3 7 -6 3 -6 -10 -2 -50 -45 -233 -82
-347 -41 -128 -87 -212 -157 -292 -49 -54 -46 -40 4 22 84 105 141 261 185
510 43 238 29 717 -27 960 -11 46 25 -34 50 -110z m-2641 65 c42 -49 92 -142
102 -190 l7 -34 -42 49 c-23 27 -54 66 -68 87 -33 51 -41 41 -9 -13 39 -65
107 -143 161 -183 56 -41 43 -48 -21 -11 -55 33 -55 26 -1 -14 44 -32 37 -43
-10 -15 -18 10 -12 2 16 -23 23 -21 42 -42 42 -45 0 -4 -19 -1 -42 7 l-43 15
25 -19 c14 -11 23 -21 20 -23 -3 -3 -18 -14 -33 -26 l-29 -21 24 -5 c12 -3 34
-7 48 -9 14 -3 1 -5 -28 -6 -53 -1 -98 15 -135 47 -16 15 -17 14 -12 -1 14
-34 123 -96 145 -82 5 3 12 0 16 -6 5 -9 -8 -10 -49 -7 -75 6 -116 39 -159
125 -31 64 -33 73 -33 178 0 60 3 118 8 128 6 16 12 13 43 -25 20 -23 44 -47
53 -52 10 -6 8 0 -6 15 -50 55 -78 160 -51 187 18 18 23 16 61 -28z m2124
-189 c-82 -84 -108 -125 -32 -51 46 46 57 47 29 5 -16 -24 -11 -51 7 -40 5 3
6 0 3 -8 -3 -8 -1 -18 5 -22 7 -4 6 -18 -5 -43 l-15 -37 28 33 c24 28 32 33
56 27 42 -11 44 -26 6 -58 -38 -33 -25 -28 38 15 44 29 53 33 53 20 0 -4 -17
-16 -37 -27 -52 -28 -241 -163 -308 -222 -31 -26 -93 -88 -137 -137 -105 -117
-175 -176 -207 -176 -23 0 -21 5 34 62 33 35 49 53 35 42 -57 -46 -63 -47 -29
-4 76 96 80 112 11 40 l-73 -75 46 65 c48 67 69 100 62 100 -3 0 -17 -19 -32
-42 -35 -53 -113 -136 -140 -150 -11 -6 0 11 25 37 l45 48 -63 -51 c-35 -29
-65 -52 -68 -52 -7 0 14 38 25 45 5 3 24 24 42 48 22 28 3 13 -57 -44 -90 -86
-151 -135 -160 -127 -10 11 863 857 885 858 3 0 -30 -35 -72 -79z m-2284 -113
c-4 -137 -13 -173 -13 -51 0 70 9 173 15 173 1 0 0 -55 -2 -122z m-332 55 c6
-21 14 -82 16 -136 4 -77 2 -106 -11 -135 -26 -59 -46 -151 -53 -240 -5 -72
-8 -80 -19 -63 -45 63 -84 249 -84 396 0 107 56 215 110 215 25 0 31 -6 41
-37z m2532 30 c-7 -2 -21 -2 -30 0 -10 3 -4 5 12 5 17 0 24 -2 18 -5z m-93
-13 l-35 -6 39 -9 40 -8 -38 -34 c-35 -32 -41 -34 -84 -29 -85 12 -285 34
-412 47 -98 10 -119 15 -102 22 16 7 44 6 90 -2 37 -7 117 -16 179 -18 109 -6
122 -4 248 32 28 7 64 13 80 13 29 -1 29 -1 -5 -8z m-613 -60 c199 -16 334
-30 387 -42 47 -10 86 -37 86 -60 0 -21 -284 -300 -355 -347 -87 -59 -184
-103 -299 -135 -102 -30 -133 -32 -164 -10 -17 12 -22 25 -22 62 l0 47 -28
-80 c-15 -45 -42 -104 -60 -133 -28 -42 -42 -54 -75 -63 -39 -11 -189 -7 -272
6 -16 3 2 -6 40 -20 39 -13 62 -24 53 -24 -10 -1 -18 -6 -18 -12 0 -6 8 -8 18
-5 9 2 28 8 42 11 17 5 22 4 15 -3 -5 -6 -48 -23 -95 -38 -47 -14 -98 -34
-115 -42 -16 -9 -36 -15 -42 -14 -7 2 -13 -2 -13 -8 0 -6 -3 -9 -8 -6 -4 2
-18 -2 -32 -10 l-25 -14 30 6 c17 4 41 11 55 17 14 6 39 11 55 13 29 3 29 2
-5 -8 -19 -7 -37 -15 -40 -18 -3 -4 -17 -10 -32 -14 -15 -3 -40 -11 -55 -18
-15 -6 -32 -12 -38 -14 -5 -1 -37 -14 -70 -28 -52 -23 -56 -26 -27 -24 19 1
36 6 38 10 3 4 13 8 22 8 24 -1 -79 -49 -105 -49 -29 -1 -63 28 -63 54 0 33
38 96 95 155 29 30 71 81 94 112 49 68 81 91 122 90 16 0 29 1 29 2 0 2 -22
50 -49 107 -60 129 -77 183 -22 73 22 -45 61 -103 86 -130 l46 -49 -31 44
c-38 55 -60 130 -59 195 l2 51 7 -55 c12 -89 68 -198 114 -222 l21 -11 -21 24
c-25 28 -64 93 -64 105 0 5 12 -9 27 -31 26 -37 28 -38 31 -17 9 64 -44 214
-100 276 -48 56 -45 70 7 25 36 -32 63 -75 97 -154 9 -22 17 -35 17 -29 2 27
-31 112 -63 164 -46 74 -46 99 -1 139 20 17 41 31 47 31 6 0 9 3 5 6 -3 4 -40
-11 -82 -31 -66 -33 -82 -47 -133 -114 -63 -84 -136 -218 -177 -326 -44 -117
-85 -276 -85 -329 0 -103 42 -180 125 -227 56 -32 56 -35 -4 -14 -22 8 -41 12
-41 9 0 -10 107 -54 158 -65 61 -12 61 -32 -1 -22 -102 16 -181 66 -213 137
-52 115 -54 267 -4 417 50 148 177 381 256 469 64 71 230 138 445 179 57 11
113 22 124 24 39 9 287 7 412 -3z m-1462 -375 c9 -44 29 -108 45 -143 16 -34
24 -60 19 -56 -37 22 -88 210 -94 344 l-4 85 9 -75 c5 -41 17 -111 25 -155z
m2329 179 c9 -3 16 -16 16 -29 0 -27 16 -42 50 -47 20 -2 25 -9 25 -33 0 -26
-7 -34 -57 -60 -31 -17 -60 -34 -65 -39 -4 -5 2 -3 15 3 46 24 152 61 152 52
0 -4 -18 -13 -41 -20 -74 -22 -184 -77 -223 -111 -31 -28 -47 -34 -94 -37 -57
-4 -57 -4 -32 14 13 10 36 28 50 41 24 22 23 22 -15 -2 -22 -14 -60 -32 -84
-41 -48 -17 -48 -18 3 45 17 20 14 19 -12 -5 -25 -22 -31 -25 -26 -11 5 14 4
17 -4 12 -19 -12 -14 -1 10 20 13 12 18 13 13 4 -8 -13 -7 -13 8 -1 10 8 15
16 12 19 -3 3 5 17 17 31 l23 26 -25 -20 c-14 -11 -37 -29 -51 -40 -14 -11 11
15 55 59 103 100 186 155 263 176 1 0 8 -3 17 -6z m18 -232 c-29 -15 -49 -32
-45 -36 4 -5 2 -6 -4 -2 -7 4 -13 3 -13 -3 0 -5 26 -11 57 -13 52 -3 59 -6 71
-31 31 -64 -9 -111 -103 -124 -67 -9 -64 -20 3 -12 100 11 73 -2 -50 -26 -40
-8 -56 -13 -36 -12 25 2 35 0 28 -7 -13 -13 -333 -10 -470 4 -58 6 -141 12
-185 13 l-80 2 60 14 c68 16 154 18 305 8 119 -8 99 6 -25 18 l-78 7 44 39
c42 36 47 38 114 39 88 0 304 26 370 45 l50 13 -65 -5 c-36 -2 -72 -7 -80 -9
-13 -4 -13 -3 1 11 18 18 159 95 174 94 6 0 -14 -12 -43 -27z m-942 -215 c-31
-28 -360 -82 -360 -58 0 6 3 11 8 11 50 1 203 24 262 39 96 25 110 26 90 8z
m935 -37 c-3 -5 -21 -9 -38 -9 l-32 2 35 7 c19 4 36 8 38 9 2 0 0 -3 -3 -9z
m42 4 c-3 -3 -12 -4 -19 -1 -8 3 -5 6 6 6 11 1 17 -2 13 -5z m-751 -38 c84
-24 242 -37 442 -36 205 1 236 -5 230 -43 -10 -71 -496 -390 -672 -441 -118
-35 -210 -13 -280 65 -22 24 -36 34 -32 24 5 -11 10 -65 12 -120 l3 -100 -13
80 c-13 82 -44 190 -52 182 -3 -2 0 -15 5 -28 36 -95 31 -263 -8 -303 -29 -28
-115 -32 -261 -11 -67 9 -123 15 -125 13 -3 -3 72 -20 166 -38 l172 -34 121
18 c167 24 307 60 375 96 59 31 196 139 188 147 -3 2 -26 -10 -52 -26 -51 -32
-185 -91 -207 -91 -7 0 29 25 81 55 141 83 255 164 406 289 54 45 56 46 25 12
-19 -21 -78 -72 -130 -114 -133 -105 -142 -117 -40 -49 40 27 36 20 -40 -60
-47 -49 -99 -106 -117 -126 -61 -68 -211 -122 -423 -152 -125 -17 -201 -19
-269 -4 -34 7 -61 7 -87 0 -21 -6 -40 -8 -43 -6 -2 3 11 8 30 12 l34 7 -35 8
c-35 7 -169 -15 -200 -34 -17 -10 -23 -11 98 17 40 10 75 15 77 13 3 -3 -32
-13 -77 -24 -74 -16 -80 -19 -53 -26 17 -4 -3 -5 -45 -3 -108 7 -146 20 -196
70 -48 48 -56 83 -29 122 16 23 83 43 144 43 109 0 211 41 240 97 l18 37 21
-40 c12 -21 21 -34 22 -28 0 20 -40 126 -65 172 -14 24 -18 39 -10 32 24 -20
57 -78 77 -138 l19 -57 -6 50 c-6 54 -41 172 -58 193 -5 7 -8 15 -5 18 9 8 94
-92 127 -149 33 -57 39 -53 16 12 -22 64 -73 130 -123 162 -25 16 -39 29 -30
29 9 0 37 -15 64 -32 53 -37 94 -105 125 -210 l19 -63 -5 55 c-5 50 -29 109
-85 210 -48 85 -6 151 120 191 85 27 23 22 -74 -6 -136 -40 -207 -79 -309
-174 -51 -46 -132 -110 -180 -142 -49 -31 -99 -71 -112 -89 -53 -72 -57 -192
-8 -282 33 -61 72 -93 134 -108 45 -11 64 -10 529 26 134 11 69 -4 -90 -20
-391 -40 -463 -40 -518 -3 -85 56 -133 220 -99 338 19 65 45 93 134 152 38 25
111 81 163 126 67 58 123 96 195 131 113 56 180 75 345 100 145 22 223 24 286
6z m-1561 -96 c9 -81 15 -88 62 -61 l38 21 -30 -25 c-45 -37 -71 -33 -79 13
-6 38 -7 135 -1 117 2 -5 6 -35 10 -65z m629 -72 c-3 -4 -17 -8 -32 -7 -23 0
-24 2 -7 8 25 10 45 10 39 -1z m-594 -86 c14 -42 90 -187 115 -217 10 -12 8
-5 -4 19 -30 53 -21 55 15 3 18 -25 49 -51 77 -65 49 -24 71 -62 48 -85 -8 -8
-1 -22 30 -53 69 -70 39 -69 -39 2 -84 77 -146 154 -196 245 -33 59 -76 169
-76 191 0 21 19 -5 30 -40z m417 -8 c-3 -3 -12 -4 -19 -1 -8 3 -5 6 6 6 11 1
17 -2 13 -5z m-27 -18 c0 -2 -9 -6 -20 -9 -11 -3 -20 -1 -20 4 0 5 9 9 20 9
11 0 20 -2 20 -4z m-137 -83 c-7 -2 -21 -2 -30 0 -10 3 -4 5 12 5 17 0 24 -2
18 -5z m124 -251 c1 -82 19 -144 54 -193 32 -46 16 -46 -30 0 -46 46 -69 112
-71 201 -2 78 -2 78 23 73 20 -4 22 -10 24 -81z m2137 -26 c-124 -204 -372
-428 -557 -503 -230 -94 -453 -104 -728 -34 -129 33 -197 61 -284 116 -69 45
-187 154 -179 166 3 5 18 9 33 9 21 0 45 -17 97 -68 46 -44 96 -81 151 -110
44 -23 84 -42 89 -42 4 0 -33 25 -82 56 -80 50 -200 152 -190 162 3 2 33 -20
68 -50 84 -72 142 -110 226 -152 71 -36 239 -97 263 -95 8 0 -8 8 -36 18 -27
9 -59 23 -70 30 l-20 13 20 -7 c94 -30 146 -37 250 -32 94 4 128 11 234 46 68
22 176 67 240 98 64 32 121 59 126 62 9 3 -70 -61 -126 -102 -54 -40 61 30
135 82 91 64 254 221 276 266 19 39 114 174 119 170 2 -2 -23 -47 -55 -99z
m-129 -451 c-19 -114 -59 -259 -81 -292 -16 -26 -107 -89 -179 -126 -89 -45
-161 -61 -280 -61 -134 -1 -191 12 -315 74 -118 59 -267 115 -342 129 -109 20
-182 72 -318 225 -54 62 -131 139 -169 171 -39 32 -69 61 -66 63 14 14 193
-147 345 -311 29 -32 77 -72 104 -88 67 -38 83 -37 23 1 -51 32 -123 102 -159
153 l-22 32 25 -20 c13 -10 41 -35 61 -54 21 -19 40 -32 44 -28 3 3 38 -18 78
-48 124 -93 297 -171 436 -196 67 -12 82 -11 191 11 127 26 153 22 129 -17
-26 -40 -73 -63 -136 -64 -48 -1 -53 -3 -29 -9 50 -13 146 -11 220 5 70 15
228 86 275 125 14 11 -9 2 -51 -20 -128 -68 -239 -98 -239 -66 0 30 113 153
190 206 53 36 111 90 97 90 -4 0 -30 -17 -58 -39 -138 -105 -366 -181 -538
-181 -147 1 -300 62 -391 156 l-55 57 57 -46 c68 -54 161 -99 242 -116 87 -19
268 -18 346 2 111 29 242 101 323 179 l72 69 -65 -51 c-87 -69 -176 -117 -279
-153 -111 -39 -294 -49 -405 -23 -81 19 -170 64 -223 113 l-38 35 35 -20 c79
-45 177 -91 205 -97 20 -4 12 3 -24 20 -30 14 -52 27 -50 29 2 3 40 -4 84 -15
162 -38 333 -21 488 50 64 29 179 103 232 150 17 14 8 2 -20 -27 -64 -69 -129
-116 -224 -165 -42 -21 -65 -35 -51 -32 39 11 135 61 195 100 78 52 214 199
254 275 19 36 41 73 50 84 15 17 16 13 19 -60 2 -44 -4 -124 -13 -179z m-1759
156 c74 -53 182 -161 265 -263 122 -150 202 -231 283 -286 166 -115 288 -154
471 -154 107 1 157 7 260 37 28 7 73 19 100 26 68 17 145 51 200 89 26 18 48
30 50 28 8 -8 -51 -127 -102 -205 -79 -121 -137 -164 -273 -201 -193 -53 -413
-68 -559 -37 -98 20 -216 68 -281 113 -132 92 -242 289 -284 507 -25 133 -28
157 -18 151 5 -3 12 -30 16 -59 9 -78 53 -243 82 -306 33 -72 96 -165 153
-224 75 -78 216 -148 328 -162 44 -5 41 -3 -33 23 -90 32 -200 89 -252 132
-34 28 -105 117 -123 154 -6 12 0 8 12 -9 42 -57 154 -161 201 -187 57 -32
152 -68 176 -68 9 1 -12 12 -47 25 -116 45 -235 139 -317 249 -17 23 7 4 56
-45 83 -82 157 -131 260 -172 l45 -17 -40 32 c-158 131 -241 221 -282 308 -14
30 -51 89 -81 130 -31 41 -66 91 -80 110 l-24 35 28 -31 c16 -17 76 -83 133
-147 57 -65 106 -117 108 -117 11 0 -195 245 -337 400 -147 161 -155 170 -143
170 5 0 28 -13 49 -29z m572 -523 c81 -53 108 -68 67 -36 -16 12 -48 40 -70
60 l-40 38 85 -31 c47 -17 101 -37 121 -44 19 -7 85 -37 145 -66 l109 -53 -40
-7 c-23 -5 23 -6 110 -4 155 3 144 -9 -15 -17 -208 -11 -412 70 -576 228 -47
45 -52 52 -16 21 29 -25 83 -65 120 -89z"/>
<path d="M7230 4876 c0 -2 8 -10 18 -17 15 -13 16 -12 3 4 -13 16 -21 21 -21
13z"/>
<path d="M7447 4740 c33 -41 71 -95 83 -120 58 -115 136 -360 195 -616 35
-149 38 -133 9 46 -20 119 -63 289 -103 400 -16 46 -29 86 -27 87 1 2 33 -51
70 -117 37 -66 69 -120 72 -120 5 0 -31 67 -107 203 -22 38 -39 71 -39 74 0
12 -95 124 -151 178 l-62 60 60 -75z"/>
<path d="M7756 4277 c3 -10 9 -15 12 -12 3 3 0 11 -7 18 -10 9 -11 8 -5 -6z"/>
<path d="M7961 3770 c0 -8 6 -64 13 -125 8 -60 18 -159 22 -220 3 -60 10 -117
15 -125 8 -16 7 9 -12 215 -10 117 -35 285 -38 255z"/>
<path d="M8013 3215 c0 -33 2 -45 4 -27 2 18 2 45 0 60 -2 15 -4 0 -4 -33z"/>
<path d="M7991 2794 c0 -11 3 -14 6 -6 3 7 2 16 -1 19 -3 4 -6 -2 -5 -13z"/>
<path d="M6425 4873 c11 -3 40 -11 64 -19 24 -7 40 -9 35 -5 -14 13 -75 31
-98 30 -20 -1 -20 -2 -1 -6z"/>
<path d="M7074 4736 c0 -15 6 -23 16 -22 8 1 14 -4 13 -11 -2 -7 6 -17 16 -23
15 -8 19 -7 17 6 -1 9 -9 20 -17 25 -12 7 -12 9 1 9 13 0 13 2 1 9 -8 5 -21 7
-29 3 -10 -3 -13 -1 -8 6 3 6 3 13 -2 16 -4 2 -8 -6 -8 -18z"/>
<path d="M6245 4803 c-73 -4 -288 -40 -375 -63 -87 -23 -74 -22 170 9 80 11
204 23 275 27 81 4 120 10 104 14 -36 10 -115 16 -174 13z"/>
<path d="M5768 4713 c7 -3 16 -2 19 1 4 3 -2 6 -13 5 -11 0 -14 -3 -6 -6z"/>
<path d="M5840 4602 c11 -23 27 -66 35 -95 13 -48 14 -49 14 -17 1 36 -25 100
-53 135 -12 14 -11 8 4 -23z"/>
<path d="M5457 4534 c11 -16 32 -54 47 -84 14 -30 24 -44 20 -30 -9 41 -58
133 -73 138 -10 3 -8 -4 6 -24z"/>
<path d="M7158 4493 c7 -3 16 -2 19 1 4 3 -2 6 -13 5 -11 0 -14 -3 -6 -6z"/>
<path d="M7198 4483 c6 -2 18 -2 25 0 6 3 1 5 -13 5 -14 0 -19 -2 -12 -5z"/>
<path d="M6838 4443 c23 -2 59 -2 80 0 20 2 1 4 -43 4 -44 0 -61 -2 -37 -4z"/>
<path d="M6598 4383 c6 -2 18 -2 25 0 6 3 1 5 -13 5 -14 0 -19 -2 -12 -5z"/>
<path d="M7325 4101 c-3 -6 -11 -9 -16 -6 -5 4 -15 3 -21 -2 -7 -4 -19 -8 -27
-8 -8 0 -17 -7 -19 -15 -5 -13 -3 -13 14 0 19 14 19 14 0 -8 -19 -21 -32 -30
-22 -14 2 4 0 14 -5 22 -8 12 -9 11 -7 -5 2 -14 -2 -20 -15 -18 -10 0 -16 -2
-13 -5 3 -3 0 -12 -6 -21 -10 -13 -10 -14 2 -3 21 18 34 15 19 -5 -11 -15 -11
-16 1 -5 24 21 34 13 14 -10 -27 -31 53 32 90 71 16 17 27 33 24 37 -3 3 -9 0
-13 -5z m-15 -14 c0 -2 -17 -19 -37 -38 l-38 -34 34 38 c33 34 41 42 41 34z"/>
<path d="M7160 3924 c-30 -20 -104 -61 -165 -91 -108 -53 -110 -59 -9 -22 55
21 151 77 205 121 46 38 35 35 -31 -8z"/>
<path d="M7159 3617 c5 -5 28 -7 52 -5 l44 3 -52 5 c-29 3 -48 1 -44 -3z"/>
<path d="M4814 4071 c-48 -34 -88 -81 -114 -132 -30 -57 -25 -62 25 -25 50 39
80 50 203 77 l87 19 -100 -5 c-55 -2 -111 -7 -125 -10 -18 -4 -15 -1 10 12 19
9 67 22 105 29 l70 12 -79 1 -79 1 23 25 c31 33 22 32 -26 -4z"/>
<path d="M4977 3807 c-9 -23 -35 -62 -57 -87 l-40 -45 35 59 c47 80 44 92 -5
24 -49 -69 -124 -122 -161 -114 l-27 5 18 -37 c10 -21 21 -54 25 -75 l7 -37
28 39 c54 74 94 88 135 46 30 -29 33 -18 4 19 -11 14 -30 26 -42 26 -20 0 -20
1 5 28 35 37 72 99 87 145 18 53 10 55 -12 4z"/>
<path d="M5111 3674 c0 -11 3 -14 6 -6 3 7 2 16 -1 19 -3 4 -6 -2 -5 -13z"/>
<path d="M5695 3800 c4 -7 23 -59 42 -114 23 -69 32 -87 28 -58 -6 49 -52 169
-68 179 -6 4 -7 1 -2 -7z"/>
<path d="M6440 3705 c-14 -8 -20 -14 -14 -15 5 0 19 7 30 15 24 18 16 19 -16
0z"/>
<path d="M6511 3696 c-14 -8 -25 -21 -27 -29 -2 -13 2 -14 23 -4 14 6 20 13
14 15 -8 3 -6 9 6 18 23 17 15 17 -16 0z"/>
<path d="M6434 3674 c-18 -14 -18 -15 4 -4 12 6 22 13 22 15 0 8 -5 6 -26 -11z"/>
<path d="M7505 3470 c-9 -16 -14 -30 -13 -31 24 -6 39 -5 45 3 3 7 1 8 -5 4
-7 -4 -12 -3 -12 2 0 17 13 22 28 9 11 -9 11 -4 -2 16 -10 15 -20 27 -22 27
-2 0 -10 -13 -19 -30z"/>
<path d="M7029 3013 c-13 -16 -12 -17 4 -4 9 7 17 15 17 17 0 8 -8 3 -21 -13z"/>
<path d="M4917 3413 c5 -82 3 -96 -22 -158 -20 -50 -28 -91 -31 -149 l-3 -81
9 67 c10 80 25 131 52 176 19 31 19 39 9 129 -7 54 -13 99 -16 101 -2 2 -1
-36 2 -85z"/>
<path d="M6335 3464 c-11 -2 -63 -14 -115 -25 -52 -12 -97 -23 -99 -25 -2 -2
15 -24 38 -49 45 -49 52 -48 20 4 -11 18 -19 35 -17 37 2 2 31 11 63 20 41 12
120 19 250 24 105 3 172 7 150 8 -151 8 -273 10 -290 6z"/>
<path d="M6157 3305 c20 -33 50 -91 65 -130 19 -46 27 -58 23 -35 -10 51 -58
150 -94 190 -31 34 -31 34 6 -25z"/>
<path d="M6133 3100 c2 -8 10 -42 17 -75 7 -33 17 -64 23 -70 6 -6 7 -3 4 10
-3 11 -8 38 -12 60 -3 22 -13 51 -21 65 -9 14 -13 18 -11 10z"/>
<path d="M5590 2440 c-13 -8 -12 -10 3 -10 9 0 17 5 17 10 0 12 -1 12 -20 0z"/>
<path d="M7478 2925 c-3 -3 -63 -10 -134 -15 l-129 -9 125 4 c69 2 139 8 155
13 23 8 25 10 9 11 -11 1 -23 -1 -26 -4z"/>
<path d="M7323 2873 c26 -2 68 -2 95 0 26 2 4 3 -48 3 -52 0 -74 -1 -47 -3z"/>
<path d="M7140 2866 c3 -3 38 -9 78 -14 40 -5 69 -5 65 -1 -9 8 -151 24 -143
15z"/>
<path d="M6386 2330 c3 -19 12 -71 19 -115 l13 -80 0 60 c1 34 -7 83 -18 115
-14 39 -18 45 -14 20z"/>
<path d="M6128 2053 c6 -2 18 -2 25 0 6 3 1 5 -13 5 -14 0 -19 -2 -12 -5z"/>
<path d="M6148 2023 c7 -3 16 -2 19 1 4 3 -2 6 -13 5 -11 0 -14 -3 -6 -6z"/>
<path d="M6188 2013 c6 -2 18 -2 25 0 6 3 1 5 -13 5 -14 0 -19 -2 -12 -5z"/>
<path d="M6148 2003 c7 -3 16 -2 19 1 4 3 -2 6 -13 5 -11 0 -14 -3 -6 -6z"/>
<path d="M6238 2003 c7 -3 16 -2 19 1 4 3 -2 6 -13 5 -11 0 -14 -3 -6 -6z"/>
<path d="M6188 1993 c7 -3 16 -2 19 1 4 3 -2 6 -13 5 -11 0 -14 -3 -6 -6z"/>
<path d="M6148 1983 c7 -3 16 -2 19 1 4 3 -2 6 -13 5 -11 0 -14 -3 -6 -6z"/>
<path d="M6108 1973 c7 -3 16 -2 19 1 4 3 -2 6 -13 5 -11 0 -14 -3 -6 -6z"/>
<path d="M7360 1665 c-14 -8 -20 -14 -14 -15 5 0 19 7 30 15 24 18 16 19 -16
0z"/>
<path d="M7746 1659 c-31 -156 -30 -200 3 -62 20 88 37 203 30 203 -2 0 -17
-63 -33 -141z"/>
<path d="M6460 1276 c0 -2 8 -10 18 -17 15 -13 16 -12 3 4 -13 16 -21 21 -21
13z"/>
<path d="M6590 1230 c65 -61 189 -123 275 -140 33 -6 71 -14 85 -17 l25 -6
-25 -7 c-60 -19 -182 -4 -285 34 -20 8 -20 8 0 -8 33 -27 167 -64 256 -71 46
-3 109 -13 139 -22 54 -15 110 -47 110 -62 0 -8 -37 -20 -125 -41 -34 -8 -31
-8 23 -4 98 9 270 51 316 78 22 13 57 41 76 62 l35 37 -40 -31 c-100 -78 -197
-93 -322 -51 l-68 24 75 6 c134 12 171 19 229 48 49 25 158 118 148 127 -1 2
-43 -8 -92 -22 -146 -40 -252 -55 -382 -55 -184 0 -314 39 -458 138 l-50 34
55 -51z"/>
<path d="M6610 1116 c0 -2 7 -7 16 -10 8 -3 12 -2 9 4 -6 10 -25 14 -25 6z"/>
<path d="M6953 873 c9 -2 23 -2 30 0 6 3 -1 5 -18 5 -16 0 -22 -2 -12 -5z"/>
</g>
</svg>
