<svg id="Calque_1" data-name="Calque 1" xmlns="http://www.w3.org/2000/svg" xmlns:xlink="http://www.w3.org/1999/xlink" viewBox="0 0 861.37 589.97"><defs><style>.cls-1{stroke:#000;stroke-miterlimit:10;}.cls-2{font-size:233.42px;font-family:Impact;}</style></defs><path d="M147.19,45.14a118.39,118.39,0,0,0-26.7,8.7c-6.5,3-9.2,5.2-20,16.2-14.4,14.6-26.7,30.1-41.4,52.1-20.4,30.4-22.4,33.9-28.5,48.8-8.8,21.6-13.9,47.9-14.8,77.2-.5,15.9-.3,18.9,2.1,33,3.9,22.7,10.2,41.2,18.8,54.9.8,1.4.8,3.6,0,8.9-2.6,15.4-.5,47,3.4,53.1.9,1.3,2.7,6.5,4,11.5,4.5,16.6,12.6,30.3,21.6,36.3,5.2,3.5,20.1,9.4,32.4,12.9,10.2,2.9,30.7,4.4,41.4,3.1,13.8-1.8,25-6.9,34.4-15.7,13.3-12.4,20.9-26.9,29.5-55.7.7-2.4,20.3-19.3,22.4-19.3,4.5,0,11.7-3.3,15.7-7.3a90.32,90.32,0,0,1,12.5-9.2c12.1-7.4,25.7-21.6,31.7-33,4.9-9.5,8.1-18.2,9.3-25.5.6-3.5,1.8-5.6,5.6-9.4a43.55,43.55,0,0,0,7.6-10.7c3-6.3,3.8-7,4.8-4,1.2,3.9,6.6,10.1,10.4,12.1,5.3,2.7,13.5,2.7,17.8,0,7.3-4.4,13.2-17.4,17.8-39.3,2.6-12.3,8-25.8,13-32.2,4-5.3,6.8-15.1,6.2-22.1-1.2-15.4-14.3-31.1-31.7-38-3.8-1.5-8.9-4.3-11.1-6.3-4.4-3.7-8.9-11.9-8.9-16.1s-5.6-14.6-10.6-20c-10.2-10.9-31.6-21.7-63.5-31.9-7-2.3-13.4-5-14.4-6.1s-6.1-3.3-11.4-5.1c-5.5-1.8-11-4.4-12.8-6C200.19,49.24,168.19,41.64,147.19,45.14Zm26,2c9.1,1.5,22.7,5.7,29.7,9.1,8.4,4.2,9.6,5.7,1.6,2.1-3.6-1.6-7.6-3.2-9-3.6L193,54l2.5,1.5c2.4,1.5,2.3,1.5-2.5.8-6.6-.9-34.8-.9-40.5,0-3.1.6-4,.5-2.9-.2,2.6-1.5,13.7-3.9,21.4-4.6,9.2-.9,9.5-1.4.9-1.4-21.4.1-39.6,8.6-60.3,28.4-5.6,5.3-6,5.6-3.2,1.9a90.42,90.42,0,0,1,18.2-17.8c8-5.9,8.5-6.4,3.1-3.4-6.5,3.6-17,12.7-22.5,19.4-8.6,10.6-13.1,21.5-19.3,46-6.4,25.3-13.8,48.3-21.7,67-7,16.6-8.7,24.6-8.7,42.2-.1,15.1,1.3,24.3,5.5,36.8,9.6,28.8,32.9,60.4,53.5,72.5a108.73,108.73,0,0,0,16.2,7.1c10.3,3.5,12.3,4.8,4.2,2.8a84.68,84.68,0,0,1-36.7-19.9c-4.8-4.4-6.4-5.4-4.9-3.3a63.55,63.55,0,0,0,8.3,8.4c6.2,5.4,7.1,6.9,4.2,6.9-4,0-11.6-6.8-19.8-17.6-8.6-11.4-21.1-30.8-25.9-40.2-4.3-8.6-3.8-5.9.8,4a281.27,281.27,0,0,0,17.9,31.8c1.8,2.7,2.2,3.7,1,2.5-3.1-3-12.4-17-17.2-25.8a74,74,0,0,0-4.7-7.7c-.2,0,1.8,4.5,4.6,10s4.8,10,4.6,10c-.7,0-9.9-16.6-12.6-22.7-1.3-2.9-2.5-5.1-2.7-4.9-.5.4,2.2,6.7,7.3,17.1,2.5,4.9,3.6,7.9,2.5,6.5-2.6-3.2-8.7-15.5-12.3-24.5-3.2-8.1-3.7-7.5-.8.9,4.4,13,13.8,29.1,24.9,42.8,7.4,9.2,21.9,21.7,29.9,25.7,14.4,7.3,29.8,9.7,42.5,6.7,12.2-2.9,18.1-1.4,8.5,2.2-18.2,6.7-35.7,4.1-54.2-8.2-20.8-13.9-40.3-35.5-51.5-57.1-4.3-8.3-4.6-7.1-.5,2.5l2.4,5.5-2.9-3.4c-2.9-3.3-9.7-15.1-8.7-15.1.2,0-.7-2.8-2.1-6.3a130.6,130.6,0,0,1-4.9-17.2l-2.4-11,.6,7.5c1,13.6,3.1,22.1,7.8,31.5,5,9.9,14.6,23.2,24.6,34l6.5,7-6.4-5.5c-14.5-12.4-26.8-30.8-30.7-46.1-3.7-14.6-5.2-42.5-3.3-61.9,2.1-21.8,6.8-42.6,14.4-65,3.8-11.2,5.9-15.4,12-24.5,23-34.6,50.2-65.7,63-72.2C137,47.74,156.29,44.44,173.19,47.14ZM185,59.64c9.9.7,25.7,4.2,39.3,8.8,9.8,3.3,15.2,5.8,8.7,4a81.38,81.38,0,0,0-13.5-.7c-8.4.1-12.1.6-18.5,2.7-8.4,2.8-21.4,9.7-27.8,14.8-2.1,1.7-4.1,2.9-4.3,2.6-.8-.8,8.1-7.9,14.4-11.4,3.1-1.8,5.3-3.3,4.8-3.3-1.7,0-14.1,7.2-19,11.1-5.1,4.1-6.2,4.5-8.5,3-1.4-.9,4.3-6,14.7-12.9a37.86,37.86,0,0,0,5.2-3.9c0-1-10.3,5.3-16.9,10.3-6.2,4.6-7.8,5.4-11.4,5.3-7.3-.2-9.9-1.2-11.7-4.4-2.2-4.2-2-6,1-6,1.6,0,2.4-.5,2.2-1.4s.3-1.1,1.3-.7,1.3.2,1-.4,0-1,.7-1c.9,0,.9-.3-.2-1-2-1.3-3.9-1.2-2,.1,1.2.8.9.9-1,.4s-2.2-.4-1,.4c1.3,1,1.3,1.1,0,1.1s-1.3.1,0,1c.8.5,1.1,1,.5,1a6.8,6.8,0,0,1-2.5-1c-1.1-.7-1.1-1-.2-1,.7,0,1-.5.7-1s.1-1.3.9-1.6,1.3-1,1-1.5.2-.6,1.1-.3,1.5.2,1.3-.6c-.4-1.6,4.7-4.7,12.6-7.6,7.4-2.8,6.1-3.2-1.5-.5-10.6,3.6-24.9,11.9-38.4,22.3-7,5.3-7.9,5.8-4,2.2a161.46,161.46,0,0,1,27.7-20.2c11.1-6,26-10.4,32.8-9.6C175.89,58.94,180.59,59.34,185,59.64Zm55.5,17.1c45.7,12.6,75.4,29.5,82,46.9a40.75,40.75,0,0,1,2.4,12.5c.1,6.9-2.7,33-4.5,41.9-1.3,6.3-4.7,14.7-5.6,13.8-.3-.4.4-3,1.6-5.8,1.6-3.6,2.5-8.5,3.1-16.4.5-6.3,1.7-16.3,2.6-22.5,2.1-12.9,1.3-19.4-3.3-26.9-3.8-5.9-5.6-7-8.9-5.1-2.8,1.6-3.7,3-8.5,13.2-3.2,6.9-6.3,10.7-7.6,9.4-1.1-1.1,1.3-10.9,4.2-17.1a37.23,37.23,0,0,1,6.1-9,24.59,24.59,0,0,0,3.4-3.9c0-.7-7.8-5.2-12.4-7.1l-3.9-1.7,2.6,3.2a9.85,9.85,0,0,1,2.7,7.2c0,5-2,8.5-7.1,12.1-4.5,3.2-6.5,6-8.5,11.5l-1.3,3.7-.1-3.5c-.2-3.8-.4-3.6-2,2.9-1.9,7.3-2.3,3.8-.5-5.3.8-4.7,1.8-9.4,2.1-10.4.5-1.4.4-1.4-.5-.2a17.83,17.83,0,0,0-1.6,5.2c-.4,2.2-1.5,4.2-2.5,4.8-1.2.6-2.1,2.5-2.3,4.8-.3,2-.3.8-.1-2.8a41.47,41.47,0,0,1,.9-8.5c.3-1.1-.3-.1-1.4,2.2-2.3,5-3.8,5.5-4.3,1.5-.3-2-.6-1.4-1.2,2.5-1,6.2-2.3,7.1-1.8,1.3l.4-4.1-3.6,2.5c-5.6,3.7-10,4.8-18,4.4-10.3-.5-21.8-6.3-32.9-16.5-8.5-7.8-16.3-13.5-23.3-17.1-9-4.6-7-10.8,5.6-17.3,6-3.1,5.6-3.7-.9-1.4-5.8,2-5.1,1.1,1.5-1.9,7.6-3.5,12.6-4.8,21.4-5.6C224.19,73.24,230,73.84,240.49,76.74Zm-80,16.5a121.65,121.65,0,0,1,28.1,10.4c9.1,5.2,14.5,9.4,22.4,17.7,3.9,4,5.9,6.3,4.5,5.2s-5.5-4.6-9.2-7.7c-6.5-5.4-17.1-12.7-18.6-12.7-.3,0,1.1,1.2,3.3,2.7,5.2,3.4,10.4,7.8,8.5,7-4.3-1.7-12.2-3.8-12.6-3.4s.8.8,2.5,1.2c4.5,1,3.8,2.3-1.6,3-7,.9-5.5.9-36.5.1l-28.6-.8-5.7-5.8-5.8-5.8,5.8-.7c3.2-.4,15.3-.6,26.9-.3,19.8.4,20.5.3,12.1-.8a148.57,148.57,0,0,0-17.2-1.3c-4.5-.1-8.5-.6-8.8-1.1-.7-1.1,1.3-1.3,19.5-1.2,12.2,0,12.3,0,5.5-1a184.92,184.92,0,0,0-21.5-.6c-12.9.4-16.6-.6-5-1.3,3.8-.2,4-.3,1.3-.6-1.8-.2-7.4.3-12.4,1.2-6.6,1.1-9.6,1.2-10.3.5-2.1-2.1,1.3-2.9,21.9-5.4C134.09,91.14,154.69,92.14,160.49,93.24Zm-49.4,14.1c10.7,10.2,28.4,29.4,44.9,48.8,7.7,9.1,19.6,22.8,26.5,30.5,12.3,13.8,12.4,13.9,4.7,7.1-4.3-3.9-8.4-7.7-9-8.6s-3.9-4.6-7.1-8.1c-5.1-5.4-5.5-5.7-2.5-1.7,1.9,2.6,5.6,7.4,8.2,10.7l4.8,6.1-7.8-5.9c-7.7-5.8-22.3-15.4-22.3-14.7,0,.2,3.3,2.8,7.3,5.9a142.88,142.88,0,0,1,11.2,9.7c3.8,4.1,3.9,4.2,1,2.7-4.9-2.5-21.2-7.6-30.6-9.7-10.4-2.3-9.9-2.3-9.9-.9,0,.6.7.8,1.6.5,1.4-.5,1.5-.4.5.8s-.8,1.6,1.6,2.1c9.4,1.8,16.6,4.1,22.6,7,8.3,4.1,17,9.6,16.3,10.3-.3.3-2.3-.6-4.4-2-11-7.3-19.2-10.4-35.7-13.3-10.4-1.9-12.1-2.4-8.5-2.6,2.5-.1-2.5-.5-11-.9-20.3-.8-24.9-2.8-26.4-11.3-.6-3.3,3-7.7,6.2-7.7s7.2-3.8,7.2-6.7c0-2.6.1-2.6,6.5-2.1s9.7,2,24.3,10.5c6.1,3.6,5.2,2.2-1.5-2.2-3.2-2.1-8.7-6.2-12.3-9-8.1-6.5-13.1-9.6-19.3-11.9-5.6-2.1-7-5.2-4.3-9.6a12.85,12.85,0,0,0,1.6-5.2v-2.3l2,2.5c2.4,3,2.6,2,.4-2.1a16.28,16.28,0,0,1-1.2-7.2c.4-5.5,3.4-6.7,10.4-4.4L112,114l-3-2.2c-4.9-3.5-7.5-6.8-7.5-9.3,0-1.3.4-2.4,1-2.4S106.89,103.44,111.09,107.34Zm48.5,12.2c14.1,1.3,45.6,8.7,44.5,10.5-.3.4-5.5.5-11.6.3-9.5-.4-18.6.3-34,2.4l-3.5.5,3-1.6c1.7-.8,2.1-1.3,1-1.1-11.7,2.5-11.6,1.6.1-1.3,9.7-2.4,6.1-2.7-5.9-.5-10.8,2-15.6,1-21.1-4.3-4.2-4.1-4.4-5-1.3-5.5S152.69,118.94,159.59,119.54Zm42.2,2.2c7.8,2.6,4.9,2.5-4.8-.2-5.9-1.5-7.4-2.2-4.5-1.9A65.13,65.13,0,0,1,201.79,121.74ZM202,133c2.9.6.1.9-10.1,1-12,.1-26.2,1.6-33.9,3.7-1.6.4-1.7.3-.5-.5s14.3-3.5,22.5-4.4C185.79,132.14,198,132.24,202,133Zm13.5,4c0,.5-.9.7-2,.4s-2-.7-2-.9.9-.4,2-.4S215.49,136.54,215.49,137Zm18.5,4.1c23,6.8,42.2,15.6,60.3,27.9,14.4,9.8,18.3,16.9,21.6,39.3,2.6,17.4.5,37.6-5.9,57.4-4.8,14.8-12.5,24-21.9,26.5-2.3.5-4.9,1.3-6,1.6s-1.7.1-1.4-.8c.2-.7,1.7-1.4,3.3-1.6,6.9-1,14.9-7.3,20.8-16.4,3.6-5.6,8.4-33.9,9.2-54.6.5-14.3-1.2-23.9-6.2-33.7-4.2-8.4-6-10.3-16.2-17.1-10.5-7-14-8.6-6.9-3.2,6.4,4.9,6.9,7.5,2.9,14.9-1.9,3.4-2.9,5.8-2.3,5.4,1.7-1,1.5.2-.6,3.2-3.4,4.9-3.5,5.7-.3,2.2l3.2-3.5-2.9,4.5a99.4,99.4,0,0,0-5,8.6,33.42,33.42,0,0,1-5.3,7.2c-2.8,2.8-4,3.2-8.4,3.2-7.4,0-8.9-2-8.9-11.2,0-5.3-.2-6.4-.8-4.2-.5,1.6-.9,6.4-.9,10.7-.1,8.4-1,9.7-6.2,9.7-7.8,0-8.9-16.6-2.2-33.3,1.3-3.1,2-5.5,1.5-5.2-1.2.7-6.6,16.2-7.5,21.2-.6,3.9-1,4.3-4.2,4.9-5.4,1-13.9-.2-24.3-3.6-8.5-2.7-10.5-3.9-17.8-10.1-4.5-3.9-8-7.4-7.7-7.9s-.2-1.3-1-2-1.2-1.7-.8-2.3,0-.8-1-.4c-1.6.6-3-.6-3.3-3-.1-.7,1.2-.1,3,1.2,3.8,2.9,5.5,3.3,3.5.8-1.3-1.5-1.2-1.5,1-.4,1.9,1,2.1,1.5,1,2.2-.8.5-.9.9-.4.9s.3.5-.5,1.1c-1.3,1-1.3,1,.1.6.9-.3,1.6.1,1.6.8s-.6,1.1-1.4.8c-2.2-.9-1.5.2,2,2.7,2.1,1.6,2.7,1.8,1.7.6-1.4-1.8-2.3-4.6-1.3-4.6a18.14,18.14,0,0,1,3.6,2.2l3.2,2.2-1.9-2.2c-2-2.3-.9-3.1,1.2-1,.7.7,1.2.9,1.2.6,0-.9-19.1-15-19.7-14.5-.3.3,1.4,1.8,3.6,3.3s3.9,2.9,3.7,3.2c-.8.7-8.7-5.9-8.1-6.8.3-.4-2.5-3.1-6.2-5.8-8.2-6.1-12.8-10.8-14.2-14.4-.8-2.1-.6-3.1,1-5.2,3.2-4,10.5-5.1,34.9-5.1l21.5.1,13.8,3.8c7.7,2.1,17.3,5.2,21.5,6.7s7.8,2.7,8,2.5c.7-.7-16.2-6.9-29.3-10.7-7.1-2.1-12.1-3.8-10.9-3.8S226.39,138.94,234,141.14Zm96.4,3,3.3,4.1-2.9-.5c-1.5-.2-3.2-.5-3.6-.5-.6-.1-.8-7.1-.2-7.1C327.09,140.14,328.59,141.94,330.39,144.14Zm-288.5,12.2c-4.1,12-9.1,32.4-11.5,46.8-1.8,11.1-2.2,17.4-2.2,35.5,0,30.7,2.6,44.6,11.5,60.5,1.6,3,2.6,5,2,4.5-2.1-2-8.2-13-10.2-18.2-3-7.9-6.1-27.9-6.9-44.3l-.8-14.5-.1,14.4c-.4,37.4,9.8,66.6,31.7,90.4,7.1,7.6,6.8,7.8-1.9,1.1a67,67,0,0,1-16.1-17.2c-1.6-2.5-2.9-4.1-2.9-3.6s2.3,4.8,5.2,9.4c6.9,11.3,22.9,27.3,36.4,36.2a138.19,138.19,0,0,0,37.5,16.7c10.4,2.9,11,2.5,1.4-.8s-18.7-7.2-18.2-7.7c.2-.2,3,.5,6.1,1.6,20.7,7.1,40,6.4,56.7-2,6.7-3.5,8.2-3.8,4.8-1.1-5.8,4.5-17.7,9-27.4,10.4-2.2.3-1.8.4,1.5.6,9.3.3,20.9-4.1,28.1-10.6,2.7-2.4,4.3-3.3,5-2.6,1.3,1.3-6.8,8.6-13.1,11.8-22.2,11.2-52.9,5.8-84.5-15-32.5-21.4-50.1-49.1-55.6-87.5-3.2-22.3,1.9-64.8,10.8-90.4,4.8-13.9,13.1-31.6,14.8-31.6C44.19,149.14,43.29,152.44,41.89,156.34Zm299.2-3.6c14.6,4.7,26.2,14.3,32.2,26.4,2.2,4.6,2.7,6.8,2.6,13.5,0,8.7.3,7.9-10.6,28.4l-5.6,10.3-1.2-3.8a41.21,41.21,0,0,0-3.6-7.7c-2.1-3.1-3-3.7-6-3.7-3.2,0-3.7.4-5.5,4.5a83.56,83.56,0,0,0-3.9,13.4c-1.9,8.5-1.9,9.3-.4,15.8,1.8,7.2,2.3,23.3,1.1,29.5-.6,2.8-1.4,3.9-3.7,4.6a10.71,10.71,0,0,1-4.7.7c-1-.2-3-.6-4.5-1-4-.8-9.5-6.1-12.4-11.6-2.7-5.4-3.4-10.4-.7-5.4s7.2,10.3,10.7,12.4c4.8,3,5.2,2.6,1.2-.9a23.88,23.88,0,0,1-5.2-7.6c-1.5-3.9-1.6-5.7-.5-15.7,1.4-13.9,3.1-20.5,8.2-31.6,3.9-8.7,2.8-8.6-1.7.2-1.4,2.7-2.7,4.7-2.9,4.5-.5-.5,3-17.5,4.5-21.2.6-1.6.9-3.1.6-3.3-.3-.4-1.2,1.6-4.5,11.2-2.1,6.1-.1-3.5,2.3-10.8,1.2-3.7,2.1-6.7,1.9-6.7a26.18,26.18,0,0,0-2.3,3.7c-2.7,5-1.7.7,1.7-6.7,1.3-3,2-5.1,1.4-4.5-1.4,1.5-7,12.9-9.1,18.7-1.9,5.1-1.9,5.1-1.4,1.3a63.72,63.72,0,0,1,7.9-20.8c4.1-6.8,1.7-5.6-2.6,1.3-2.3,3.7-2.9,4.1-2.9,2.2,0-5.2,7.5-18.3,12.2-21.2l2.9-1.7-3.7-2.8c-4.1-3.1-7.3-9.4-7.4-14.3v-3.2l4.3.6A98,98,0,0,1,341.09,152.74Zm-235.3,49.2c16.9,21.1,38,48.4,51.1,66.2.6.8-.4.4-2.1-.8s-6-5.8-9.4-10c-7-8.7-9.7-11.6-8.4-9.2.5.8,2,3.3,3.5,5.5,4.7,7,4.3,7.1-2.1.5s-6.7-6.5-2,0l2.5,3.5-3.5-3.3c-1.9-1.8-3.8-3-4.1-2.6-.7.6-7.5-8.2-10.1-13.1-.9-1.7-1.6-2.6-1.6-2s1.7,4.4,3.9,8.5l4,7.5-4.1-4.5-4.1-4.5,3.6,5c2,2.7,4.6,6.2,5.7,7.7,2,2.7,2,2.8.1,2.8-2.6,0-11.7-9.8-18.1-19.5-8-12.1-18.2-23.5-31.3-35.2-6.5-5.8-11.6-10.8-11.3-11.1s2,.8,3.8,2.4c5,4.6,7.5,6.2,4.3,2.7-3.3-3.7-2.8-5.3,1.8-5.3,2.6,0,3.5.6,4.5,2.6,1.5,3.4,2.5,2.5,1.1-1-.8-2.3-.6-3.3,1.1-5.8s2-3.4,1-5.6c-.9-2,0-1.4,3.6,2.4,2.6,2.8,4.3,4.3,3.7,3.5s-3.2-4.7-5.9-8.5C78.29,168.24,84.09,174.74,105.79,201.94Zm185.1-20.3c-2.1,2.4-4,4.2-4.3,4-.4-.5,6.8-8.5,7.7-8.5A51.16,51.16,0,0,1,290.89,181.64Zm-97.4-1c.7.8.8,1.5.2,1.5a4.29,4.29,0,0,1-2.2-1.5c-.7-.8-.8-1.5-.2-1.5A4.29,4.29,0,0,1,193.49,180.64Zm-57.3,1.1a2,2,0,0,1-1.9.1c-.8-.3-.5-.6.6-.6S136.59,181.44,136.19,181.74Zm-20.6,8.4c9.6,4.2,13.8,4.9,29.9,5,8.3,0,15.1.5,16,1.1s-7.2.9-26.8.6l-28.4-.5-2.9-2.8c-4.4-4.2-3.9-5.8,1.9-5.1l4.7.5-5.5-1.8a37.59,37.59,0,0,0-7.7-1.9c-1.3-.1-2.3-.5-2.3-1C94.49,182.94,107.39,186.64,115.59,190.14Zm190.9-1c1.6,3-.2,7.9-5.3,14.3-4.1,5.2-3.1,5,3-.7,2.9-2.6,3.3-2.7,3.9-1.2.4,1,.4,5.5.1,9.9-1.5,18.6-14.2,33.2-25.9,29.8l-3.3-.9,3.4-.1c4-.1,11-3.3,13.5-6,1.7-1.8,1.5-1.8-2.3.1-5.6,2.7-10.9,3.3-15.1,1.5l-3.5-1.4,5.5.5,5.5.4-2.9-3.1c-1.6-1.7-2.8-3.3-2.5-3.5a36.77,36.77,0,0,1,3.7-2c4.3-2.2,4.1-2.9-.4-1-2,.8-4.6,1.4-5.8,1.2-1.7-.3-1.4-.7,2.1-2.6,4.4-2.3,7.3-5.2,3.7-3.7a23.24,23.24,0,0,1-4.4,1.2c-1.6.3-1.1-.2,1.6-1.5,5.1-2.5,6.8-4.7,2-2.7-6.4,2.7-7.2,1.5-1.3-1.7,3.3-1.8,8.7-6.2,12.6-10.4,10.1-10.5,10.9-13.4,1.1-3.5-4.6,4.6-8.6,7.8-8.8,7.2-1-3.1,14.2-22.1,17.7-22.1C305,187.14,305.89,188,306.49,189.14ZM158,200.74c22.9,1.3,42.7,4.2,53,7.7,22.7,7.8,38.6,15.6,44.4,21.9,6,6.3,14.6,26.5,19.7,45.8,3.4,13.1,3.9,29.2,1.1,38.1-4.1,13.4-12.8,20.6-26.2,21.7-4.5.3-6.5.1-6.5-.7,0-.6,1.4-1.1,3.1-1.1,3.6,0,14.7-2.7,16.9-4.2,1.1-.7.7-.8-1.4-.3-7.4,1.6-8.9,1.5-3.9-.3,9.4-3.4,14-7.9,17-16.7,3.9-11.7-3.2-46.5-14.3-69.3-4.8-9.9-9.3-15.1-16.5-19.1l-4.4-2.5,3.3,3.3c4.6,4.7,4.4,8.6-.8,14.6-4,4.7-6.2,8.1-8.1,13.2-1.2,3.4-.5,2.5,4.5-4.9,3.7-5.6,9.3-10.8,11.7-10.8.6,0-1.1,2.4-3.8,5.3-5.4,5.7-8.4,10.9-11.4,19.6-2.9,8.3-2.4,9.2,2.3,4.1l4.1-4.5-2.8,4c-1.5,2.2-4,5.3-5.4,6.9l-2.6,2.9,3.3-2.3c4.9-3.3,9.9-10.6,12.1-17.5,1.1-3.3,2-5.3,2-4.4.2,4.6-4.1,14.9-8.1,19.5s-4,4.7-1.1,2.6c4.3-3,11.1-10.8,13.5-15.5,1.1-2.2,2.2-3.7,2.5-3.4s-2.7,5.4-6.6,11.4c-7,10.8-7,10.8-4.4,11.1,4.3.6,6.9,2.9,10.3,9.5a101.65,101.65,0,0,0,7,11.2c4.9,6.6,9,14.5,9,17.2,0,4.6-.9,5.3-7.2,5.3-5.4,0-5.9-.2-5.3-1.9.4-1.4-.1-2-2.2-2.6-2.6-.7-2.6-.8-.8-1.5s1.6-.9-1-1a37.73,37.73,0,0,0-4.6-.1,2.16,2.16,0,0,1-2.2-1.4c-.4-.8-.2-1.5.3-1.5a.92.92,0,0,1,1,.9c0,.4,1.1.6,2.5.3,5.1-.9.9-2.3-7-2.3-3.4,0-4.5-.3-3.5-.9a7.49,7.49,0,0,1,3.3-1c1,0,1.5-.5,1.2-1s-2.2-1-4.1-1-3.4-.5-3.4-1.1.7-.8,1.6-.5,1.3.2.9-.3.1-1.2.7-1.5-.2-.4-1.9-.2-3.6,0-3.9-.6a1.72,1.72,0,0,0-2-.4,1.61,1.61,0,0,1-1.9-.4c-.3-.4.6-.7,1.9-.6a7.33,7.33,0,0,0,3.8-.5c1.3-.9.1-1.1-6.1-1.3-1.3-.1-2.6-.7-2.9-1.5-.3-1,0-1.2,1.2-.8.9.4,1.6.2,1.6-.3s-1.5-1.1-3.2-1.1c-6.7-.3-7.6-.4-8.4-1.2-.4-.4,1.5-.7,4.2-.8,4.5-.1,4.6-.1,1.9-1a11.91,11.91,0,0,0-5.2-.4c-1.3.2-2.5,0-2.8-.4s2.8-1.1,6.8-1.4c12.5-1,13.5-2.4,1.6-2.4-14.2,0-21.1-2-24.3-7.1-2.7-4.2-5.4-12-6.6-19l-.8-4.7-.1,4a93.29,93.29,0,0,0,.9,10.4c.6,3.5.9,6.5.7,6.8-1.4,1.4-32.7-8.7-34.8-11.3-1.6-1.9-.9-1.8,8.8,1.6,10.3,3.7,12,3.4,2.6-.4-14.8-5.8-15.1-6.1-35.1-32.1-10.1-13.2-19.1-25.4-20-27.2C112.89,199.64,119.89,198.44,158,200.74Zm-74.4,11.5c6.4,4.1,18,16.8,17.4,19a2.83,2.83,0,0,0,1,2.9c2.1,1.7,1.9,3-.5,2.5s-2.5-.6.5,3.5a16.64,16.64,0,0,1,2.5,4.2c0,1.4-7.8-3-12.3-6.9-2.5-2.1-1.9-1.3,1.6,2.2,6.2,6.2,6.4,6-3.4,3.4a9.63,9.63,0,0,1-5.3-3.4,29.33,29.33,0,0,0-5.9-5.6c-2.3-1.7-4.2-3.6-4.2-4.2s-2.2-2.7-5-4.5c-7.3-4.9-8.2-10.2-1.8-10.2,2.9,0,3.6-.5,4.8-3.4C74.79,207.54,76.49,207.64,83.59,212.24Zm229.5,6.6c-2,21.6-11.1,50.9-17.7,56.8-1.5,1.4-1.1.4,1.4-3.5,6.4-10.2,13.3-34.6,15.3-54.3.4-3.7.9-6.7,1.2-6.7S313.49,214.64,313.09,218.84Zm40.4,2.5a40,40,0,0,1,3.6,8.7c1.5,5.1,1.5,6-.6,16.4-2.7,13.6-7.2,26.3-10.8,30.6l-2.8,3.3V268c0-8.2-.6-14.5-1.6-18.4-1.4-5.3-1.5-7-.3-13.6a72.14,72.14,0,0,1,3.5-12.7C347.29,216.94,350.39,216.24,353.49,221.34Zm-279.5,8c.6.5-2.5-.7-6.7-2.8s-7.8-4.2-7.8-4.7C59.49,220.94,72.19,227.44,74,229.34Zm2,4.9c3.7,2.5,8.4,6.9,7.3,6.9-.2,0-2.8-.7-5.7-1.6-7.4-2.2-8.6-1.2-1.5,1.3a213.53,213.53,0,0,0,29.9,7.8c7.8,1.5,9.5,2.2,12.8,5.3,2,2,3.7,3.9,3.7,4.3,0,.7-18.2,0-18.9-.7-.2-.2,3.3-.4,7.9-.4,12.3,0,9.4-.7-5.5-1.3-7.1-.2-11-.1-8.7.2s4.7,1.3,5.1,1.9c.8,1.4,13.4,3,23.1,3,6.3.1,17.8,3,21,5.3,1.2.9,1.2,1-.4.5-1-.3-10.4-1.1-20.9-1.6-22.3-1.2-43-4-55.1-7.5-4.8-1.4-8.9-2.5-9.3-2.5s-.4-.2-.1-.5,4.7.6,9.8,2c10.9,3.1,12.9,2.8,3-.4-3.9-1.2-7-2.4-7-2.6s1.7-.2,3.8.1c3,.3,3.2.2,1.2-.4-4.6-1.6-8.8-4.1-9.4-5.7-1-2.8-.7-8,.8-10,1.1-1.5,2.2-1.7,7-1.2,3.4.3,5.6.2,5.6-.4s-.5-.7-1.2-.3-.8.3-.5-.3-1.5-2.5-4.3-4.3-5-3.4-5-3.7C64.49,226.94,69.89,230.14,76,234.24Zm30.9,3.1c1.8,3.2,1.8,3.2-1.7-.7a23.28,23.28,0,0,1-3.7-4.9C101.49,230.24,104.89,233.74,106.89,237.34Zm-1.7,1.3c.4.4.2.5-.6,0s-1.2-.3-.9.6a1.54,1.54,0,0,0,1.7,1.1c.7-.1.9.2.6.8-.7,1.1-4.5-1.5-4.5-3.1C101.49,237.14,104.19,237.44,105.19,238.64ZM92,267.24c10.1,1.9,15.7,2.3,35.5,2.5,18.2.1,24.7.5,29,1.7,3,.9,6.6,1.9,8,2.3,21.5,5.3,39,15.7,52,31a164.72,164.72,0,0,0,14.1,14.6c8.7,7.7,10.9,11.7,10.9,19.6,0,15.7-9.3,29.8-20.5,30.8-1.6.2-7.3-.6-12.5-1.7-13.8-3-42-9.7-45.5-10.8-4-1.3-1.4-1.3,3.8-.1,2.3.5,13.7,3.1,25.2,5.6,24.8,5.4,30,5.5,36.7.8,6.1-4.3,10.8-13.6,10.8-21.5,0-9.1-2-12.7-12.2-22a191.27,191.27,0,0,1-16-16.7c-7.8-9.3-15.8-15.6-25.4-20.3-7.3-3.4-16.3-6.3-17.2-5.5-.3.3.1.6,1,.6,3,0,13.8,6.2,15.9,9.1,3.3,4.7,2.3,10.3-3.1,17-4.4,5.5-8.3,13.1-9.4,18.4-.4,1.6,1.1-.6,3.3-5.1,4.9-9.8,10.2-15.6,16.5-17.7,5.8-2,5.9-1.5.2,1.3-5.4,2.6-10.6,8.2-14.1,15.1-3,5.9-2.7,7.6.4,2.5,2.3-3.7,15-16,15.8-15.3.2.3-.7,2.3-2.1,4.4-2.3,3.4-8.7,19.2-8.6,21.1.1.4,1.5-2,3.2-5.3,9.3-18.1,15.8-18.7,32.5-3.1,9.7,9.1,12.3,13.8,12.3,22.2,0,7.3-2.7,12.3-8.8,16.8-4.1,2.9-5.1,3.1-14.3,3.4-6.7.3-9.9,0-9.9-.7s2.1-1.1,5.2-1.1c6.1,0,6.1-.8,0-1.1-3-.2-4.1-.7-3.8-1.6s-.5-1.3-2.9-1.4c-1.9-.1-3.9-.3-4.5-.4a49.34,49.34,0,0,0-5.2-.5c-3.2-.2-1.7-.6,5.7-1.6l10-1.3-8,.5c-31.3,1.8-28,1.9-42-1.6-15.4-3.8-28.3-8.8-36.4-14-6.2-4-6.6-4.5-14.1-16a152,152,0,0,0-9.1-12.5c-4.5-5-3.9-4.8,5.2,2.4,2.5,1.9-.1-1.2-5.7-7-12.8-13.3-16.6-18-20.9-26.3-5.5-10.5-4.5-15.2,3-14.3C78.19,264.74,85.39,265.94,92,267.24Zm200,33.5c-1,4.2-2.4,7.8-3.2,8.1-1.4.6-8.3-4.2-8.3-5.7,0-.5,1.5.4,3.2,2.1s3.5,2.9,3.9,2.9c.6,0,1.6-3.2,3.9-11.9C293.39,288.84,293.79,292.64,292,300.74Zm-66.5-4.1c.9,1.1,1,1.5.1,1.5a5,5,0,0,1-2.7-1.5c-1.3-1.3-1.3-1.5-.1-1.5A4.37,4.37,0,0,1,225.49,296.64Zm3,3.5a1.1,1.1,0,0,1-1.1,1c-.5,0-.7-.5-.4-1s.8-1,1.1-1S228.49,299.54,228.49,300.14Zm-192.1,27.5c5.6,12.2,23.1,31.8,36.7,41.4,5.6,3.9,5.2,3.5-3.1-4-10.3-9.2-9.8-9.9,1.7-2.2,12.9,8.6,29.3,17.1,39.3,20.3,7.2,2.3,22.4,3,29.8,1.5,5.3-1.2,2.2.7-3.5,2.1-4.1.9-4.6,1.3-2.3,1.3,9.7.3,36.9-9.8,49.4-18.3,2.9-2,5.8-3.6,6.3-3.6,2.5,0-9.5,8.5-17.7,12.5-9.6,4.8-10.3,5.4-3.4,3a66.27,66.27,0,0,0,19.6-10.8c4.2-3.8,4.6-3.9,8.6-3.1l4.2,1-6.4,4.7a90.38,90.38,0,0,1-30.8,14.4c-9,2.5-11.4,2.7-29.8,2.7-18.6,0-20.7-.2-29.9-2.7a132,132,0,0,1-20.5-7.9c-9.8-4.9-11.6-6.3-23.8-18.3-17-16.9-28.7-34.5-33.9-51.3C26.09,307.74,33.19,320.84,36.39,327.64Zm31.1-14.5c.6,1.1.8,2,.6,2s-1-.9-1.6-2-.8-2-.6-2S66.89,312,67.49,313.14Zm175.8-1.3a10.28,10.28,0,0,1-3.5,0c-1-.3-.2-.5,1.7-.5S244.19,311.54,243.29,311.84Zm45.2-.2c0,1.1-5.9,12.2-8.7,16.3-6,8.8-21.1,22.5-30,27.1-1.9,1-2.3.9-2.3-.3,0-.8,2.1-2.6,4.6-4.1,3.3-2,4.3-3,3.5-3.8-3-3-.4-6.3,7.1-9.1a22.13,22.13,0,0,0,8.9-6.4c4.6-5.1,4.3-4-.5,2.3-1.7,2.1-2.6,3.6-1.9,3.2,2-1.3,13.4-16.9,15.6-21.4C286.59,311.74,288.49,309.84,288.49,311.64Zm-34,7.5c0,.5-.6,1-1.4,1a2.82,2.82,0,0,1-2.1-1c-.3-.6.3-1,1.4-1S254.49,318.54,254.49,319.14Zm8.8,3.7a13.39,13.39,0,0,1-4,0c-1.3-.2-.5-.4,1.7-.4S264.19,322.54,263.29,322.84Zm14.2,1.3c-.6,1.1-1.3,2-1.6,2s0-.9.6-2,1.3-2,1.6-2S278.09,323,277.49,324.14Zm-29,17.5c0,4.7-3.6,15.2-6.5,19a24.52,24.52,0,0,1-6.6,5.4l-4.4,2.4,3.2-3.4c4.4-4.7,8.4-13.9,9-21,.5-5.4.8-5.9,2.9-5.9S248.49,338.64,248.49,341.64Zm-205,5.5c0,.8,1.3,4.3,2.9,7.7,7.7,16.1,20.5,30.1,34.6,37.7,2.8,1.5,3.9,1.9,2.5.9-10.8-7.9-14.5-11.1-18.9-15.9-8.8-9.6-9.7-12.2-1.5-4.3,9.6,9.4,18.6,15.6,28.5,19.6,10.6,4.4,17.9,5.6,31.8,5.1,6.6-.2,11.9-.3,11.7-.1a22.12,22.12,0,0,1-4.2,1.8l-3.9,1.5,4-.6a68.58,68.58,0,0,0,11.5-3.5c11-4.4,11-4.4,5-.5-8.2,5.5-16.3,7.6-28.4,7.6-21.2,0-39.5-7.7-57.1-24-7.4-6.8-6.5-5.1,2,3.8a74.78,74.78,0,0,0,36.2,20.6c9,2,28,2.1,34.4.2,4.6-1.4,14-5.8,17-8,.8-.6-.1.4-2,2.3-8.7,8.2-23.9,12.2-39.3,10.4a91.65,91.65,0,0,1-52.2-25.2c-8.8-8.5-6.7-4.2,3,6,11.5,12,18.3,23.9,13.8,23.9-2.6,0-13.5-5.9-20.7-11.1-8.7-6.3-7.8-4.5,1.1,2.2,11.5,8.7,27.5,15,37.7,14.8,2.6,0,2.4-.2-1.6-1.5a17.09,17.09,0,0,1-7.8-4.9c-6.5-7.4-2.8-8.4,10.9-3,7.2,2.8,10.3,3.5,16.1,3.5,15,0,37.2-6.6,52.2-15.5,3.2-1.9,5.5-3,5.2-2.5-1.1,1.8.5,1.1,6.8-3.1l6.2-4-6,5.8a61.63,61.63,0,0,1-12.4,9c-7.9,4.1-6.3,4.3,2.2.4a65.5,65.5,0,0,0,12.7-8.7c11.8-10.4,34.1-25.6,35.6-24.1.3.3-.7,1.2-2.3,2.1-4.3,2.2-17.5,12.2-27.7,20.9-12,10.4-19.9,14.3-30.8,15.2-10.5.8-22.3,3.5-36.3,8.3-10,3.3-12,3.7-21.5,3.7-18.9-.1-32.7-5.7-46.5-18.8l-7.6-7.2-1.5-10.5c-1.6-10.8-1.5-38.5.1-42.4.8-1.7.9-1.7,2.6.5A9.14,9.14,0,0,1,43.49,347.14Zm102.7,7.6a2,2,0,0,1-1.9.1c-.8-.3-.5-.6.6-.6S146.59,354.44,146.19,354.74Zm51.6,4.1a20.89,20.89,0,0,1-5,0c-1.6-.2-.5-.4,2.2-.4S199,358.64,197.79,358.84Zm21.7,13.7c0,.2-8.9,7.8-19.7,16.9s-24.1,20.7-29.4,25.9c-11,10.7-10,10.1,6.1-3.7,15.9-13.7,16.6-14.1,7.4-4.5a192.83,192.83,0,0,0-12.7,15.1c-5.3,7.6-14.6,15.5-26.7,22.8-4.7,2.8-7.8,5.1-6.9,5.1,6.4,0,25-8.7,32.4-15.2,2.5-2.2,4.8-3.8,5.1-3.5s-2.5,3.1-6.3,6.2c-7.5,6.2-20.3,13-28.5,15.1l-5.3,1.4,5.3-.5c11.3-1.2,24.2-8.2,34.7-18.9,3.3-3.3,5-4.8,3.8-3.1-4.2,6-13.4,14.3-19.1,17.3-6.1,3.3-21.7,8.2-26,8.2-1.4,0-2.2.3-1.9.7,1.5,1.4,11.6.1,20.3-2.8,20-6.7,34.2-23.8,43.9-53,2.1-6.3,4-10.9,4.2-10.2.7,2.1-7.3,24.5-11.6,32.4-5.5,10.1-14.2,20.3-21.9,25.5-6.7,4.6-18.6,8.9-28.6,10.3-18.6,2.7-43.1-2.1-66-12.9-10.9-5.2-19.3-16.5-24.5-33.1-3.9-12.5-3.9-11.9.5-7.8,6.8,6.1,13.2,10,23.2,14.1,21.9,9,29,10.8,42.7,10.8,22.7,0,43.4-9.7,66-30.9,10.3-9.6,22.3-19.1,31-24.4C216.19,372.64,219.49,371.34,219.49,372.54Zm-51,35c0,.8-12.1,9.1-17.4,12a107.39,107.39,0,0,1-14,5.9c-8.5,2.9-10,3.1-23.1,3.1-10.7,0-15.5-.4-20.3-1.8-3.4-1-6.5-2.3-6.8-2.8-.6-1,3-.3,9.6,1.9,2.5.9,8.8,1.7,14,1.8s8.2.2,6.5-.1-4.6-.7-6.5-1l-3.5-.6,3.2-1.3c8-3.4,42.9-12.2,44-11.1.2.2-2,1.9-5.1,3.7s-5.4,3.5-5.2,3.7c.7.6,12.8-5.8,18.5-9.8S168.49,406.84,168.49,407.54Z" transform="translate(-15.57 -35.67)"/><path d="M113.39,64.34c-9.8,7.1-16.3,13.7-25.3,25.9-5.3,7.1-9.4,12.9-9.2,12.9s3.5-3.9,7.2-8.8c8.9-11.5,9.4-11.9,5.2-4.2-5.1,9.3-12,25.8-16.1,38.5-5.5,17.4-5.3,19.3.6,4,7.1-18.5,11.6-28.5,19.5-43,5.4-9.9,8-13.5,14.8-20.3,4.6-4.5,8.2-8.2,8-8.2A37.19,37.19,0,0,0,113.39,64.34Z" transform="translate(-15.57 -35.67)"/><path d="M76.39,105.84c-1.3,1.6-1.2,1.7.4.4a6.23,6.23,0,0,0,1.7-1.7C78.49,103.74,77.69,104.24,76.39,105.84Z" transform="translate(-15.57 -35.67)"/><path d="M73.39,109.84c-1.3,1.6-1.2,1.7.4.4a6.23,6.23,0,0,0,1.7-1.7C75.49,107.74,74.69,108.24,73.39,109.84Z" transform="translate(-15.57 -35.67)"/><path d="M46.49,158.44c0,.4-1.4,5.5-3.1,11.4-3.2,10.9-8,34.1-7.8,37.8,0,1.1,1.3-4.1,2.8-11.5s4.3-18.9,6-25.4,2.9-12.2,2.6-12.4S46.49,158.14,46.49,158.44Z" transform="translate(-15.57 -35.67)"/><path d="M34.69,212.64c0,1.6.2,2.2.5,1.2a7.56,7.56,0,0,0,0-3C34.89,210.24,34.69,210.94,34.69,212.64Z" transform="translate(-15.57 -35.67)"/><path d="M47.59,274.74c0,1.1.3,1.4.6.6a2,2,0,0,0-.1-1.9C47.79,273,47.49,273.64,47.59,274.74Z" transform="translate(-15.57 -35.67)"/><path d="M165.29,61.84a2,2,0,0,0,1.9-.1c.4-.3-.2-.6-1.3-.5S164.49,61.54,165.29,61.84Z" transform="translate(-15.57 -35.67)"/><path d="M206.69,67.84c-3.5.8-6.1,1.7-5.9,2s2.2,0,4.4-.6a42.53,42.53,0,0,1,8.3-1.2c3.4,0,4-.2,2.5-.9C213.49,66,214.19,66,206.69,67.84Z" transform="translate(-15.57 -35.67)"/><path d="M231.49,77.74a352.87,352.87,0,0,1,38.9,12c3.5,1.3,6.6,2.3,6.8,2.1.7-.7-20.1-8.5-30.7-11.5-14.4-4.1-19.4-5.2-22.7-5.1C222.29,75.24,225.69,76.44,231.49,77.74Z" transform="translate(-15.57 -35.67)"/><path d="M268.09,102.64c-3,3.8-5.6,10.6-5.5,13.9,0,1.1.7-.2,1.6-2.9a40.33,40.33,0,0,1,4.4-9.4C272.19,98.94,271.79,97.74,268.09,102.64Z" transform="translate(-15.57 -35.67)"/><path d="M304.79,114.34c-2.8,3-7.3,10.6-7.3,12.5,0,.4,1.4-1.5,3.1-4.3a64.82,64.82,0,0,1,6.2-8.2c1.7-1.7,2.6-3.2,2.1-3.2S306.49,112.64,304.79,114.34Z" transform="translate(-15.57 -35.67)"/><path d="M280.09,115.64c-.9,2.6-.7,3.2.5,1.2.6-1,.9-2.1.6-2.3S280.49,114.74,280.09,115.64Z" transform="translate(-15.57 -35.67)"/><path d="M136.29,94.84a2,2,0,0,0,1.9-.1c.4-.3-.2-.6-1.3-.5S135.49,94.54,136.29,94.84Z" transform="translate(-15.57 -35.67)"/><path d="M182.29,111.84a5.28,5.28,0,0,0,2.5,0c.6-.3.1-.5-1.3-.5S181.59,111.54,182.29,111.84Z" transform="translate(-15.57 -35.67)"/><path d="M114.49,131.64c0,1,7.6,10.9,9.6,12.6,1.2,1,1.3.9.7-.7s-.5-1.8,1.3-.4,1.9,1.4,0-.7c-1-1.3-2.2-2-2.7-1.8s-1.8-.9-3-2.7c-1.5-2.2-1.7-2.8-.6-1.9s1.7,1,1.7.2.5-.9,1-.6a2,2,0,0,1,1,1.6c0,.6-.4.7-1,.4s-1-.2-1,.4a2.34,2.34,0,0,0,1,1.6c.6.3,1,.1,1-.6s.6-.6,1.8.4c2.7,2.5,3.5.9,1.2-2.3-1.2-1.6-2.8-2.7-3.8-2.5a5,5,0,0,1-3.5-1.9c-1.7-1.9-1.8-1.9-1.3-.2.7,1.9.6,1.9-1.4.1C115.39,131.64,114.49,131.24,114.49,131.64Zm11.5,6.1c.9,1.5,1.2,2.3.6,2-1.1-.7-3.5-4.6-2.8-4.6C124.09,135.14,125,136.34,126,137.74Z" transform="translate(-15.57 -35.67)"/><path d="M127.29,150.84c2.9,4.2,12.9,11.5,22.2,16.4a67,67,0,0,0,7.9,3.9c.3,0-4.4-3.2-10.5-7.1a192.64,192.64,0,0,1-16.4-11.8C125.59,148.14,125.29,147.94,127.29,150.84Z" transform="translate(-15.57 -35.67)"/><path d="M168.29,126.84a5.28,5.28,0,0,0,2.5,0c.6-.3.1-.5-1.3-.5S167.59,126.54,168.29,126.84Z" transform="translate(-15.57 -35.67)"/><path d="M268.49,189.34c-3.4,6-6.5,14.6-5.6,15.5.3.4.6,0,.6-.9s2-5.6,4.5-10.6C272.89,183.14,273.19,181.24,268.49,189.34Z" transform="translate(-15.57 -35.67)"/><path d="M198.49,186.54a5.73,5.73,0,0,0,1.8,1.7c1.5,1.3,1.6,1.2.3-.4S198.49,185.74,198.49,186.54Z" transform="translate(-15.57 -35.67)"/><path d="M23.59,224.74c0,1.1.3,1.4.6.6a2,2,0,0,0-.1-1.9C23.79,223,23.49,223.64,23.59,224.74Z" transform="translate(-15.57 -35.67)"/><path d="M360.69,167c4.1,3.6,3.2,4.7-2.6,3.2a31.46,31.46,0,0,0-7.3-1c-2,0-1.5.4,2.2,1.3,5.1,1.3,12.9,4.9,13.9,6.4.3.5-2,.1-5.2-1a56.14,56.14,0,0,0-10.7-2.4l-5-.4,5.5,1.8c8.3,2.8,15.1,6.6,19.3,10.8,3.3,3.3,3.7,3.5,3.7,1.6,0-4.4-5.1-13.7-10.2-18.5-2.8-2.6-5.4-4.7-5.9-4.7S358.89,165.44,360.69,167Z" transform="translate(-15.57 -35.67)"/><path d="M342.59,188.34c-.2,4.1,2.3,12.1,5.3,17.1l3.3,5.5-2.7.5a8.44,8.44,0,0,0-4.5,3.3l-1.8,2.8,2.8-2.2c1.5-1.2,3.5-2.2,4.4-2.2,2.5.1,5.7,3.1,8.4,7.9l2.5,4.3,2.1-4.8a32.14,32.14,0,0,1,3.8-6.6c1.5-1.7,1.4-1.8-1.6-1.8-4.3,0-10.8-6.6-14.9-15.1-3.7-7.5-4.2-5.9-.8,2.3,1.3,3.2,2.2,5.8,2,5.8-.9,0-6-9.9-7-13.9C343.19,188.74,342.59,187.44,342.59,188.34Z" transform="translate(-15.57 -35.67)"/><path d="M85.19,189.54c-1.9,2.9-2.2,4-.7,3.1.6-.3,1,0,1,.7s.7.2,1.6-1c1-1.4,1.2-2.7.6-3.8C87,187.24,86.59,187.34,85.19,189.54Zm1.6,1.1c-.3.9-.8,1.4-1,1.1s-.2-.9.2-1.5C86.89,188.64,87.49,188.94,86.79,190.64Z" transform="translate(-15.57 -35.67)"/><path d="M122.49,235.64a6.8,6.8,0,0,0,1,2.5c.5.8,1,1,1,.5a6.21,6.21,0,0,0-1-2.5C123,235.34,122.49,235,122.49,235.64Z" transform="translate(-15.57 -35.67)"/><path d="M127,244.84c2.9,5,4.5,7.2,4.5,6.1,0-.9-6.2-10.8-6.7-10.8C124.49,240.14,125.49,242.24,127,244.84Z" transform="translate(-15.57 -35.67)"/><path d="M164.29,204.84a2,2,0,0,0,1.9-.1c.4-.3-.2-.6-1.3-.5S163.49,204.54,164.29,204.84Z" transform="translate(-15.57 -35.67)"/><path d="M168.29,204.84a2,2,0,0,0,1.9-.1c.4-.3-.2-.6-1.3-.5S167.49,204.54,168.29,204.84Z" transform="translate(-15.57 -35.67)"/><path d="M187,207c15.8,2,20.5,3.2,28.8,6.8,5.6,2.5,6.7,3.6,4.7,4.8a18.65,18.65,0,0,0-3.1,3.8l-2.2,3.2,3.4-3.1a54.71,54.71,0,0,1,5.7-4.6c2.2-1.5,2.1-1.6-6.5-5.1-13.6-5.4-18.8-6.5-32.3-7.1l-12.5-.5Z" transform="translate(-15.57 -35.67)"/><path d="M219.69,226.24c-4.9,5-9.3,12-10.6,16.9-.4,1.4.7.1,2.3-2.9a86.46,86.46,0,0,1,11.4-15.9C227.79,219.14,225.09,220.64,219.69,226.24Z" transform="translate(-15.57 -35.67)"/><path d="M218.69,248.34c-2.2,3.7-4.5,10.4-4,11.7.2.5,1.7-2.7,3.5-7s3-7.9,2.8-7.9A17.26,17.26,0,0,0,218.69,248.34Z" transform="translate(-15.57 -35.67)"/><path d="M232.29,295.84a2,2,0,0,0,1.9-.1c.4-.3-.2-.6-1.3-.5S231.49,295.54,232.29,295.84Z" transform="translate(-15.57 -35.67)"/><path d="M344.19,230.84c-2.8,10.4-3,12.9-1.2,17.6a68.68,68.68,0,0,1,2.5,11.8l.7,7.4.1-6a54.44,54.44,0,0,0-1.3-12c-1.8-7.7-1.8-10.8,0-17.9.9-3.3,1.4-6.1,1.2-6.3S345.09,227.64,344.19,230.84Z" transform="translate(-15.57 -35.67)"/><path d="M87.29,247.74a75.67,75.67,0,0,0,13,2.9c4.9.5,4.5.3-3.1-1.4-4.9-1.1-10.3-2.4-11.9-3a14,14,0,0,0-4.2-1C80.49,245.34,83.29,246.44,87.29,247.74Z" transform="translate(-15.57 -35.67)"/><path d="M87.29,251.84a2,2,0,0,0,1.9-.1c.4-.3-.2-.6-1.3-.5S86.49,251.54,87.29,251.84Z" transform="translate(-15.57 -35.67)"/><path d="M93.29,252.84a2,2,0,0,0,1.9-.1c.4-.3-.2-.6-1.3-.5S92.49,252.54,93.29,252.84Z" transform="translate(-15.57 -35.67)"/><path d="M99.79,253.84a7.56,7.56,0,0,0,3,0c.6-.3-.1-.5-1.8-.5S98.79,253.54,99.79,253.84Z" transform="translate(-15.57 -35.67)"/><path d="M88.79,254.84a7.56,7.56,0,0,0,3,0c.6-.3-.1-.5-1.8-.5S87.79,254.54,88.79,254.84Z" transform="translate(-15.57 -35.67)"/><path d="M166,315.44c-3,5.2-5.9,13.3-7.5,21.1-1.6,7.6-3.8,9-12.8,8.4-6.5-.5-6.6-.5-3.4.9,1.9.8,8.6,2.7,14.9,4.3,12.3,3.2,13.4,3.3,43.8,1,9.1-.6,8.2-.7-9-.9-20.9-.1-25.4-.9-28.5-4.8-3.5-4.5-2.2-17,3-28C169.89,310.14,169.69,309.24,166,315.44Z" transform="translate(-15.57 -35.67)"/><path d="M183.09,321.34c-2.3,5.7-4.9,14.9-4.2,15.5.1.1,1.8-4.6,3.8-10.5s3.5-10.8,3.4-11S184.59,317.94,183.09,321.34Z" transform="translate(-15.57 -35.67)"/><path d="M197.29,355.84a17,17,0,0,0,4.5,0c1.2-.2.2-.4-2.3-.4S196,355.64,197.29,355.84Z" transform="translate(-15.57 -35.67)"/><path d="M208.29,358.84a2,2,0,0,0,1.9-.1c.4-.3-.2-.6-1.3-.5S207.49,358.54,208.29,358.84Z" transform="translate(-15.57 -35.67)"/><path d="M39.09,363.84c.3,5.5.9,12.2,1.4,14.9.6,3.4.7.8.3-8.1-.6-14.9-.7-15.2-1.6-16.1C38.89,354.14,38.79,358.34,39.09,363.84Z" transform="translate(-15.57 -35.67)"/><path d="M164.89,398.74c-1.8,1.4-1.8,1.5.4.4a6.12,6.12,0,0,0,2.2-1.5C167.49,396.84,167,397,164.89,398.74Z" transform="translate(-15.57 -35.67)"/><path d="M124.29,401.84a2,2,0,0,0,1.9-.1c.4-.3-.2-.6-1.3-.5S123.49,401.54,124.29,401.84Z" transform="translate(-15.57 -35.67)"/><path d="M97.29,419.84a5.28,5.28,0,0,0,2.5,0c.6-.3.1-.5-1.3-.5S96.59,419.54,97.29,419.84Z" transform="translate(-15.57 -35.67)"/><path d="M58.29,420.34c2.5,4.3,12.7,13.6,17,15.4a102.93,102.93,0,0,0,13.6,3.8c11.9,2.7,11.3,3.9-2.6,4.4-8.6.4-10.1.2-14.4-1.9a55.29,55.29,0,0,1-9.8-6.9l-5-4.5,3.4,4.3c4.4,5.6,8.3,8.5,15.6,11.5,7.5,3.2,26.4,9,27,8.4.3-.2-.8-.8-2.3-1.2-4.5-1.1-12.3-4.7-12.3-5.6,0-1.2,4.7-3.5,9-4.4,1.9-.4,10.5-.9,19-1,11.7-.1,16.8-.6,20.8-1.9,6.5-2.1,6.3-3.2-.2-1.5-6.1,1.5-22,.7-26.6-1.4l-3.5-1.5,9.5-.1a80.89,80.89,0,0,0,15-1.6c6.6-1.7,18.3-7.5,22.5-10.9,2.9-2.4,2.7-2.4-2.5.4a112.89,112.89,0,0,1-13.5,5.6c-7.3,2.5-9.3,2.8-23,2.8-12.6.1-16.3-.3-23.2-2.1a172.7,172.7,0,0,1-26.5-9.3l-8.8-3.8Z" transform="translate(-15.57 -35.67)"/><path class="cls-1" d="M737.25,62.5c-14.3,1.2-29.7,5.8-34.7,10.3-.8.7-5.8,2.1-11,3-5.9,1-10.8,2.5-13,3.9s-6.6,2.7-12,3.5c-28.9,4.2-59.4,14.4-70.5,23.6-5.2,4.2-9.8,10.9-12.6,18.4-4,10.9-9.7,15.8-21.9,19-10.3,2.7-13.6,4.2-20.9,9.7-11.7,8.8-17.1,18.6-17.1,30.8.1,6,1.2,10.1,6.5,22.4,3.4,8.1,5.1,17,5.9,30.2.8,13.9,2.9,23.1,6.8,31,2.7,5.4,4.1,6.9,7.8,8.7,9.9,5,19.9,1.5,27.3-9.6,1.2-1.8,1.8-2.1,2.1-1,3.5,9.7,5.3,13.7,8.3,17.6,2.8,3.7,3.6,5.7,4,10.2,2.1,27.6,10.8,43.4,36.8,67.2,2.8,2.5,6.6,6.4,8.7,8.7a21.09,21.09,0,0,0,8.8,5.9c4.3,1.5,6.7,3.5,14.4,11.8l9.2,10,1.3,9.8c3.3,25.6,13.5,47,28.3,59.4,5.3,4.4,15.2,9.4,24.3,12.3,9.8,3.1,33,3.9,46.5,1.6,12.1-2.1,23.3-5.1,29-7.9,9.4-4.6,19.5-18.1,26.6-35.2,1.6-3.9,3.6-7.7,4.6-8.5,4.2-3.8,9.8-29.1,10.4-47.2l.4-12.7,5.4-7.1c7.7-10.3,13.8-22.5,19.5-39.3,8.5-24.9,10.7-41.3,9.8-73.8-.9-38.6-5-52.5-29.3-100.4-18.7-37.1-36.5-63.1-48.3-71.1C779.85,65,761.35,60.5,737.25,62.5Zm29.1,3.3a95.92,95.92,0,0,1,29,12.4c6.6,4.3,9,6.7,15.9,15.8,14.1,18.8,27.3,40.9,39.3,65.9,4.6,9.4,6.3,14.5,7.9,22.5,4.4,23.1,5.5,34.6,5.5,59.9,0,21.1-.3,26.3-2.3,37.3-3,17.1-7.5,33-11.3,39.7-7.1,12.4-20.2,26.4-32.8,34.8l-6.5,4.4,5-4.3c9.8-8.3,26.1-25.5,30.6-32.4s7.2-13.8,10.4-26.1c2.3-9.3,1.8-8.9-1.9,1.3a139.25,139.25,0,0,1-6.7,15c-1.9,3.2-3.3,6.3-3.1,6.9s-3.2,4.6-7.4,9-7,7-6.1,5.9a86.49,86.49,0,0,0,4.6-8c1.8-3.3,2.4-4.9,1.4-3.5-13.9,19.1-25.6,31-41.4,42.2-11.1,8-26.8,15.9-36.1,18.3-13.1,3.4-30,.9-41.6-6.2l-3.3-2.1,2.6-.6c1.8-.5,4.7.1,8.8,1.8,9.5,3.7,17.1,4.9,26.4,4.2,19.1-1.4,37.3-10.9,56.6-29.5,3.1-3,5.7-5.9,5.7-6.4s-.7-.4-1.5.3c-2.4,2-1.8.5.7-1.6,1.4-1.3,1.9-1.4,1.4-.4-.4.8,1.1-.5,3.4-3,4.6-4.9,13.5-18,16.9-24.7,3.1-6.2,2.5-6.6-.8-.6-4.1,7.4-11.5,18.2-15.7,22.8l-3.6,4,3-4c3-4.1,11.9-18.1,14.1-22.3s.3-2.1-3.3,3.7c-3.6,6-17.3,24.1-18.1,24.1-.2,0,2.4-3.9,5.8-8.7,6.4-9,9.7-14.2,5.5-8.8-8.3,10.7-14.6,17.9-20.9,24-5.1,4.9-6,5.5-2.8,2,8.5-9.5,25.1-32,28.3-38.5.9-1.8.2-.9-11.6,14.4-5.1,6.5-14.4,17.2-20.7,23.7-9.3,9.4-12.9,12.4-18,14.8-5.9,2.8-8.1,3.1-8.1,1.3,0-.4,2.8-2.6,6.3-4.9a70.07,70.07,0,0,0,9.2-7.3c2.7-2.9,2.4-2.8-2.5.9-11.8,9-29,15.3-44.5,16.6-5.9.4-4.9.1,6-2,21.9-4.3,35.7-12.4,54.1-31.7,22.1-23.1,34.8-48.1,38.5-75.5,1.8-13.8.7-25.4-4.5-45.4-5.5-21.2-7.9-34.5-10.6-58.3-1.2-9.9-2.5-21-3-24.6-2.7-18.7-14-39.3-27.7-50.4l-4.8-3.9,5.1,5.4c6.4,6.8,11.4,13.3,14.3,18.4l2.2,4-3.3-4c-7.8-9.4-19.6-20.8-26.2-25.2-8.5-5.7-21.9-10.9-30.1-11.7l-6-.6,7.3,2c6.6,1.8,19.6,6.9,19,7.5-.2.2-4.3-.7-9.3-2-10.7-2.7-16.8-3.4-29.5-3.5-6.8-.1-8.9-.4-7.5-1.1,1.6-.8,1.4-.8-1.1-.5-1.8.3-4.5.8-6,1.1-6.2,1.3.4-1.5,7.2-3.1C737.05,63.3,753.75,62.9,766.35,65.8Zm-55.8,5.5a6.21,6.21,0,0,1-2.5,1c-.5,0-.3-.5.5-1a6.8,6.8,0,0,1,2.5-1C711.65,70.3,711.35,70.8,710.55,71.3Zm39.6,5.1c7.8,2.3,19.7,8.4,25.8,13.2,5.7,4.4,21.2,19.4,24.9,24.2,1.7,2.2-2-1-8.4-7-11-10.6-24.7-20.8-33.6-25.4-6.8-3.4-6.3-2.4.7,1.5,7.9,4.4,14.2,9.3,13.5,10.4-.3.5.3,1.3,1.2,1.9,1.1.6,1.3,1.1.5,1.1s-1.1.4-.7.9a1.22,1.22,0,0,1-.5,1.6c-1.5.9-.2,2.5,1.5,1.9,2.1-.9,1,3.4-1.6,6.3-1.9,2-3.2,2.3-9,2.3h-6.7l-6.6-6.8a86.93,86.93,0,0,0-11.4-10.2c-3.5-2.5-2.1-.8,5.3,6.5,9.9,9.8,10,9.9,7,10.3-2.4.3-3.5-.3-6-3.1-3.4-3.9-13.4-12.1-16.7-13.7-1.5-.7-1.2-.3.7,1.2,4.7,3.5,15.6,14.1,15,14.6-.2.2-3.2-2.1-6.7-5.3-8.5-7.7-18.8-14.3-27.5-17.7-8.1-3.2-20.8-5.3-26.8-4.5-7.9,1.1-.9-1.1,10-3.2,15.3-2.8,15.1-2.8,33.1-3C741,74.3,744.35,74.6,750.15,76.4ZM704.55,85c12,3.4,22.2,10.5,23.5,16.4,1.8,8.3-9.8,16.7-34.7,25-20,6.7-31.8,6.2-38.8-1.7l-3-3.5v6c0,3.3-.5,6.3-1.1,6.6s-2.1-.3-3.5-1.6l-2.4-2.2-.2,6.4-.2,6.4-.6-8c-.3-4.4-.7-6.7-.8-5.2-.3,4.7-3.5,3.1-4.4-2.2-1.1-6.6-1.6-5.9-1.1,1.6.3,3.7,0,8.4-.6,10.3-1,3.3-1.1,3.2-.6-1.7.4-3.7.2-5.4-.8-6-.8-.4-1.8-3.3-2.4-6.3-.8-4.7-.9-3.8-.5,5.5.5,11.5-.3,13.9-1.4,4.4-.8-7-1.4-7.5-1.5-1.3-.1,2.7-.3,4-.6,2.9-1.8-7.9-2.9-10.1-7.3-15-7.5-8.2-7.8-13.4-1.3-20.6l3.5-3.9-3.9,1.4c-4.4,1.5-14.3,6.4-14.3,7a48.27,48.27,0,0,0,3.4,5.5c3.5,5.2,6.6,15.8,6.6,22.5,0,7.8-4.6,2-8.4-10.6-2.5-8.4-4.9-11.8-8.2-11.8-2.3,0-7,4.8-9.9,10.2l-2.9,5.3-.8,25.5c-.6,23.3-.4,28.1,1.7,33.2.4,1,.3,1.8-.2,1.8-1.2,0-2.9-5.8-3.7-12.5-.4-2.8-.2-14.5.2-26,.9-20.1,1-21.3,3.7-27,5.7-12,15.9-19.2,37.5-26.7,15.4-5.2,42-11,55.5-12C687.65,82.5,699.05,83.4,704.55,85Zm81,29.1c19.3,5.2,22.6,6.5,20.2,8-.8.6-5.1-.2-10.9-2-10.9-3.2-14.2-3.6-6.8-.7,2.8,1.1,3.9,1.7,2.5,1.4a144,144,0,0,0-29.5-3.9l-12-.5,9.9.9c10.8,1,20.3,2.7,22.6,4.1,1,.6-.4.8-4,.5-3-.3-8.3-.8-11.6-1.1s-7.2-.1-8.5.4c-1.9.8-.9,1,4.6,1.1,10,.1,37.5,5.1,37.5,6.9,0,.3-2.7,2.5-6,4.9l-6,4.4-6.8-1.1c-3.8-.6-13.9-1.5-22.5-2.1-21.2-1.3-36.6-4-40.2-7-.8-.7-2.8-.9-4.7-.5-2.5.4-1.3-.5,4.7-3.9,4.4-2.5,7.6-4.6,7.2-4.6-1.6,0-18.9,9.1-24.5,12.9-7.5,5-9.4,5.8-5.7,2.6,11.8-10.3,28.7-18.7,44.5-22.1C749.35,110.7,775.85,111.4,785.55,114.1Zm24.1,15.4c-.5,1.4-3,3.7-5.5,5.2-5.3,3.1-5.7,3.8-1.8,2.7,3.5-.9,8-.5,9.8,1,2.3,1.9,1.6,6.2-2.1,12.5-3.2,5.3-3.2,5.6-.7,2.7l2.8-3.2,1.3,6c1.2,5.4,1.2,6.1-.4,7.9a6.4,6.4,0,0,1-4.1,2c-3.9,0-12.9,3.9-20.6,8.8a107.59,107.59,0,0,1-11.8,6.7c-4.5,1.9-8.5,4.6-4.5,3,15.5-6.2,19.6-7.4,23.8-7.5,6.1,0,8.5,1.2,8.5,4.5s1.6,5.1,5.8,6.5c6.1,2,7.2,7.9,2.5,13.2l-2.9,3.3-26.2.3c-18.2.1-28.4.7-33.2,1.7-6.9,1.4-19.2,5.8-21.5,7.7a2.9,2.9,0,0,1-2.5.5c-1.6-.6,9.9-5.9,19-8.8a97.19,97.19,0,0,1,17.7-2.9c7.1-.4,9.2-.8,6-1-4.8-.3-4.9-.3-1.5-1l3.5-.6-2.8-.8c-3.3-1-18.7.7-31.1,3.4-4.9,1.1-9.1,1.8-9.3,1.6-.5-.4,13.8-9.6,19.5-12.5,4.2-2.2,5.7-3.6,2.5-2.4-1,.3-8.1,3.8-15.8,7.7L720,204.9l10.1-9.9,10-9.9-9,7.5c-4.9,4.1-12.1,9.7-15.8,12.5-7.4,5.6-13.4,9.1-7.7,4.5,7.6-6.1,32-27.2,45.9-39.7,16.3-14.6,29.5-25.4,45-37C808.75,125.2,811.65,124.4,809.65,129.5Zm-85.5,4c.5.6-19.8,1.8-20.4,1.3-.2-.2,1.6-.7,4-1.2C712.25,132.7,723.25,132.6,724.15,133.5Zm-142.6,4.8v4h-8.1l3.8-3.9c2.1-2.1,3.9-3.9,4.1-4A19.74,19.74,0,0,1,581.55,138.3Zm192.5,1c7.9,1.6,8.1,1.7,5.9,4.1-5.9,6.5-14.2,7.3-29.3,2.5a74.68,74.68,0,0,0-8.8-2.3c-.1.2,3.6,1.8,8.3,3.6s8.3,3.5,8.1,3.7-2.2-.2-4.2-1c-4.7-2-5.5-2-3,.1l2,1.6-2-.7c-6.6-2.4-27.6-6.8-36.9-7.8-10.5-1.2-10.8-1.3-7.6-2.6,1.7-.7,7.3-1.7,12.4-2.2C730.35,137.2,767.35,137.8,774.05,139.3ZM581.55,147c0,4-3.3,8.9-8.5,12.5-4.3,3-4.4,3.2-2.5,4.5,3.8,2.7,10.1,18.1,9.9,24.2,0,2.3-.4,2-2.3-1.9-3.5-7.3-4.7-9.2-5.3-8.6-.3.3-.1,1.1.5,1.8,1.8,2.3,6,16,6.7,22.3.8,7.5-.5,6.4-2.2-1.7-1.2-5.8-4.3-15.1-4.9-14.6a32.21,32.21,0,0,0,1.2,5.8c1.8,6.9,1.7,9.6-.2,5l-1.4-3.5.5,3.4c.3,1.9.7,6.6,1,10.5l.4,7.1-.9-6c-1.5-9.5-1.9-8.8-1.4,3l.5,11-2.6-6.5c-3.7-9.2-4.8-9.6-2-.8,3.7,11.8,4.8,19.8,4.3,33.6-.3,10.4-.8,13.4-2.5,16.8-2.6,4.9-4.1,6.2-9,8l-3.8,1.3,3.1.1c4,0,11.8-5.2,15.1-10.2s5-4.9,2.1.3c-3.1,5.6-10.2,11.7-14.5,12.5-4.1.8-9.9-.1-11.9-1.7-2.9-2.4-.9-21.5,3.5-32.7,2.5-6.3,2.8-18.5.7-27.5-1.6-7-2.5-8-6.6-7.9-3.4.1-5.9,2.6-9.7,9.6-1.2,2.3-2.2,3.9-2.3,3.6-.1-.8-5.5-15.9-8.4-23.3-5.4-14-2.8-25.6,8.3-36.7a55.27,55.27,0,0,1,38.4-15.9C581.55,144.3,581.55,144.3,581.55,147Zm126-2.1c0,.8-1.9,1.3-2.4.6-.3-.5.1-.9.9-.9A2.69,2.69,0,0,1,707.55,144.9Zm19.5,2.4c5.9,1.3,20.8,6.1,20.3,6.5-.2.2-5-1-10.8-2.6a166.85,166.85,0,0,0-19.2-4.1c-4.9-.7-8.8-1.5-8.8-1.8C708.55,144.5,720.45,145.8,727.05,147.3Zm-40,.5c-12.3,1.3-34.2,5.5-38.9,7.6-1.9.9-1.9.9.4.4,26.5-5.6,43.3-7.2,60-5.6,25.3,2.6,41,7.7,41,13.5,0,3.8-7.6,9.8-23.6,18.6-9,5.1-16.4,9.4-16.4,9.6s.9,0,2.1-.6a3.51,3.51,0,0,1,2.6-.7c.3.3-1.3,1.5-3.6,2.7a15.44,15.44,0,0,0-4.1,2.5c0,.3,1.3-.1,2.9-1a8.38,8.38,0,0,1,4.8-.9c1.2.4,1.4.3.5-.3s-.2-1.4,2.4-2.7c2-.9,3.4-1.9,3.1-2.2s-1.5,0-2.7.6-2.4,1-2.6.8,1.2-1.2,3.2-2.1,3.3-1.3,2.9-.7,0,1,.7,1,.6.5-.5,1.1c-.9.6-1.5,1.4-1.2,2s-.2.6-1.1.2c-1.2-.4-1.5-.3-1,.5s.2,1-.9.6c-.9-.4-1.5-.2-1.3.4s-.6,1.8-1.7,2.7l-2,1.7,2-.6c3-.9-1.3,2.3-10.5,7.8-6.1,3.7-9.2,4.8-16.4,6.1-11,1.9-20.6,1.9-25,.1-3.2-1.3-3.3-1.6-3.9-8.5-.5-6.7-3.5-19.6-4.4-18.8-.2.2.3,3.1,1.2,6.3,1.8,6.9,2.1,19.5.5,25.3a10.87,10.87,0,0,1-3.4,5.7c-2.2,1.3-2.8,1.3-6,0l-3.6-1.5.6-6.3c.3-3.5.7-7.6.9-9.1.3-1.7.1-2.6-.5-2.2s-1,2-1,3.6c0,4.4-2.6,8.9-5.3,9-8,.5-12.1-1.5-15-7.3-3.4-6.9-9.6-20.8-9.2-20.8s1.8,2.4,3.5,5.2c3.4,6,4.1,5.8,1-.2-2.2-4.4-2.5-5.4-1-4.5.6.4.1-1.7-1-4.7-3.4-8.9-2.6-11.2,5.6-16.5,2.9-1.9-5.3,1.5-12.7,5.3-13.8,6.9-22.8,23-25.3,45.2-.9,7.9-.7,38.7.3,46.3,1.7,12.6,10.6,25.2,20,28,4.5,1.3,5.7,3.3,1.4,2.3-12.9-3.1-21-14.5-24-33.8-3.2-20.8-1.6-43.6,4.3-61.3,5.9-17.5,10.2-22.4,26.9-30.4a219.38,219.38,0,0,1,41.3-15c12.4-3,31.5-5.7,39.7-5.7C698.75,146.5,697.75,146.8,687.05,147.8Zm64.5,7.5c.8.5,1.1,1,.5,1a6.8,6.8,0,0,1-2.5-1c-.8-.5-1-1-.5-1A6.21,6.21,0,0,1,751.55,155.3Zm-138,26.6c1.2,1.9,2.1,3.7,1.8,3.9s-1.4-1.4-2.6-3.6C610,177.3,610.55,177,613.55,181.9ZM866,194.8c8.1,25.6,10.7,58.8,7.1,91.5-2.5,22.3-9,40.6-20.9,58.4-13.6,20.4-39.1,38.8-66.7,48-26.1,8.8-47.6,8.5-63.9-.7-5.4-3-17-13.8-17-15.7q0-3.15,6.9,3.9c5.3,5.5,14.2,10.4,22.8,12.6,8.2,2.2,8.8,1.7,1.3-.9-9.5-3.3-15.9-6.8-21-11.6-5-4.6-4.3-4.4,4.4,1.4,8.4,5.5,15.7,8.2,26.1,9.7,7.9,1.1,10.7,1,20.9-.5,6.5-.9,12-1.5,12.3-1.2s-15.5,4.3-23.7,6c-1.4.2.8.2,4.8,0,13-.9,26.4-4.9,41.7-12.4,18.1-9,30.6-18.3,40.8-30.5l4.2-4.9-7.2,6a91.48,91.48,0,0,1-13.5,9.3l-6.3,3.3,6-5.3c21-18.6,32.1-36.2,38.9-61.9,2.9-10.5,6-29.4,5.3-31.2-.3-.7-.6-.3-.6,1-.2,5-4.5,23.3-8.2,34.7-4.1,12.8-8.7,21.2-15.7,29.2-4.9,5.4-4.6,4,.4-2.2,8.4-10.5,14.1-26.1,18.5-51,4.3-23.8,2.9-71.7-2.7-96C859.85,179.2,863.45,187.2,866,194.8Zm-264.1-6.5c4.2,4.9,9.2,14.2,10.2,19l.7,3.4-4.2-4.9c-2.3-2.7-5.4-6.6-6.8-8.7-3.3-5.1-4.1-4.1-.9,1.3,3.9,6.5,10.7,14.3,16.1,18.3,5.6,4.1,4.3,4.8-2.1,1.1-5.5-3.3-5.5-2.6-.1,1.4,4.4,3.2,3.7,4.3-1,1.5-1.8-1-1.2-.2,1.6,2.3,2.3,2.1,4.2,4.2,4.2,4.5s-1.9.1-4.2-.7l-4.3-1.5,2.5,1.9c1.4,1.1,2.3,2.1,2,2.3s-1.8,1.4-3.3,2.6l-2.9,2.1,2.4.5c1.2.3,3.4.7,4.8.9s.1.5-2.8.6a19.37,19.37,0,0,1-13.5-4.7c-1.6-1.5-1.7-1.4-1.2.1,1.4,3.4,12.3,9.6,14.5,8.2a1.27,1.27,0,0,1,1.6.6c.5.9-.8,1-4.9.7-7.5-.6-11.6-3.9-15.9-12.5-3.1-6.4-3.3-7.3-3.3-17.8,0-6,.3-11.8.8-12.8.6-1.6,1.2-1.3,4.3,2.5a34.3,34.3,0,0,0,5.3,5.2c1,.6.8,0-.6-1.5-5-5.5-7.8-16-5.1-18.7C597.55,183.7,598.05,183.9,601.85,188.3Zm212.4,18.9c-8.2,8.4-10.8,12.5-3.2,5.1,4.6-4.6,5.7-4.7,2.9-.5-1.6,2.4-1.1,5.1.7,4,.5-.3.6,0,.3.8a1.93,1.93,0,0,0,.5,2.2c.7.4.6,1.8-.5,4.3l-1.5,3.7,2.8-3.3c2.4-2.8,3.2-3.3,5.6-2.7,4.2,1.1,4.4,2.6.6,5.8s-2.5,2.8,3.8-1.5c4.4-2.9,5.3-3.3,5.3-2,0,.4-1.7,1.6-3.7,2.7-5.2,2.8-24.1,16.3-30.8,22.2a175.37,175.37,0,0,0-13.7,13.7c-10.5,11.7-17.5,17.6-20.7,17.6-2.3,0-2.1-.5,3.4-6.2,3.3-3.5,4.9-5.3,3.5-4.2-5.7,4.6-6.3,4.7-2.9.4,7.6-9.6,8-11.2,1.1-4l-7.3,7.5,4.6-6.5c4.8-6.7,6.9-10,6.2-10-.3,0-1.7,1.9-3.2,4.2-3.5,5.3-11.3,13.6-14,15-1.1.6,0-1.1,2.5-3.7l4.5-4.8-6.3,5.1a58.33,58.33,0,0,1-6.8,5.2c-.7,0,1.4-3.8,2.5-4.5a30.86,30.86,0,0,0,4.2-4.8c2.2-2.8.3-1.3-5.7,4.4-9,8.6-15.1,13.5-16,12.7-1-1.1,86.3-85.7,88.5-85.8C821.75,199.3,818.45,202.8,814.25,207.2Zm-228.4,11.3c-.4,13.7-1.3,17.3-1.3,5.1,0-7,.9-17.3,1.5-17.3C586.15,206.3,586.05,211.8,585.85,218.5Zm-33.2-5.5a77.5,77.5,0,0,1,1.6,13.6c.4,7.7.2,10.6-1.1,13.5-2.6,5.9-4.6,15.1-5.3,24-.5,7.2-.8,8-1.9,6.3-4.5-6.3-8.4-24.9-8.4-39.6,0-10.7,5.6-21.5,11-21.5C551.05,209.3,551.65,209.9,552.65,213Zm253.2-3a7.56,7.56,0,0,1-3,0c-1-.3-.4-.5,1.2-.5S806.45,209.7,805.85,210Zm-9.3,1.3-3.5.6,3.9.9,4,.8-3.8,3.4c-3.5,3.2-4.1,3.4-8.4,2.9-8.5-1.2-28.5-3.4-41.2-4.7-9.8-1-11.9-1.5-10.2-2.2s4.4-.6,9,.2a143,143,0,0,0,17.9,1.8c10.9.6,12.2.4,24.8-3.2a43.39,43.39,0,0,1,8-1.3C800,210.6,800,210.6,796.55,211.3Zm-61.3,6c19.9,1.6,33.4,3,38.7,4.2,4.7,1,8.6,3.7,8.6,6,0,2.1-28.4,30-35.5,34.7a99.87,99.87,0,0,1-29.9,13.5c-10.2,3-13.3,3.2-16.4,1-1.7-1.2-2.2-2.5-2.2-6.2v-4.7l-2.8,8a76,76,0,0,1-6,13.3c-2.8,4.2-4.2,5.4-7.5,6.3-3.9,1.1-18.9.7-27.2-.6-1.6-.3.2.6,4,2s6.2,2.4,5.3,2.4-1.8.6-1.8,1.2.8.8,1.8.5,2.8-.8,4.2-1.1q2.55-.75,1.5.3c-.5.6-4.8,2.3-9.5,3.8a103.73,103.73,0,0,0-11.5,4.2,10,10,0,0,1-4.2,1.4.93.93,0,0,0-1.3.8c0,.6-.3.9-.8.6s-1.8.2-3.2,1l-2.5,1.4,3-.6a39.52,39.52,0,0,0,5.5-1.7,24.54,24.54,0,0,1,5.5-1.3c2.9-.3,2.9-.2-.5.8a20.35,20.35,0,0,0-4,1.8,8.08,8.08,0,0,1-3.2,1.4,29.43,29.43,0,0,0-5.5,1.8c-1.5.6-3.2,1.2-3.8,1.4s-3.7,1.4-7,2.8c-5.2,2.3-5.6,2.6-2.7,2.4,1.9-.1,3.6-.6,3.8-1a3.2,3.2,0,0,1,2.2-.8c2.4.1-7.9,4.9-10.5,4.9-2.9.1-6.3-2.8-6.3-5.4,0-3.3,3.8-9.6,9.5-15.5a136.1,136.1,0,0,0,9.4-11.2c4.9-6.8,8.1-9.1,12.2-9a11.22,11.22,0,0,0,2.9-.2c0-.2-2.2-5-4.9-10.7-6-12.9-7.7-18.3-2.2-7.3a65.1,65.1,0,0,0,8.6,13l4.6,4.9-3.1-4.4a35.15,35.15,0,0,1-5.9-19.5l.2-5.1.7,5.5c1.2,8.9,6.8,19.8,11.4,22.2l2.1,1.1-2.1-2.4c-2.5-2.8-6.4-9.3-6.4-10.5,0-.5,1.2.9,2.7,3.1,2.6,3.7,2.8,3.8,3.1,1.7.9-6.4-4.4-21.4-10-27.6-4.8-5.6-4.5-7,.7-2.5,3.6,3.2,6.3,7.5,9.7,15.4.9,2.2,1.7,3.5,1.7,2.9.2-2.7-3.1-11.2-6.3-16.4-4.6-7.4-4.6-9.9-.1-13.9,2-1.7,4.1-3.1,4.7-3.1s.9-.3.5-.6-4,1.1-8.2,3.1c-6.6,3.3-8.2,4.7-13.3,11.4a149.5,149.5,0,0,0-17.7,32.6c-4.4,11.7-8.5,27.6-8.5,32.9,0,10.3,4.2,18,12.5,22.7,5.6,3.2,5.6,3.5-.4,1.4-2.2-.8-4.1-1.2-4.1-.9,0,1,10.7,5.4,15.8,6.5,6.1,1.2,6.1,3.2-.1,2.2-10.2-1.6-18.1-6.6-21.3-13.7-5.2-11.5-5.4-26.7-.4-41.7,5-14.8,17.7-38.1,25.6-46.9,6.4-7.1,23-13.8,44.5-17.9,5.7-1.1,11.3-2.2,12.4-2.4C698,216.1,722.75,216.3,735.25,217.3Zm-146.2,37.5a80,80,0,0,0,4.5,14.3c1.6,3.4,2.4,6,1.9,5.6-3.7-2.2-8.8-21-9.4-34.4l-.4-8.5.9,7.5C587.05,243.4,588.25,250.4,589.05,254.8ZM822,236.9a3.09,3.09,0,0,1,1.6,2.9c0,2.7,1.6,4.2,5,4.7,2,.2,2.5.9,2.5,3.3,0,2.6-.7,3.4-5.7,6a57.19,57.19,0,0,0-6.5,3.9c-.4.5.2.3,1.5-.3,4.6-2.4,15.2-6.1,15.2-5.2,0,.4-1.8,1.3-4.1,2-7.4,2.2-18.4,7.7-22.3,11.1-3.1,2.8-4.7,3.4-9.4,3.7-5.7.4-5.7.4-3.2-1.4,1.3-1,3.6-2.8,5-4.1,2.4-2.2,2.3-2.2-1.5.2a54.33,54.33,0,0,1-8.4,4.1c-4.8,1.7-4.8,1.8.3-4.5,1.7-2,1.4-1.9-1.2.5-2.5,2.2-3.1,2.5-2.6,1.1s.4-1.7-.4-1.2c-1.9,1.2-1.4.1,1-2,1.3-1.2,1.8-1.3,1.3-.4-.8,1.3-.7,1.3.8.1,1-.8,1.5-1.6,1.2-1.9s.5-1.7,1.7-3.1l2.3-2.6-2.5,2-5.1,4c-1.4,1.1,1.1-1.5,5.5-5.9,10.3-10,18.6-15.5,26.3-17.6C820.35,236.3,821.05,236.6,822,236.9Zm1.8,23.2c-2.9,1.5-4.9,3.2-4.5,3.6s.2.6-.4.2-1.3-.3-1.3.3,2.6,1.1,5.7,1.3c5.2.3,5.9.6,7.1,3.1,3.1,6.4-.9,11.1-10.3,12.4-6.7.9-6.4,2,.3,1.2,10-1.1,7.3.2-5,2.6-4,.8-5.6,1.3-3.6,1.2,2.5-.2,3.5,0,2.8.7-1.3,1.3-33.3,1-47-.4-5.8-.6-14.1-1.2-18.5-1.3l-8-.2,6-1.4c6.8-1.6,15.4-1.8,30.5-.8,11.9.8,9.9-.6-2.5-1.8l-7.8-.7,4.4-3.9c4.2-3.6,4.7-3.8,11.4-3.9,8.8,0,30.4-2.6,37-4.5l5-1.3-6.5.5a64.44,64.44,0,0,0-8,.9c-1.3.4-1.3.3.1-1.1,1.8-1.8,15.9-9.5,17.4-9.4C828.65,257.4,826.65,258.6,823.75,260.1Zm-94.2,21.5c-3.1,2.8-36,8.2-36,5.8,0-.6.3-1.1.8-1.1,5-.1,20.3-2.4,26.2-3.9C730.15,279.9,731.55,279.8,729.55,281.6Zm93.5,3.7c-.3.5-2.1.9-3.8.9l-3.2-.2,3.5-.7c1.9-.4,3.6-.8,3.8-.9S823.35,284.7,823.05,285.3Zm4.2-.4a2,2,0,0,1-1.9.1c-.8-.3-.5-.6.6-.6S827.65,284.6,827.25,284.9Zm-75.1,3.8c8.4,2.4,24.2,3.7,44.2,3.6,20.5-.1,23.6.5,23,4.3-1,7.1-49.6,39-67.2,44.1-11.8,3.5-21,1.3-28-6.5-2.2-2.4-3.6-3.4-3.2-2.4s1,6.5,1.2,12l.3,10-1.3-8c-1.3-8.2-4.4-19-5.2-18.2-.3.2,0,1.5.5,2.8,3.6,9.5,3.1,26.3-.8,30.3-2.9,2.8-11.5,3.2-26.1,1.1-6.7-.9-12.3-1.5-12.5-1.3s7.2,2,16.6,3.8l17.2,3.4,12.1-1.8c16.7-2.4,30.7-6,37.5-9.6,5.9-3.1,19.6-13.9,18.8-14.7-.3-.2-2.6,1-5.2,2.6-5.1,3.2-18.5,9.1-20.7,9.1-.7,0,2.9-2.5,8.1-5.5,14.1-8.3,25.5-16.4,40.6-28.9,5.4-4.5,5.6-4.6,2.5-1.2a162.39,162.39,0,0,1-13,11.4c-13.3,10.5-14.2,11.7-4,4.9,4-2.7,3.6-2-4,6-4.7,4.9-9.9,10.6-11.7,12.6-6.1,6.8-21.1,12.2-42.3,15.2-12.5,1.7-20.1,1.9-26.9.4a18.2,18.2,0,0,0-8.7,0c-2.1.6-4,.8-4.3.6s1.1-.8,3-1.2l3.4-.7-3.5-.8c-3.5-.7-16.9,1.5-20,3.4-1.7,1-2.3,1.1,9.8-1.7,4-1,7.5-1.5,7.7-1.3s-3.2,1.3-7.7,2.4c-7.4,1.6-8,1.9-5.3,2.6,1.7.4-.3.5-4.5.3-10.8-.7-14.6-2-19.6-7-4.8-4.8-5.6-8.3-2.9-12.2,1.6-2.3,8.3-4.3,14.4-4.3,10.9,0,21.1-4.1,24-9.7l1.8-3.7,2.1,4c1.2,2.1,2.1,3.4,2.2,2.8,0-2-4-12.6-6.5-17.2-1.4-2.4-1.8-3.9-1-3.2,2.4,2,5.7,7.8,7.7,13.8l1.9,5.7-.6-5c-.6-5.4-4.1-17.2-5.8-19.3-.5-.7-.8-1.5-.5-1.8.9-.8,9.4,9.2,12.7,14.9s3.9,5.3,1.6-1.2-7.3-13-12.3-16.2c-2.5-1.6-3.9-2.9-3-2.9s3.7,1.5,6.4,3.2c5.3,3.7,9.4,10.5,12.5,21l1.9,6.3-.5-5.5c-.5-5-2.9-10.9-8.5-21-4.8-8.5-.6-15.1,12-19.1,8.5-2.7,2.3-2.2-7.4.6-13.6,4-20.7,7.9-30.9,17.4a191.76,191.76,0,0,1-18,14.2c-4.9,3.1-9.9,7.1-11.2,8.9-5.3,7.2-5.7,19.2-.8,28.2,3.3,6.1,7.2,9.3,13.4,10.8,4.5,1.1,6.4,1,52.9-2.6,13.4-1.1,6.9.4-9,2-39.1,4-46.3,4-51.8.3-8.5-5.6-13.3-22-9.9-33.8,1.9-6.5,4.5-9.3,13.4-15.2a193.58,193.58,0,0,0,16.3-12.6,84.42,84.42,0,0,1,19.5-13.1c11.3-5.6,18-7.5,34.5-10C738.05,287.1,745.85,286.9,752.15,288.7Zm-156.1,9.6c.9,8.1,1.5,8.8,6.2,6.1l3.8-2.1-3,2.5c-4.5,3.7-7.1,3.3-7.9-1.3-.6-3.8-.7-13.5-.1-11.7C595.25,292.3,595.65,295.3,596.05,298.3Zm62.9,7.2a4.67,4.67,0,0,1-3.2.7c-2.3,0-2.4-.2-.7-.8C657.55,304.4,659.55,304.4,659,305.5Zm-59.4,8.6c1.4,4.2,9,18.7,11.5,21.7,1,1.2.8.5-.4-1.9-3-5.3-2.1-5.5,1.5-.3a23.06,23.06,0,0,0,7.7,6.5c4.9,2.4,7.1,6.2,4.8,8.5-.8.8-.1,2.2,3,5.3,6.9,7,3.9,6.9-3.9-.2a93.58,93.58,0,0,1-19.6-24.5c-3.3-5.9-7.6-16.9-7.6-19.1S598.45,310.6,599.55,314.1Zm41.7.8a2,2,0,0,1-1.9.1c-.8-.3-.5-.6.6-.6S641.65,314.6,641.25,314.9Zm-2.7,1.8c0,.2-.9.6-2,.9s-2,.1-2-.4.9-.9,2-.9S638.55,316.5,638.55,316.7Zm-13.7,8.3a7.56,7.56,0,0,1-3,0c-1-.3-.4-.5,1.2-.5S625.45,324.7,624.85,325Zm12.4,25.1c.1,8.2,1.9,14.4,5.4,19.3,3.2,4.6,1.6,4.6-3,0s-6.9-11.2-7.1-20.1c-.2-7.8-.2-7.8,2.3-7.3C636.85,342.4,637.05,343,637.25,350.1ZM851,352.7c-12.4,20.4-37.2,42.8-55.7,50.3-23,9.4-45.3,10.4-72.8,3.4-12.9-3.3-19.7-6.1-28.4-11.6-6.9-4.5-18.7-15.4-17.9-16.6.3-.5,1.8-.9,3.3-.9,2.1,0,4.5,1.7,9.7,6.8a67.09,67.09,0,0,0,15.1,11c4.4,2.3,8.4,4.2,8.9,4.2s-3.3-2.5-8.2-5.6c-8-5-20-15.2-19-16.2.3-.2,3.3,2,6.8,5a99.59,99.59,0,0,0,22.6,15.2c7.1,3.6,23.9,9.7,26.3,9.5.8,0-.8-.8-3.6-1.8a42.38,42.38,0,0,1-7-3l-2-1.3,2,.7c9.4,3,14.6,3.7,25,3.2,9.4-.4,12.8-1.1,23.4-4.6a227.74,227.74,0,0,0,24-9.8c6.4-3.2,12.1-5.9,12.6-6.2.9-.3-7,6.1-12.6,10.2-5.4,4,6.1-3,13.5-8.2,9.1-6.4,25.4-22.1,27.6-26.6,1.9-3.9,11.4-17.4,11.9-17C856.65,343,854.15,347.5,851,352.7Zm-12.9,45.1c-1.9,11.4-5.9,25.9-8.1,29.2-1.6,2.6-10.7,8.9-17.9,12.6-8.9,4.5-16.1,6.1-28,6.1-13.4.1-19.1-1.2-31.5-7.4-11.8-5.9-26.7-11.5-34.2-12.9-10.9-2-18.2-7.2-31.8-22.5a196.6,196.6,0,0,0-16.9-17.1c-3.9-3.2-6.9-6.1-6.6-6.3,1.4-1.4,19.3,14.7,34.5,31.1a56.61,56.61,0,0,0,10.4,8.8c6.7,3.8,8.3,3.7,2.3-.1-5.1-3.2-12.3-10.2-15.9-15.3l-2.2-3.2,2.5,2c1.3,1,4.1,3.5,6.1,5.4s4,3.2,4.4,2.8,3.8,1.8,7.8,4.8c12.4,9.3,29.7,17.1,43.6,19.6,6.7,1.2,8.2,1.1,19.1-1.1,12.7-2.6,15.3-2.2,12.9,1.7-2.6,4-7.3,6.3-13.6,6.4-4.8.1-5.3.3-2.9.9,5,1.3,14.6,1.1,22-.5,7-1.5,22.8-8.6,27.5-12.5,1.4-1.1-.9-.2-5.1,2-12.8,6.8-23.9,9.8-23.9,6.6,0-3,11.3-15.3,19-20.6,5.3-3.6,11.1-9,9.7-9-.4,0-3,1.7-5.8,3.9-13.8,10.5-36.6,18.1-53.8,18.1-14.7-.1-30-6.2-39.1-15.6l-5.5-5.7,5.7,4.6A62.3,62.3,0,0,0,747,426.2c8.7,1.9,26.8,1.8,34.6-.2,11.1-2.9,24.2-10.1,32.3-17.9l7.2-6.9-6.5,5.1a92.83,92.83,0,0,1-27.9,15.3c-11.1,3.9-29.4,4.9-40.5,2.3-8.1-1.9-17-6.4-22.3-11.3l-3.8-3.5,3.5,2c7.9,4.5,17.7,9.1,20.5,9.7,2,.4,1.2-.3-2.4-2-3-1.4-5.2-2.7-5-2.9s4,.4,8.4,1.5a75.54,75.54,0,0,0,48.8-5,121,121,0,0,0,23.2-15c1.7-1.4.8-.2-2,2.7-6.4,6.9-12.9,11.6-22.4,16.5-4.2,2.1-6.5,3.5-5.1,3.2,3.9-1.1,13.5-6.1,19.5-10,7.8-5.2,21.4-19.9,25.4-27.5a72.87,72.87,0,0,1,5-8.4c1.5-1.7,1.6-1.3,1.9,6A105.46,105.46,0,0,1,838.05,397.8Zm-175.9-15.6c7.4,5.3,18.2,16.1,26.5,26.3,12.2,15,20.2,23.1,28.3,28.6,16.6,11.5,28.8,15.4,47.1,15.4,10.7-.1,15.7-.7,26-3.7,2.8-.7,7.3-1.9,10-2.6a65.73,65.73,0,0,0,20-8.9c2.6-1.8,4.8-3,5-2.8.8.8-5.1,12.7-10.2,20.5-7.9,12.1-13.7,16.4-27.3,20.1-19.3,5.3-41.3,6.8-55.9,3.7-9.8-2-21.6-6.8-28.1-11.3-13.2-9.2-24.2-28.9-28.4-50.7-2.5-13.3-2.8-15.7-1.8-15.1.5.3,1.2,3,1.6,5.9.9,7.8,5.3,24.3,8.2,30.6a90.85,90.85,0,0,0,15.3,22.4c7.5,7.8,21.6,14.8,32.8,16.2,4.4.5,4.1.3-3.3-2.3-9-3.2-20-8.9-25.2-13.2-3.4-2.8-10.5-11.7-12.3-15.4-.6-1.2,0-.8,1.2.9,4.2,5.7,15.4,16.1,20.1,18.7,5.7,3.2,15.2,6.8,17.6,6.8.9-.1-1.2-1.2-4.7-2.5-11.6-4.5-23.5-13.9-31.7-24.9-1.7-2.3.7-.4,5.6,4.5,8.3,8.2,15.7,13.1,26,17.2l4.5,1.7-4-3.2c-15.8-13.1-24.1-22.1-28.2-30.8a100.13,100.13,0,0,0-8.1-13c-3.1-4.1-6.6-9.1-8-11l-2.4-3.5,2.8,3.1c1.6,1.7,7.6,8.3,13.3,14.7s10.6,11.7,10.8,11.7c1.1,0-19.5-24.5-33.7-40-14.7-16.1-15.5-17-14.3-17C657.75,379.3,660.05,380.6,662.15,382.2Zm57.2,52.3c8.1,5.3,10.8,6.8,6.7,3.6-1.6-1.2-4.8-4-7-6l-4-3.8,8.5,3.1c4.7,1.7,10.1,3.7,12.1,4.4s8.5,3.7,14.5,6.6l10.9,5.3-4,.7c-2.3.5,2.3.6,11,.4,15.5-.3,14.4.9-1.5,1.7-20.8,1.1-41.2-7-57.6-22.8-4.7-4.5-5.2-5.2-1.6-2.1A133.6,133.6,0,0,0,719.35,434.5Z" transform="translate(-15.57 -35.67)"/><path d="M782.55,77.7a5.73,5.73,0,0,0,1.8,1.7c1.5,1.3,1.6,1.2.3-.4S782.55,76.9,782.55,77.7Z" transform="translate(-15.57 -35.67)"/><path d="M804.25,91.3c3.3,4.1,7.1,9.5,8.3,12,5.8,11.5,13.6,36,19.5,61.6,3.5,14.9,3.8,13.3.9-4.6a266.6,266.6,0,0,0-10.3-40c-1.6-4.6-2.9-8.6-2.7-8.7s3.3,5.1,7,11.7,6.9,12,7.2,12c.5,0-3.1-6.7-10.7-20.3a64.13,64.13,0,0,1-3.9-7.4c0-1.2-9.5-12.4-15.1-17.8l-6.2-6Z" transform="translate(-15.57 -35.67)"/><path d="M835.15,137.6c.3,1,.9,1.5,1.2,1.2s0-1.1-.7-1.8C834.65,136.1,834.55,136.2,835.15,137.6Z" transform="translate(-15.57 -35.67)"/><path d="M855.65,188.3c0,.8.6,6.4,1.3,12.5s1.8,15.9,2.2,22,1,11.7,1.5,12.5c.8,1.6.7-.9-1.2-21.5C858.45,202.1,856,185.3,855.65,188.3Z" transform="translate(-15.57 -35.67)"/><path d="M860.85,243.8c0,3.3.2,4.5.4,2.7a30,30,0,0,0,0-6C861.05,239,860.85,240.5,860.85,243.8Z" transform="translate(-15.57 -35.67)"/><path d="M858.65,285.9c0,1.1.3,1.4.6.6a2,2,0,0,0-.1-1.9C858.85,284.2,858.55,284.8,858.65,285.9Z" transform="translate(-15.57 -35.67)"/><path d="M702.05,78c1.1.3,4,1.1,6.4,1.9s4,.9,3.5.5c-1.4-1.3-7.5-3.1-9.8-3C700.15,77.5,700.15,77.6,702.05,78Z" transform="translate(-15.57 -35.67)"/><path d="M767,91.7c0,1.5.6,2.3,1.6,2.2.8-.1,1.4.4,1.3,1.1s.6,1.7,1.6,2.3c1.5.8,1.9.7,1.7-.6a3.94,3.94,0,0,0-1.7-2.5c-1.2-.7-1.2-.9.1-.9s1.3-.2.1-.9a3.33,3.33,0,0,0-2.9-.3c-1,.3-1.3.1-.8-.6.3-.6.3-1.3-.2-1.6S767,90.5,767,91.7Z" transform="translate(-15.57 -35.67)"/><path d="M684.05,85c-7.3.4-28.8,4-37.5,6.3s-7.4,2.2,17-.9c8-1.1,20.4-2.3,27.5-2.7,8.1-.4,12-1,10.4-1.4C697.85,85.3,690,84.7,684.05,85Z" transform="translate(-15.57 -35.67)"/><path d="M636.35,94a2,2,0,0,0,1.9-.1c.4-.3-.2-.6-1.3-.5S635.55,93.7,636.35,94Z" transform="translate(-15.57 -35.67)"/><path d="M643.55,105.1a69.89,69.89,0,0,1,3.5,9.5c1.3,4.8,1.4,4.9,1.4,1.7.1-3.6-2.5-10-5.3-13.5C642,101.4,642.05,102,643.55,105.1Z" transform="translate(-15.57 -35.67)"/><path d="M605.25,111.9a91.26,91.26,0,0,1,4.7,8.4c1.4,3,2.4,4.4,2,3-.9-4.1-5.8-13.3-7.3-13.8C603.65,109.2,603.85,109.9,605.25,111.9Z" transform="translate(-15.57 -35.67)"/><path d="M775.35,116a2,2,0,0,0,1.9-.1c.4-.3-.2-.6-1.3-.5S774.55,115.7,775.35,116Z" transform="translate(-15.57 -35.67)"/><path d="M779.35,117a5.28,5.28,0,0,0,2.5,0c.6-.3.1-.5-1.3-.5S778.65,116.7,779.35,117Z" transform="translate(-15.57 -35.67)"/><path d="M743.35,121a53.39,53.39,0,0,0,8,0c2-.2.1-.4-4.3-.4S741,120.8,743.35,121Z" transform="translate(-15.57 -35.67)"/><path d="M719.35,127a5.28,5.28,0,0,0,2.5,0c.6-.3.1-.5-1.3-.5S718.65,126.7,719.35,127Z" transform="translate(-15.57 -35.67)"/><path d="M792.05,155.2a1.23,1.23,0,0,1-1.6.6,1.83,1.83,0,0,0-2.1.2,6.49,6.49,0,0,1-2.7.8,2.14,2.14,0,0,0-1.9,1.5c-.5,1.3-.3,1.3,1.4,0,1.9-1.4,1.9-1.4,0,.8s-3.2,3-2.2,1.4a2.88,2.88,0,0,0-.5-2.2c-.8-1.2-.9-1.1-.7.5.2,1.4-.2,2-1.5,1.8-1,0-1.6.2-1.3.5s0,1.2-.6,2.1c-1,1.3-1,1.4.2.3,2.1-1.8,3.4-1.5,1.9.5-1.1,1.5-1.1,1.6.1.5,2.4-2.1,3.4-1.3,1.4,1-2.7,3.1,5.3-3.2,9-7.1,1.6-1.7,2.7-3.3,2.4-3.7S792.45,154.7,792.05,155.2Zm-1.5,1.4a32.84,32.84,0,0,1-3.7,3.8l-3.8,3.4,3.4-3.8C789.75,156.6,790.55,155.8,790.55,156.6Z" transform="translate(-15.57 -35.67)"/><path d="M775.55,172.9a187.48,187.48,0,0,1-16.5,9.1c-10.8,5.3-11,5.9-.9,2.2a93.25,93.25,0,0,0,20.5-12.1C783.25,168.3,782.15,168.6,775.55,172.9Z" transform="translate(-15.57 -35.67)"/><path d="M775.45,203.6c.5.5,2.8.7,5.2.5l4.4-.3-5.2-.5C777,203,775.05,203.2,775.45,203.6Z" transform="translate(-15.57 -35.67)"/><path d="M541,158.2a37,37,0,0,0-11.4,13.2c-3,5.7-2.5,6.2,2.5,2.5,5-3.9,8-5,20.3-7.7l8.7-1.9-10,.5a115.64,115.64,0,0,0-12.5,1c-1.8.4-1.5.1,1-1.2a55.9,55.9,0,0,1,10.5-2.9l7-1.2-7.9-.1-7.9-.1,2.3-2.5C546.65,154.5,545.75,154.6,541,158.2Z" transform="translate(-15.57 -35.67)"/><path d="M557.25,184.6a36.92,36.92,0,0,1-5.7,8.7l-4,4.5,3.5-5.9c4.7-8,4.4-9.2-.5-2.4s-12.4,12.2-16.1,11.4l-2.7-.5,1.8,3.7a36.7,36.7,0,0,1,2.5,7.5l.7,3.7,2.8-3.9c5.4-7.4,9.4-8.8,13.5-4.6,3,2.9,3.3,1.8.4-1.9-1.1-1.4-3-2.6-4.2-2.6-2,0-2-.1.5-2.8a44.16,44.16,0,0,0,8.7-14.5C560.25,179.7,559.45,179.5,557.25,184.6Z" transform="translate(-15.57 -35.67)"/><path d="M570.65,197.9c0,1.1.3,1.4.6.6a2,2,0,0,0-.1-1.9C570.85,196.2,570.55,196.8,570.65,197.9Z" transform="translate(-15.57 -35.67)"/><path d="M629.05,185.3c.4.7,2.3,5.9,4.2,11.4,2.3,6.9,3.2,8.7,2.8,5.8-.6-4.9-5.2-16.9-6.8-17.9C628.65,184.2,628.55,184.5,629.05,185.3Z" transform="translate(-15.57 -35.67)"/><path d="M703.55,194.8c-1.4.8-2,1.4-1.4,1.5a8.14,8.14,0,0,0,3-1.5C707.55,193,706.75,192.9,703.55,194.8Z" transform="translate(-15.57 -35.67)"/><path d="M710.65,195.7a6,6,0,0,0-2.7,2.9c-.2,1.3.2,1.4,2.3.4,1.4-.6,2-1.3,1.4-1.5q-1.2-.45.6-1.8C714.55,194,713.75,194,710.65,195.7Z" transform="translate(-15.57 -35.67)"/><path d="M703,197.9c-1.8,1.4-1.8,1.5.4.4a6.12,6.12,0,0,0,2.2-1.5C705.55,196,705.05,196.2,703,197.9Z" transform="translate(-15.57 -35.67)"/><path d="M810.05,218.3a9.38,9.38,0,0,0-1.3,3.1q3.6.9,4.5-.3c.3-.7.1-.8-.5-.4s-1.2.3-1.2-.2c0-1.7,1.3-2.2,2.8-.9,1.1.9,1.1.4-.2-1.6a10.84,10.84,0,0,0-2.2-2.7A11.36,11.36,0,0,0,810.05,218.3Z" transform="translate(-15.57 -35.67)"/><path d="M762.45,264c-1.3,1.6-1.2,1.7.4.4a6.23,6.23,0,0,0,1.7-1.7C764.55,261.9,763.75,262.4,762.45,264Z" transform="translate(-15.57 -35.67)"/><path d="M551.25,224c.5,8.2.3,9.6-2.2,15.8a42.57,42.57,0,0,0-3.1,14.9l-.3,8.1.9-6.7c1-8,2.5-13.1,5.2-17.6,1.9-3.1,1.9-3.9.9-12.9-.7-5.4-1.3-9.9-1.6-10.1S551,219.1,551.25,224Z" transform="translate(-15.57 -35.67)"/><path d="M693.05,218.9c-1.1.2-6.3,1.4-11.5,2.5s-9.7,2.3-9.9,2.5,1.5,2.4,3.8,4.9c4.5,4.9,5.2,4.8,2-.4-1.1-1.8-1.9-3.5-1.7-3.7a53.25,53.25,0,0,1,6.3-2c4.1-1.2,12-1.9,25-2.4,10.5-.3,17.2-.7,15-.8C707,218.7,694.75,218.5,693.05,218.9Z" transform="translate(-15.57 -35.67)"/><path d="M675.25,234.8a98.52,98.52,0,0,1,6.5,13c1.9,4.6,2.7,5.8,2.3,3.5-1-5.1-5.8-15-9.4-19C671.55,228.9,671.55,228.9,675.25,234.8Z" transform="translate(-15.57 -35.67)"/><path d="M672.85,255.3c.2.8,1,4.2,1.7,7.5s1.7,6.4,2.3,7,.7.3.4-1c-.3-1.1-.8-3.8-1.2-6a21.59,21.59,0,0,0-2.1-6.5C673.05,254.9,672.65,254.5,672.85,255.3Z" transform="translate(-15.57 -35.67)"/><path d="M618.55,321.3c-1.3.8-1.2,1,.3,1,.9,0,1.7-.5,1.7-1C620.55,320.1,620.45,320.1,618.55,321.3Z" transform="translate(-15.57 -35.67)"/><path d="M807.35,272.8c-.3.3-6.3,1-13.4,1.5l-12.9.9,12.5-.4c6.9-.2,13.9-.8,15.5-1.3,2.3-.8,2.5-1,.9-1.1A4.37,4.37,0,0,0,807.35,272.8Z" transform="translate(-15.57 -35.67)"/><path d="M791.85,278a75.28,75.28,0,0,0,9.5,0c2.6-.2.4-.3-4.8-.3S789.15,277.8,791.85,278Z" transform="translate(-15.57 -35.67)"/><path d="M773.55,278.7c.3.3,3.8.9,7.8,1.4s6.9.5,6.5.1C787,279.4,772.75,277.8,773.55,278.7Z" transform="translate(-15.57 -35.67)"/><path d="M698.15,332.3c.3,1.9,1.2,7.1,1.9,11.5l1.3,8v-6a37.35,37.35,0,0,0-1.8-11.5C698.15,330.4,697.75,329.8,698.15,332.3Z" transform="translate(-15.57 -35.67)"/><path d="M672.35,360a5.28,5.28,0,0,0,2.5,0c.6-.3.1-.5-1.3-.5S671.65,359.7,672.35,360Z" transform="translate(-15.57 -35.67)"/><path d="M674.35,363a2,2,0,0,0,1.9-.1c.4-.3-.2-.6-1.3-.5S673.55,362.7,674.35,363Z" transform="translate(-15.57 -35.67)"/><path d="M678.35,364a5.28,5.28,0,0,0,2.5,0c.6-.3.1-.5-1.3-.5S677.65,363.7,678.35,364Z" transform="translate(-15.57 -35.67)"/><path d="M674.35,365a2,2,0,0,0,1.9-.1c.4-.3-.2-.6-1.3-.5S673.55,364.7,674.35,365Z" transform="translate(-15.57 -35.67)"/><path d="M683.35,365a2,2,0,0,0,1.9-.1c.4-.3-.2-.6-1.3-.5S682.55,364.7,683.35,365Z" transform="translate(-15.57 -35.67)"/><path d="M678.35,366a2,2,0,0,0,1.9-.1c.4-.3-.2-.6-1.3-.5S677.55,365.7,678.35,366Z" transform="translate(-15.57 -35.67)"/><path d="M674.35,367a2,2,0,0,0,1.9-.1c.4-.3-.2-.6-1.3-.5S673.55,366.7,674.35,367Z" transform="translate(-15.57 -35.67)"/><path d="M670.35,368a2,2,0,0,0,1.9-.1c.4-.3-.2-.6-1.3-.5S669.55,367.7,670.35,368Z" transform="translate(-15.57 -35.67)"/><path d="M795.55,398.8c-1.4.8-2,1.4-1.4,1.5a8.14,8.14,0,0,0,3-1.5C799.55,397,798.75,396.9,795.55,398.8Z" transform="translate(-15.57 -35.67)"/><path d="M834.15,399.4c-3.1,15.6-3,20,.3,6.2,2-8.8,3.7-20.3,3-20.3C837.25,385.3,835.75,391.6,834.15,399.4Z" transform="translate(-15.57 -35.67)"/><path d="M705.55,437.7a5.73,5.73,0,0,0,1.8,1.7c1.5,1.3,1.6,1.2.3-.4S705.55,436.9,705.55,437.7Z" transform="translate(-15.57 -35.67)"/><path d="M718.55,442.3c6.5,6.1,18.9,12.3,27.5,14,3.3.6,7.1,1.4,8.5,1.7l2.5.6-2.5.7c-6,1.9-18.2.4-28.5-3.4-2-.8-2-.8,0,.8,3.3,2.7,16.7,6.4,25.6,7.1a78,78,0,0,1,13.9,2.2c5.4,1.5,11,4.7,11,6.2,0,.8-3.7,2-12.5,4.1-3.4.8-3.1.8,2.3.4,9.8-.9,27-5.1,31.6-7.8a39.75,39.75,0,0,0,7.6-6.2l3.5-3.7-4,3.1c-10,7.8-19.7,9.3-32.2,5.1l-6.8-2.4,7.5-.6c13.4-1.2,17.1-1.9,22.9-4.8,4.9-2.5,15.8-11.8,14.8-12.7-.1-.2-4.3.8-9.2,2.2-14.6,4-25.2,5.5-38.2,5.5-18.4,0-31.4-3.9-45.8-13.8l-5-3.4Z" transform="translate(-15.57 -35.67)"/><path d="M720.55,453.7c0,.2.7.7,1.6,1s1.2.2.9-.4C722.45,453.3,720.55,452.9,720.55,453.7Z" transform="translate(-15.57 -35.67)"/><path d="M754.85,478a7.56,7.56,0,0,0,3,0c.6-.3-.1-.5-1.8-.5S753.85,477.7,754.85,478Z" transform="translate(-15.57 -35.67)"/><image width="3807" height="3005" transform="translate(230.87) scale(0.09)" xlink:href="../logoclassic.png"/><text class="cls-2" transform="translate(238.92 512.81)">BRG</text></svg>