<?xml version="1.0" encoding="utf-8"?>
<!-- Generator: Adobe Illustrator 25.2.1, SVG Export Plug-In . SVG Version: 6.00 Build 0)  -->
<svg version="1.1" id="Calque_1" xmlns="http://www.w3.org/2000/svg" xmlns:xlink="http://www.w3.org/1999/xlink" x="0px" y="0px"
	 viewBox="0 0 33.4 34.7" style="enable-background:new 0 0 33.4 34.7;" xml:space="preserve">
<style type="text/css">
	.st0{fill:url(#SVGID_1_);}
	.st1{fill:#FFFFFF;}
</style>
<g>
	<linearGradient id="SVGID_1_" gradientUnits="userSpaceOnUse" x1="27.0637" y1="7.0233" x2="6.3859" y2="27.7011">
		<stop  offset="1.104800e-03" style="stop-color:#FFE185"/>
		<stop  offset="0.2094" style="stop-color:#FFBB36"/>
		<stop  offset="0.3765" style="stop-color:#FF5176"/>
		<stop  offset="0.5238" style="stop-color:#F63395"/>
		<stop  offset="0.7394" style="stop-color:#A436D2"/>
		<stop  offset="1" style="stop-color:#5F4EED"/>
	</linearGradient>
	<circle class="st0" cx="16.7" cy="17.4" r="14.6"/>
	<g>
		<g>
			<path class="st1" d="M21.3,11.8c-0.6,0-1,0.4-1,1c0,0.6,0.5,1,1,1c0.6,0,1-0.4,1-1C22.3,12.3,21.8,11.8,21.3,11.8z"/>
			<path class="st1" d="M16.8,13.1c-2.3,0-4.2,1.9-4.2,4.2c0,2.3,1.9,4.2,4.2,4.2c2.3,0,4.2-1.9,4.2-4.2C21,15,19.1,13.1,16.8,13.1z
				 M16.8,20c-1.5,0-2.7-1.2-2.7-2.7s1.2-2.7,2.7-2.7c1.5,0,2.7,1.2,2.7,2.7S18.3,20,16.8,20z"/>
			<path class="st1" d="M20.1,25.9h-6.8c-2.8,0-5.1-2.3-5.1-5.1v-6.8c0-2.8,2.3-5.1,5.1-5.1h6.8c2.8,0,5.1,2.3,5.1,5.1v6.8
				C25.3,23.6,23,25.9,20.1,25.9z M13.3,10.4c-2,0-3.5,1.6-3.5,3.5v6.8c0,2,1.6,3.5,3.5,3.5h6.8c2,0,3.5-1.6,3.5-3.5v-6.8
				c0-2-1.6-3.5-3.5-3.5H13.3z"/>
		</g>
	</g>
</g>
</svg>
