<?xml version="1.0" encoding="utf-8"?>
<!-- Generator: Adobe Illustrator 25.2.1, SVG Export Plug-In . SVG Version: 6.00 Build 0)  -->
<svg version="1.1" id="Calque_1" xmlns="http://www.w3.org/2000/svg" xmlns:xlink="http://www.w3.org/1999/xlink" x="0px" y="0px"
	 viewBox="0 0 403.4 419.4" style="enable-background:new 0 0 403.4 419.4;" xml:space="preserve">
<style type="text/css">
	.st0{fill:#454545;}
	.st1{fill:#656565;}
	.st2{fill:#515151;}
	.st3{fill:#449EFF;}
	.st4{fill:#FF0000;}
</style>
<path class="st0" d="M135.1,400.9c0.8-0.1,1.7-0.3,2.3,0.7c-0.7,0-1.5,0-2.2,0c-0.2-0.1-0.3-0.3-0.3-0.4
	C134.9,401,135,400.9,135.1,400.9z"/>
<path class="st0" d="M266,401.6c0.5-1,1.4-0.7,2.3-0.7c0.2,0.2,0.3,0.3,0.2,0.5c-0.1,0.1-0.2,0.2-0.2,0.2
	C267.5,401.6,266.8,401.6,266,401.6z"/>
<path class="st1" d="M135.1,400.9c0,0.2,0,0.5,0,0.7c-0.5,0-1,0-1.5,0C133.8,400.7,134.4,400.9,135.1,400.9z"/>
<path class="st1" d="M268.3,401.6c0-0.2,0-0.5,0-0.7c0.6-0.1,1.3-0.2,1.5,0.7C269.3,401.6,268.8,401.6,268.3,401.6z"/>
<path class="st2" d="M-171.3,246.4c-7.9-22.3-17.4-44.1-27.4-65.4c-9.2-19.4-24.2-33-44.1-39.5c-7.5-2.4-11.2-6.3-13.6-13.7
	c-3.9-12.4-9.8-24.2-13-36.7c-2.4-9.3-7.4-12.8-15.5-13.9c-11.7-1.6-23,1-34.2,3.9c-2.4,0.6-3.4,0.1-4.4-2.1
	c-9.6-20.1-19.3-40.2-28.9-60.2c-0.3-0.7-1.4-1.4-0.4-2.5c6.9,4.8,13.7,9.6,20.6,14.3c7.6,5.2,15.9,7.1,24.8,4.8
	c13.2-3.4,21.6-12.4,23.9-26.3c2.3-14.2-1.5-26.7-13.7-34.9c-11.7-7.9-23.8-7.4-35.4,0.6c-6,4.1-12,8.3-18,12.5
	c-1.6,1.1-2.6,1.4-4.3-0.1c-7.8-6.7-17.3-6.7-25.2,0c-1.8,1.5-2.8,1.1-4.3,0c-5.8-4.2-11.7-8.2-17.7-12.3
	c-12.3-8.5-26.4-8.3-37.4,0.4c-11,8.7-15.5,24.1-11,38.2c6.4,20.7,29.6,29.2,47.4,17.3c7.1-4.7,14-9.7,21.3-14.7
	c0,0.8,0.1,1.1,0,1.3c-10,20.8-20.1,41.6-30,62.4c-1,2-2,1.9-3.7,1.4c-10.1-2.7-20.2-4.8-30.7-4.4c-11.9,0.4-15.7,3.4-19.2,14.8
	c-0.2,0.5-0.4,1-0.5,1.5c-5.2,14.1-10.5,28.2-15.6,42.3c-0.7,2-1.7,3.2-3.9,3.8c-25.1,7-43,22.9-53.6,47.6
	c-7.5,17.5-14.8,35.1-22.2,52.7c-2.6,6.3-4.6,12.7-6,19.4c-0.6,2.6-0.4,5.3-1.8,7.7c0,5.7,0,11.5,0,17.2c1.2,1.3,0.9,2.7,0.7,4.2
	c3.9,32.2,19.4,56.7,46.5,72.4c19.9,11.5,41,20.5,63.7,24.6c5.1,0.9,10.3,0.8,15.2,2.7c1.3,0,2.6,0,3.9,0c0.5-0.6,1.1-0.4,1.7-0.4
	c0.7,0.1,1.6-0.2,2.2,0.4c4.5,0,8.9,0,13.4,0c4.3-1.4,8.8-1.9,13-3.6c26.3-10.5,40.5-40.1,32.5-68.1c-0.8-2.6-0.5-4.1,1.6-5.8
	c2.7-2.2,5-5.1,7.4-7.6c2.3,2.6,4.5,5.3,7,7.7c1.5,1.5,2.6,2.3,1.8,5c-9.3,32.8,9.5,64.9,41.8,71.6c0.7,0.2,1.6-0.1,2,0.9
	c5,0,10,0,15,0c0.6-0.7,1.5-0.3,2.2-0.4c0.6,0,1.2-0.1,1.7,0.4c0.8,0,1.6,0,2.4,0c0.3-1.1,1.2-0.7,1.9-0.8c4.9-0.7,9.9-1.2,14.8-2
	c22.5-3.8,43.2-13.1,63.1-24.1C-174.4,339.1-156,289.9-171.3,246.4z M-345.9-0.2c6.9-4.7,13.7-9.5,20.7-14.2
	c6.2-4.2,12.8-4.8,19.4-1.2c6.8,3.7,9.7,10,9.8,17.6c-0.1,8-3,14.3-9.7,18.1c-6.6,3.8-13.1,3.2-19.3-1c-7-4.7-13.9-9.8-21-14.5
	C-349,2.8-348.3,1.5-345.9-0.2z M-389.3,4.8c-6.9,4.6-13.7,9.5-20.6,14.2c-6.3,4.3-12.9,5-19.6,1.2c-6.7-3.8-9.6-10.1-9.7-17.5
	c0.1-8.2,3-14.5,9.7-18.3c6.7-3.8,13.4-3.1,19.7,1.2c6.9,4.7,13.7,9.5,20.6,14.2C-386.7,1.7-386.5,2.9-389.3,4.8z M-271.8,129.1
	c1.5-0.8,2.1-0.3,2.5,1.1c0.1,0.3,0.1,0.5,0.2,0.8c4.6,11.6,4.7,11.7-5.5,18.4c-9,5.9-18.5,10.7-28.5,14.4c-2.7,1-4,0.7-4.6-2.3
	c-0.4-2.1-1.1-4.2-1.5-5.8c0.3-4.5,1.7-7.8,5.2-9.7C-293.3,140.3-282.5,134.8-271.8,129.1z M-278.2,106.1c3.8,9.4,3.8,9.4-4.9,13.8
	c-8.2,4.2-16.4,8.5-24.6,12.8c-12.6,6.6-17.2,17.8-12.6,31.6c1.3,3.9,0.1,4.4-3.1,5c-5.8,0.9-11.7,1.6-17.6,2
	c-1.4,0.1-2.5,0.3-3.1-1.6c-3.8-12.1-7.8-24.3-11.7-36.4c-0.2-0.8-0.3-1.6-0.5-2.4c30.9-1.8,53.4-9.3,77.3-25.7
	C-278.5,105.7-278.3,105.9-278.2,106.1z M-284.5,91.3c-8.8,13.3-59.1,30.4-75.2,25.1C-352.4,104.3-303,86.1-284.5,91.3z M-367.8-4.4
	c3.6-0.1,6.5,2.8,6.6,6.5c0.1,3.8-2.7,6.8-6.2,6.9c-3.6,0.1-6.5-2.8-6.6-6.5C-374.1-1.2-371.4-4.3-367.8-4.4z M-399.3,83.1
	c9.4-19.3,18.7-38.7,27.9-58c0.9-1.8,1.9-2.5,3.9-2.5c2,0,2.7,0.9,3.5,2.5c9.3,19.4,18.6,38.7,27.9,58c0.3,0.7,0.7,1.5,1,2.2
	c-0.1,1.7-1.7,1.5-2.6,1.9c-8.4,3.5-16.6,7.3-24.1,12.7c-2,1.4-4,4-6,4.1c-1.8,0.1-3.7-2.7-5.6-4.1c-7.5-5.4-15.6-9.4-24.1-12.6
	C-399.9,86.4-400.5,85.6-399.3,83.1z M-375.6,116.4c-16.4,5.2-66.8-12.1-75.2-25.2C-431.9,86.1-382.5,104.6-375.6,116.4z
	 M-459.5,112.5c1.1-2.3,1.5-6,3.1-6.7c1.8-0.8,3.9,2.4,6,3.7c21.7,12.8,44.8,21.1,70.1,21.3c0.4,0,0.7,0.1,1.4,0.2
	c-3.7,11.7-7.7,23.2-11,34.9c-1.3,4.6-3.1,5.9-7.6,5.2c-5.2-0.8-10.4-1.3-15.6-2.1c-2.2-0.3-3-0.9-2.1-3.6
	c4.9-15.8,0.6-26.1-13.8-33.5c-9.6-5-19.2-10.1-28.8-14.9C-460.2,115.9-460.6,114.8-459.5,112.5z M-469.8,140.2
	c1.3-3.3,2.6-6.6,3.7-9.9c0.6-1.8,1.3-1.8,2.8-1.1c10.5,5.5,21.1,11,31.6,16.5c3.6,1.9,5.3,5.2,5.6,9.4c-0.2,2.9-1.3,5.7-2.2,8.5
	c-0.5,1.7-1.7,0.8-2.6,0.5c-13.6-4.8-26.2-11.6-37.7-20.6C-470,142.6-470.4,141.7-469.8,140.2z M-374.2,279.5
	c-0.2,14.6-10.4,25.9-24,27.2c-12.7,1.2-24.6-7.9-27.5-21.3c-1.2-5.5-0.7-11.2-0.5-16.7c0.3-10.5-0.8-20.6-6-30
	c-1.1-1.9-1.7-2.6-3.7-1.4c-2.8,1.7-6.9,2.4-8.3,4.9c-1.4,2.4,2.1,5.6,3.2,8.6c2.2,5.9,1.6,12.1,1.7,18.2c0,1.6-1.2,2-2.1,2.7
	c-6.1,4.9-13.1,7.5-20.7,7.9c-2.9,0.1-3.6,1.1-3.2,3.8c0.1,0.9,0,1.9,0,2.9c0,7.3,0,7.4,7.2,6.6c6.7-0.8,13-3,19.2-6.6
	c4.2,17.9,14.2,29.2,31.4,33.2c4.9,1.1,10,1.3,14.8-0.1c3.3-0.9,4,0.5,4.6,3.3c5.6,27.4-14.2,52-41.5,51.7
	c-23.1-0.3-45.2-5.5-66.2-15.6c-5.9-2.8-11.9-5.6-17.7-8.7c-36.3-19.3-52.3-64-36.7-103.2c7.6-19.1,15.6-38,23.9-56.8
	c8.6-19.4,23.3-31.8,43.1-37.6c2.2-0.7,3.8-0.4,5.8,1.1c25.1,19.7,53.4,30.3,84.9,31.2c2.1,0.1,3.3,0.8,4.6,2.4
	c8.9,11.3,13.7,24.2,13.9,38.7C-373.9,243.7-373.9,261.6-374.2,279.5z M-367.6,195.5c-3.5-6.8-7-12.9-11.5-18.2
	c-0.6-0.7-0.4-1.5-0.2-2.3c3.8-11.7,7.5-23.3,11.7-36.2c4.1,12.8,7.8,24.3,11.6,35.8c0.3,1.1,0.4,2-0.4,3
	C-360.9,182.9-364.4,188.7-367.6,195.5z M-220.8,349.5c-18.7,10.1-38,18.9-59.2,22.3c-12.2,2-24.5,4-36.8,1.2
	c-21.8-5-35.6-28.4-30.3-51c0.4-1.8,0.6-3.5,3.4-3c23.1,4.1,40.8-7.9,46.8-31.5c0.1-0.4,0.2-0.8,0.4-1.3c7.3,4,15,6.5,23.3,6.8
	c2.7,0.1,3.4-0.7,3.2-3.4c-0.2-3.1,0.9-6.9-0.4-9.2c-1.3-2.2-5.3-0.9-8-1.6c-0.6-0.2-1.3-0.3-1.9-0.5c-17.9-5.7-18.2-9.6-13.5-28.5
	c0.7-2.7,3.9-5.5,2.9-7.6c-1.1-2.2-4.9-2.8-7.2-4.5c-3-2.2-4.2-1.1-5.6,2c-3.7,7.6-5.5,15.5-5.3,24c0.1,5.3,0.1,10.6,0,16
	c-0.4,14.9-11.4,26.6-25.4,26.9c-14,0.3-26.1-10.8-26.4-25.7c-0.4-20.4-1.1-40.9,0.4-61.4c0.9-12.5,6.1-23.3,13.6-32.9
	c1.1-1.4,2.3-1.9,4-2c31.8-1,60.3-11.5,85.5-31.6c1.7-1.3,3.2-1.4,5.1-0.8c18.5,5.3,33.1,16.3,41.6,34.2
	c10.1,21.2,19.6,42.8,27.3,65C-170.4,289.1-186.7,331.1-220.8,349.5z"/>
<path class="st3" d="M191.1,210.3c-2.2,1.9-4.5,3.6-6.8,5c-1.4,0.8-2.7,1.7-4.1,2.6c0.3,0.3,0.6,0.6,0.9,1
	c8.9,11.3,13.7,24.2,13.9,38.7c0.3,17.9,0.2,35.8,0,53.6c-0.2,14.6-10.4,25.9-24,27.2c-12.7,1.2-24.6-7.9-27.5-21.3
	c-1.2-5.5-0.7-11.2-0.5-16.7c0.3-10.5-0.8-20.6-6-30c-1.1-1.9-1.7-2.6-3.7-1.4c-2.8,1.7-6.9,2.4-8.3,4.9c-1.4,2.4,2.1,5.6,3.2,8.6
	c2.2,5.9,1.6,12.1,1.7,18.2c0,1.6-1.2,2-2.1,2.7c-6.1,4.9-13.1,7.5-20.7,7.9c-2.9,0.1-3.6,1.1-3.2,3.8c0.1,0.9,0,1.9,0,2.9
	c0,7.3,0,7.4,7.2,6.6c6.7-0.8,13-3,19.2-6.6c4.2,17.9,14.2,29.2,31.4,33.2c4.9,1.1,10,1.3,14.8-0.1c3.3-0.9,4,0.5,4.6,3.3
	c5.6,27.4-14.2,52-41.5,51.7c-23.1-0.3-45.2-5.5-66.2-15.6c-5.9-2.8-11.9-5.6-17.7-8.7c-36.3-19.3-52.3-64-36.7-103.2
	c7.6-19.1,15.6-38,23.9-56.8c8.6-19.4,23.3-31.8,43.1-37.6c1.2-0.3,2.2-0.4,3.2-0.2c-0.9-2.6-1.7-5.3-2.2-8.2
	c-0.4-2-0.9-3.8-1.5-5.7c-0.5,0.4-1.1,0.7-1.9,0.9c-25.1,7-43,22.9-53.6,47.6c-7.5,17.5-14.8,35.1-22.2,52.7
	C5,277.5,3,284,1.6,290.7c-0.6,2.6-0.4,5.3-1.8,7.7v17.2c1.2,1.3,0.9,2.7,0.7,4.2c3.9,32.2,19.4,56.7,46.5,72.4
	c19.9,11.5,41,20.5,63.7,24.6c5.1,0.9,10.3,0.8,15.2,2.7h3.9c0.5-0.6,1.1-0.4,1.7-0.4c0.7,0.1,1.6-0.2,2.2,0.4h13.4
	c4.3-1.4,8.8-1.9,13-3.6c26.3-10.5,40.5-40.1,32.5-68.1c-0.8-2.6-0.5-4.1,1.6-5.8c2.7-2.2,4.9-5,7.3-7.6V227c0,0.1-0.1,0.1-0.1,0.2
	C198.4,221,195.2,215.3,191.1,210.3z"/>
<path class="st4" d="M403.5,298c-1.4-2.4-1.2-5.1-1.8-7.7c-1.4-6.7-3.4-13.1-6-19.4c-7.4-17.6-14.7-35.2-22.2-52.7
	c-10.6-24.7-28.5-40.6-53.6-47.6c-1-0.3-1.8-0.7-2.4-1.2c-0.8,4.5-1.9,8.9-3.3,13.3c-0.1,0.4-0.2,0.7-0.4,1c1.1-0.3,2.2-0.3,3.5,0.1
	c19.8,5.8,34.5,18.2,43.1,37.6c8.3,18.8,16.3,37.7,23.9,56.8c15.6,39.2-0.4,83.9-36.7,103.2c-5.8,3.1-11.8,5.9-17.7,8.7
	c-21,10.1-43.1,15.2-66.2,15.6c-27.4,0.4-47.1-24.2-41.5-51.7c0.6-2.8,1.3-4.2,4.6-3.3c4.9,1.4,9.9,1.2,14.8,0.1
	c17.1-4,27.2-15.3,31.4-33.2c6.2,3.6,12.5,5.8,19.2,6.6c7.2,0.8,7.2,0.8,7.2-6.6c0-1-0.1-1.9,0-2.9c0.4-2.7-0.3-3.7-3.2-3.8
	c-7.6-0.3-14.6-3-20.7-7.9c-0.9-0.7-2.1-1.2-2.1-2.7c0.1-6.1-0.5-12.3,1.7-18.2c1.1-3,4.6-6.1,3.2-8.6c-1.4-2.5-5.5-3.2-8.3-4.9
	c-2-1.2-2.7-0.5-3.7,1.4c-5.2,9.4-6.3,19.5-6,30c0.2,5.6,0.7,11.2-0.5,16.7c-2.8,13.3-14.8,22.5-27.5,21.3
	c-13.6-1.3-23.8-12.6-24-27.2c-0.2-17.9-0.2-35.8,0-53.6c0.2-14.5,5-27.4,13.9-38.7c0.9-1.1,1.8-1.8,3-2.2c-2.5-1-5-2.1-7.6-3.2
	c-2.1-0.8-4-1.7-5.8-2.8c-3.9,4.9-7,10.4-10.1,16.5c0-0.1-0.1-0.1-0.1-0.2l0,107.4c2.4,2.6,4.6,5.4,7.3,7.6c2.1,1.7,2.4,3.2,1.6,5.8
	c-8,28.1,6.2,57.6,32.5,68.1c4.2,1.7,8.8,2.2,13,3.6h13.4c0.6-0.7,1.5-0.3,2.2-0.4c0.6,0,1.2-0.1,1.7,0.4h3.9
	c4.9-2,10.1-1.8,15.2-2.7c22.7-4,43.8-13.1,63.7-24.6c27.1-15.7,42.6-40.3,46.5-72.4c-0.3-1.5-0.5-3,0.7-4.2V298z"/>
<path class="st3" d="M649.6,485.1c2.7-2.2,4.9-5,7.3-7.6V370.1c0,0.1-0.1,0.1-0.1,0.2c-3.5-6.8-7-12.9-11.5-18.2
	c-0.6-0.7-0.4-1.5-0.2-2.3c3.8-11.7,7.5-23.3,11.7-36.2c0.1,0.2,0.1,0.3,0.2,0.5v-35.3c-0.1,0-0.2,0-0.3,0c-1.8,0.1-3.7-2.7-5.6-4.1
	c-7.5-5.4-15.6-9.4-24.1-12.6c-2.4-0.9-2.9-1.7-1.7-4.2c9.4-19.3,18.7-38.7,27.9-58c0.9-1.8,1.9-2.5,3.9-2.5v-13.4
	c-3.6,0.1-6.5-2.8-6.6-6.5c-0.1-3.8,2.7-6.8,6.2-6.9c0.1,0,0.2,0,0.3,0v-13.6c-4.4,0-8.8,1.6-12.8,5c-1.8,1.5-2.8,1.1-4.3,0
	c-5.8-4.2-11.7-8.2-17.7-12.3c-12.3-8.5-26.4-8.3-37.4,0.4c-11,8.7-15.5,24.1-11,38.2c6.4,20.7,29.6,29.2,47.4,17.3
	c7.1-4.7,14-9.7,21.3-14.7c0,0.8,0.1,1.1,0,1.3c-10,20.8-20.1,41.6-30,62.4c-1,2-2,1.9-3.7,1.4c-10.1-2.7-20.2-4.8-30.7-4.4
	c-11.9,0.4-15.7,3.4-19.2,14.8c-0.2,0.5-0.4,1-0.5,1.5c-5.2,14.1-10.5,28.2-15.6,42.3c-0.7,2-1.7,3.2-3.9,3.8
	c-25.1,7-43,22.9-53.6,47.6c-7.5,17.5-14.8,35.1-22.2,52.7c-2.6,6.3-4.6,12.7-6,19.4c-0.6,2.6-0.4,5.3-1.8,7.7c0,5.7,0,11.5,0,17.2
	c1.2,1.3,0.9,2.7,0.7,4.2c3.9,32.2,19.4,56.7,46.5,72.4c19.9,11.5,41,20.5,63.7,24.6c5.1,0.9,10.3,0.8,15.2,2.7c1.3,0,2.6,0,3.9,0
	c0.5-0.6,1.1-0.4,1.7-0.4c0.7,0.1,1.6-0.2,2.2,0.4c4.5,0,8.9,0,13.4,0c4.3-1.4,8.8-1.9,13-3.6c26.3-10.5,40.5-40.1,32.5-68.1
	C647.3,488.3,647.5,486.9,649.6,485.1z M635.1,179.6c-6.9,4.6-13.7,9.5-20.6,14.2c-6.3,4.3-12.9,5-19.6,1.2
	c-6.7-3.8-9.6-10.1-9.7-17.5c0.1-8.2,3-14.5,9.7-18.3c6.7-3.8,13.4-3.1,19.7,1.2c6.9,4.7,13.7,9.5,20.6,14.2
	C637.8,176.5,637.9,177.8,635.1,179.6z M648.9,291.2c-16.4,5.2-66.8-12.1-75.2-25.2C592.6,260.9,642,279.4,648.9,291.2z
	 M564.9,287.3c1.1-2.3,1.5-6,3.1-6.7c1.8-0.8,3.9,2.4,6,3.7c21.7,12.8,44.8,21.1,70.1,21.3c0.4,0,0.7,0.1,1.4,0.2
	c-3.7,11.7-7.7,23.2-11,34.9c-1.3,4.6-3.1,5.9-7.6,5.2c-5.2-0.8-10.4-1.3-15.6-2.1c-2.2-0.3-3-0.9-2.1-3.6
	c4.9-15.8,0.6-26.1-13.8-33.5c-9.6-5-19.2-10.1-28.8-14.9C564.3,290.7,563.8,289.6,564.9,287.3z M554.7,315c1.3-3.3,2.6-6.6,3.7-9.9
	c0.6-1.8,1.3-1.8,2.8-1.1c10.5,5.5,21.1,11,31.6,16.5c3.6,1.9,5.3,5.2,5.6,9.4c-0.2,2.9-1.3,5.7-2.2,8.5c-0.5,1.7-1.7,0.8-2.6,0.5
	c-13.6-4.8-26.2-11.6-37.7-20.6C554.5,317.4,554.1,316.6,554.7,315z M626.4,481.4c-12.7,1.2-24.6-7.9-27.5-21.3
	c-1.2-5.5-0.7-11.2-0.5-16.7c0.3-10.5-0.8-20.6-6-30c-1.1-1.9-1.7-2.6-3.7-1.4c-2.8,1.7-6.9,2.4-8.3,4.9c-1.4,2.4,2.1,5.6,3.2,8.6
	c2.2,5.9,1.6,12.1,1.7,18.2c0,1.6-1.2,2-2.1,2.7c-6.1,4.9-13.1,7.5-20.7,7.9c-2.9,0.1-3.6,1.1-3.2,3.8c0.1,0.9,0,1.9,0,2.9
	c0,7.3,0,7.4,7.2,6.6c6.7-0.8,13-3,19.2-6.6c4.2,17.9,14.2,29.2,31.4,33.2c4.9,1.1,10,1.3,14.8-0.1c3.3-0.9,4,0.5,4.6,3.3
	c5.6,27.4-14.2,52-41.5,51.7c-23.1-0.3-45.2-5.5-66.2-15.6c-5.9-2.8-11.9-5.6-17.7-8.7c-36.3-19.3-52.3-64-36.7-103.2
	c7.6-19.1,15.6-38,23.9-56.8c8.6-19.4,23.3-31.8,43.1-37.6c2.2-0.7,3.8-0.4,5.8,1.1c25.1,19.7,53.4,30.3,84.9,31.2
	c2.1,0.1,3.3,0.8,4.6,2.4c8.9,11.3,13.7,24.2,13.9,38.7c0.3,17.9,0.2,35.8,0,53.6C650.2,468.9,640,480.2,626.4,481.4z"/>
<path class="st4" d="M674.1,161.5c-1.6,1.1-2.6,1.5-4.3,0c-4-3.4-8.4-5.1-12.8-5v13.6c0.1,0,0.2,0,0.3,0c3.6,0.1,6.3,3.1,6.2,6.9
	c-0.1,3.7-3,6.6-6.6,6.5V197c2,0,3,0.7,3.9,2.5c9.2,19.4,18.5,38.7,27.9,58c1.2,2.5,0.7,3.3-1.7,4.2c-8.5,3.3-16.7,7.3-24.1,12.6
	c-1.9,1.4-3.8,4.1-5.6,4.1c-0.1,0-0.2,0-0.3,0v35.3c0.1-0.2,0.1-0.3,0.2-0.5c4.1,12.8,7.9,24.5,11.7,36.2c0.3,0.8,0.4,1.6-0.2,2.3
	c-4.6,5.3-8.1,11.5-11.5,18.2c0-0.1-0.1-0.1-0.1-0.2v107.4c2.4,2.6,4.6,5.4,7.3,7.6c2.1,1.7,2.4,3.2,1.6,5.8
	c-8,28.1,6.2,57.6,32.5,68.1c4.2,1.7,8.8,2.2,13,3.6c4.5,0,8.9,0,13.4,0c0.6-0.7,1.5-0.3,2.2-0.4c0.6,0,1.2-0.1,1.7,0.4
	c1.3,0,2.6,0,3.9,0c4.9-2,10.1-1.8,15.2-2.7c22.7-4,43.8-13.1,63.7-24.6c27.1-15.7,42.6-40.3,46.5-72.4c-0.3-1.5-0.5-3,0.7-4.2
	c0-5.7,0-11.5,0-17.2c-1.4-2.4-1.2-5.1-1.8-7.7c-1.4-6.7-3.4-13.1-6-19.4c-7.4-17.6-14.7-35.2-22.2-52.7
	c-10.6-24.7-28.5-40.6-53.6-47.6c-2.3-0.6-3.2-1.8-3.9-3.8c-5.2-14.1-10.4-28.2-15.6-42.3c-0.2-0.5-0.4-1-0.5-1.5
	c-3.5-11.4-7.3-14.4-19.2-14.8c-10.5-0.4-20.6,1.7-30.7,4.4c-1.7,0.5-2.8,0.6-3.7-1.4c-9.9-20.8-20-41.6-30-62.4
	c-0.1-0.2,0-0.5,0-1.3c7.2,5,14.2,9.9,21.3,14.7c17.7,11.9,41,3.4,47.4-17.3 M719.1,159c6.7,3.8,9.6,10.1,9.7,18.3
	c-0.1,7.4-3,13.6-9.7,17.5c-6.7,3.8-13.3,3.1-19.6-1.2c-6.9-4.7-13.6-9.6-20.6-14.2c-2.8-1.9-2.6-3.1,0-4.9
	c6.9-4.7,13.7-9.5,20.6-14.2 M740.3,265.7c-8.4,13.1-58.9,30.4-75.2,25.2C672,279,721.4,260.5,740.3,265.7z M747.4,291.5
	c-9.7,4.8-19.2,9.9-28.8,14.9c-14.3,7.4-18.7,17.7-13.8,33.5c0.8,2.7,0,3.3-2.1,3.6c-5.2,0.8-10.4,1.3-15.6,2.1
	c-4.5,0.7-6.3-0.7-7.6-5.2c-3.3-11.7-7.3-23.2-11-34.9c0.7-0.1,1.1-0.2,1.4-0.2c25.3-0.3,48.3-8.5,70.1-21.3c2.1-1.2,4.2-4.5,6-3.7
	c1.6,0.7,2,4.4,3.1,6.7C750.1,289.2,749.6,290.3,747.4,291.5z M758.2,318c-11.5,9-24.1,15.8-37.7,20.6c-0.9,0.3-2.1,1.2-2.6-0.5
	c-0.9-2.8-2-5.6-2.2-8.5c0.3-4.2,2-7.5,5.6-9.4c10.5-5.5,21.1-11,31.6-16.5c1.5-0.8,2.2-0.7,2.8,1.1c1.1,3.3,2.3,6.6,3.7,9.9
	C759.9,316.2,759.5,317,758.2,318z M663.6,453.9c-0.2-17.9-0.2-35.8,0-53.6c0.2-14.5,5-27.4,13.9-38.7c1.3-1.6,2.5-2.3,4.6-2.4
	c31.5-1,59.8-11.5,84.9-31.2c1.9-1.5,3.5-1.8,5.8-1.1c19.8,5.8,34.5,18.2,43.1,37.6c8.3,18.8,16.3,37.7,23.9,56.8
	c15.6,39.2-0.4,83.9-36.7,103.2c-5.8,3.1-11.8,5.9-17.7,8.7c-21,10.1-43.1,15.2-66.2,15.6c-27.4,0.4-47.1-24.2-41.5-51.7
	c0.6-2.8,1.3-4.2,4.6-3.3c4.9,1.4,9.9,1.2,14.8,0.1c17.1-4,27.2-15.3,31.4-33.2c6.2,3.6,12.5,5.8,19.2,6.6c7.2,0.8,7.2,0.8,7.2-6.6
	c0-1-0.1-1.9,0-2.9c0.4-2.7-0.3-3.7-3.2-3.8c-7.6-0.3-14.6-3-20.7-7.9c-0.9-0.7-2.1-1.2-2.1-2.7c0.1-6.1-0.5-12.3,1.7-18.2
	c1.1-3,4.6-6.1,3.2-8.6c-1.4-2.5-5.5-3.2-8.3-4.9c-2-1.2-2.7-0.5-3.7,1.4c-5.2,9.4-6.3,19.5-6,30c0.2,5.6,0.7,11.2-0.5,16.7
	c-2.8,13.3-14.8,22.5-27.5,21.3C674,479.8,663.8,468.5,663.6,453.9z"/>
<path class="st2" d="M218.1-218.7c7.1-4.7,14-9.7,21.3-14.7c0,0.8,0.1,1.1,0,1.3c-10,20.8-20.1,41.6-30,62.4c-0.5,1-1,1.5-1.6,1.6
	c0.8,0.3,1.6,0.7,2.3,1.1c0.5,0.3,1,0.6,1.4,1c3.9,0.7,7.9,1.4,10.2,3.8c0.4-0.1,0.7-0.2,1.1-0.4c-1.4-0.8-1.7-1.7-0.6-3.8
	c9.4-19.3,18.7-38.7,27.9-58c0.9-1.8,1.9-2.5,3.9-2.5c2,0,2.7,0.9,3.5,2.5c9.3,19.4,18.6,38.7,27.9,58c0.3,0.7,0.7,1.5,1,2.2
	c-0.1,1.6-1.5,1.6-2.4,1.9c0.3,0,0.5,0,0.7,0c1.3-0.1,2.6-0.4,3.8-0.8c3-0.8,6-1.9,8.9-3c1.2-0.7,2.4-1.4,3.6-2.1
	c-1.5,0.1-2.3-0.5-3.2-2.4c-9.6-20.1-19.3-40.2-28.9-60.2c-0.3-0.7-1.4-1.4-0.4-2.5c6.9,4.8,13.7,9.6,20.6,14.3
	c7.6,5.2,15.9,7.1,24.8,4.8c13.2-3.4,21.6-12.4,23.9-26.3c2.3-14.2-1.5-26.7-13.7-34.9c-11.7-7.9-23.8-7.4-35.4,0.6
	c-6,4.1-12,8.3-18,12.5c-1.6,1.1-2.6,1.4-4.3-0.1c-7.8-6.7-17.3-6.7-25.2,0c-1.8,1.5-2.8,1.1-4.3,0c-5.8-4.2-11.7-8.2-17.7-12.3
	c-12.3-8.5-26.4-8.3-37.4,0.4c-11,8.7-15.5,24.1-11,38.2C177.1-215.3,200.4-206.8,218.1-218.7z M275.6-249.5
	c6.9-4.7,13.7-9.5,20.7-14.2c6.2-4.2,12.8-4.8,19.4-1.2c6.8,3.7,9.7,10,9.8,17.6c-0.1,8-3,14.3-9.7,18.1c-6.6,3.8-13.1,3.2-19.3-1
	c-7-4.7-13.9-9.8-21-14.5C272.4-246.6,273.1-247.9,275.6-249.5z M253.6-253.7c3.6-0.1,6.5,2.8,6.6,6.5c0.1,3.8-2.7,6.8-6.2,6.9
	c-3.6,0.1-6.5-2.8-6.6-6.5C247.3-250.6,250-253.6,253.6-253.7z M191.8-264.9c6.7-3.8,13.4-3.1,19.7,1.2c6.9,4.7,13.7,9.5,20.6,14.2
	c2.6,1.8,2.8,3,0,4.9c-6.9,4.6-13.7,9.5-20.6,14.2c-6.3,4.3-12.9,5-19.6,1.2c-6.7-3.8-9.6-10.1-9.7-17.5
	C182.2-254.8,185.1-261.1,191.8-264.9z"/>
<path class="st2" d="M317.6,168.9c-1.1-1.7-1.9-3.7-2.7-6c-4-12.7-10-24.7-13.3-37.5c-2.4-9.5-7.6-13.1-15.8-14.2
	c-11.9-1.6-23.5,1-34.9,4c-2.5,0.6-3.4,0.1-4.5-2.2c-9.8-20.5-19.7-41-29.5-61.6c-0.3-0.7-1.4-1.4-0.4-2.6c7,4.9,14,9.8,21.1,14.6
	c7.8,5.3,16.3,7.2,25.3,4.9c13.5-3.5,22.1-12.7,24.4-26.8c2.4-14.6-1.6-27.3-14-35.7c-12-8.1-24.3-7.5-36.2,0.6
	c-6.2,4.2-12.3,8.4-18.4,12.8c-1.6,1.1-2.6,1.5-4.4-0.1c-8-6.8-17.7-6.8-25.7,0c-1.8,1.5-2.8,1.2-4.4,0c-6-4.2-12-8.4-18-12.5
	c-12.6-8.6-27-8.5-38.3,0.4c-11.2,8.8-15.8,24.6-11.3,39.1c6.6,21.1,30.3,29.8,48.4,17.7c7.2-4.8,14.3-9.9,21.7-15
	c0,0.8,0.1,1.1,0,1.3c-10.2,21.3-20.5,42.5-30.6,63.8c-1,2.1-2.1,1.9-3.8,1.4c-10.3-2.7-20.7-4.9-31.3-4.5
	c-12.2,0.4-16,3.5-19.6,15.2c-0.2,0.5-0.4,1-0.6,1.6c-5.3,14.4-10.7,28.8-16,43.2c-0.1,0.4-0.3,0.7-0.5,1.1c0.1,3,0,6.1,0.5,9
	c0.5,2.7,1.1,5.2,2.7,7.5c0.5,0.2,1.1,0.6,1.6,1c25.7,20.1,54.5,30.9,86.7,31.9c0.3,0,0.6,0,0.8,0.1c0.7-0.2,1.3-0.4,2-0.7
	c4.6-1.8,7.7-5.3,10.6-9c0-0.1,0.1-0.3,0.1-0.4c3.8-11.9,7.7-23.8,11.9-36.9c4.2,13,8,24.8,11.8,36.6c0.1,0.5,0.2,0.9,0.2,1.3
	c1.1,2.6,2.3,5.3,4.1,7.4c0.5,0.3,0.9,0.6,1.5,0.8c1.8,0.8,3.9,1,5.9,1.1c0.5-0.2,1.1-0.3,1.7-0.3c32.5-1,61.6-11.8,87.4-32.3
	c0.6-0.5,1.2-0.8,1.8-1c1.1-1.6,1.7-3.2,2.3-5.2c0.6-2.2,1.1-4.3,1.3-6.4C318.7,173.8,318,171.4,317.6,168.9z M223.5,32.1
	c7.1-4.8,14-9.7,21.1-14.5c6.4-4.3,13.1-4.9,19.8-1.2c6.9,3.8,9.9,10.2,10.1,18c-0.1,8.2-3.1,14.6-9.9,18.5
	c-6.7,3.9-13.4,3.3-19.8-1c-7.2-4.8-14.2-10-21.4-14.8C220.3,35.1,221,33.9,223.5,32.1z M179.1,37.2c-7.1,4.7-14,9.7-21,14.5
	c-6.4,4.4-13.2,5.2-20.1,1.2c-6.9-3.9-9.8-10.3-9.9-17.8c0.1-8.4,3.1-14.8,9.9-18.7c6.8-3.8,13.6-3.2,20.1,1.2c7,4.8,14,9.7,21,14.5
	C181.8,34,182,35.3,179.1,37.2z M201.1,27.8c3.6-0.1,6.6,2.9,6.7,6.7c0.1,3.8-2.7,7-6.4,7.1c-3.6,0.1-6.7-2.9-6.7-6.7
	C194.6,31,197.4,27.9,201.1,27.8z M139.2,199.5c-0.5,1.7-1.8,0.8-2.7,0.5c-13.9-4.9-26.8-11.8-38.6-21c-1.3-1-1.7-1.9-1-3.5
	c1.3-3.3,2.6-6.7,3.7-10.1c0.6-1.8,1.4-1.9,2.9-1.1c10.7,5.7,21.5,11.2,32.3,16.9c3.7,1.9,5.4,5.3,5.7,9.6
	C141.3,193.7,140.1,196.6,139.2,199.5z M178.5,201.8c-1.3,4.7-3.2,6-7.8,5.3c-5.3-0.8-10.6-1.3-15.9-2.1c-2.2-0.4-3.1-1-2.2-3.7
	c5-16.1,0.6-26.7-14.1-34.2c-9.8-5.1-19.6-10.3-29.4-15.2c-2.3-1.2-2.8-2.3-1.7-4.6c1.1-2.3,1.5-6.1,3.2-6.9c1.9-0.8,4,2.5,6.2,3.7
	c22.2,13.1,45.7,21.5,71.6,21.8c0.4,0,0.8,0.1,1.5,0.2C185.9,178.1,181.9,189.9,178.5,201.8z M116.3,125.5
	c19.4-5.3,69.8,13.6,76.9,25.7C176.4,156.6,124.9,138.9,116.3,125.5z M201.1,138.6c-1.9,0.1-3.8-2.7-5.8-4.2
	c-7.6-5.5-16-9.6-24.7-12.9c-2.4-0.9-3-1.8-1.7-4.3c9.6-19.7,19.1-39.5,28.5-59.3c0.9-1.9,1.9-2.6,4-2.6c2,0,2.8,0.9,3.6,2.6
	c9.5,19.8,19,39.5,28.5,59.3c0.4,0.7,0.7,1.5,1.1,2.3c-0.1,1.7-1.7,1.6-2.7,2c-8.6,3.5-17,7.5-24.6,13
	C205.2,135.9,203.2,138.5,201.1,138.6z M286.2,125.5c-9,13.6-60.4,31-76.9,25.7C216.8,138.9,267.3,120.2,286.2,125.5z M249.6,200.2
	c1.3,3.9,0.1,4.5-3.2,5.1c-6,1-11.9,1.6-18,2c-1.4,0.1-2.5,0.3-3.1-1.6c-3.9-12.4-7.9-24.8-11.9-37.2c-0.2-0.8-0.3-1.6-0.5-2.4
	c31.5-1.8,54.6-9.5,79-26.3c0.4,0.5,0.6,0.7,0.7,0.9c3.9,9.6,3.9,9.6-5,14.1c-8.4,4.3-16.8,8.7-25.1,13
	C249.7,174.6,244.9,186.1,249.6,200.2z M296.4,184.9c-9.2,6.1-18.9,10.9-29.2,14.8c-2.8,1-4.1,0.7-4.7-2.4c-0.4-2.2-1.1-4.3-1.5-5.9
	c0.3-4.6,1.8-8,5.3-9.9c10.9-5.8,22-11.5,32.9-17.3c1.5-0.8,2.1-0.3,2.6,1.1c0.1,0.3,0.1,0.5,0.2,0.8
	C306.7,177.9,306.8,178,296.4,184.9z"/>
</svg>
