<?xml version="1.0" encoding="utf-8"?>
<!-- Generator: Adobe Illustrator 25.2.1, SVG Export Plug-In . SVG Version: 6.00 Build 0)  -->
<svg version="1.1" id="Calque_1" xmlns="http://www.w3.org/2000/svg" xmlns:xlink="http://www.w3.org/1999/xlink" x="0px" y="0px"
	 viewBox="0 0 33.4 34.7" style="enable-background:new 0 0 33.4 34.7;" xml:space="preserve">
<style type="text/css">
	.st0{fill:url(#SVGID_1_);}
	.st1{fill:#FFFFFF;}
	.st2{fill-rule:evenodd;clip-rule:evenodd;fill:#FFFFFF;}
</style>
<g>
	<linearGradient id="SVGID_1_" gradientUnits="userSpaceOnUse" x1="27.0637" y1="7.0233" x2="6.386" y2="27.7011">
		<stop  offset="0" style="stop-color:#00FB73"/>
		<stop  offset="1" style="stop-color:#00B25B"/>
	</linearGradient>
	<circle class="st0" cx="16.7" cy="17.4" r="14.6"/>
	<path class="st1" d="M8.8,25.6l1.2-4.5C9.4,19.8,9,18.4,9,17c0-4.6,3.8-8.4,8.4-8.4c4.6,0,8.4,3.8,8.4,8.4c0,4.6-3.8,8.4-8.4,8.4
		c-1.4,0-2.8-0.4-4-1L8.8,25.6z M13.6,22.7l0.3,0.2c1.1,0.6,2.3,1,3.5,1c3.8,0,6.8-3.1,6.8-6.8s-3.1-6.8-6.8-6.8
		c-3.8,0-6.8,3.1-6.8,6.8c0,1.2,0.3,2.5,1,3.5l0.2,0.3l-0.7,2.5L13.6,22.7z"/>
	<path class="st2" d="M20.5,18.2c-0.3-0.2-0.8-0.4-1.2-0.3c-0.3,0.1-0.5,0.6-0.7,0.9c-0.1,0.1-0.2,0.1-0.4,0.1
		c-1.2-0.5-2.1-1.3-2.7-2.3c-0.1-0.2-0.1-0.3,0-0.5c0.2-0.2,0.4-0.5,0.5-0.8c0.1-0.3-0.1-0.7-0.2-0.9c-0.2-0.4-0.3-0.9-0.7-1.1
		c-0.3-0.2-0.8-0.1-1,0.2c-0.5,0.4-0.7,1-0.7,1.7c0,0.2,0,0.4,0.1,0.5c0.1,0.4,0.3,0.8,0.5,1.2c0.2,0.3,0.3,0.5,0.5,0.8
		c0.6,0.9,1.4,1.6,2.3,2.1c0.5,0.3,0.9,0.5,1.4,0.7c0.6,0.2,1.1,0.4,1.7,0.3c0.6-0.1,1.3-0.5,1.5-1.1c0.1-0.2,0.1-0.4,0.1-0.6
		C21.4,18.6,20.8,18.4,20.5,18.2z"/>
</g>
</svg>
