<?xml version="1.0" encoding="utf-8"?>
<!-- Generator: Adobe Illustrator 25.2.1, SVG Export Plug-In . SVG Version: 6.00 Build 0)  -->
<svg version="1.1" id="Calque_1" xmlns="http://www.w3.org/2000/svg" xmlns:xlink="http://www.w3.org/1999/xlink" x="0px" y="0px"
	 viewBox="0 0 33.4 34.7" style="enable-background:new 0 0 33.4 34.7;" xml:space="preserve">
<style type="text/css">
	.st0{fill:url(#SVGID_1_);}
	.st1{fill:#FFFFFF;}
</style>
<g>
	<linearGradient id="SVGID_1_" gradientUnits="userSpaceOnUse" x1="26.9778" y1="7.0048" x2="6.3" y2="27.6826">
		<stop  offset="0" style="stop-color:#FF0000"/>
		<stop  offset="1" style="stop-color:#9B0000"/>
	</linearGradient>
	<circle class="st0" cx="16.6" cy="17.3" r="14.6"/>
	<path class="st1" d="M24.6,15.3c0-1.9-1.6-3.5-3.5-3.5h-9c-1.9,0-3.5,1.6-3.5,3.5v4.2c0,1.9,1.6,3.5,3.5,3.5h9
		c1.9,0,3.5-1.6,3.5-3.5V15.3z M19.4,17.7l-4,2c-0.2,0.1-0.7,0-0.7-0.2v-4.1c0-0.2,0.5-0.3,0.7-0.2l3.9,2.1
		C19.4,17.3,19.5,17.6,19.4,17.7z"/>
</g>
</svg>
